999
dxfrw 0.6.3
  0
SECTION
  2
HEADER
  9
$ACADVER
  1
AC1021
  9
$DWGCODEPAGE
  3
ANSI_1252
  9
$INSBASE
 10
0
 20
0
 30
0
  9
$EXTMIN
 10
0
 20
0
 30
0
  9
$EXTMAX
 10
210
 20
311
 30
0
  9
$LIMMIN
 10
0
 20
0
  9
$LIMMAX
 10
420
 20
297
  9
$ORTHOMODE
 70
    0
  9
$REGENMODE
 70
    1
  9
$FILLMODE
 70
    1
  9
$QTEXTMODE
 70
    0
  9
$MIRRTEXT
 70
    0
  9
$LTSCALE
 40
1
  9
$ATTMODE
 70
    0
  9
$TEXTSIZE
 40
2.5
  9
$TRACEWID
 40
15.68
  9
$TEXTSTYLE
  7
STANDARD
  9
$CLAYER
  8
00. —В–Є—В—Г–ї—М–љ—Л–є
  9
$CELTYPE
  6
BYLAYER
  9
$CECOLOR
 62
  256
  9
$CELTSCALE
 40
1
  9
$DISPSILH
 70
    0
  9
$DIMSCALE
 40
1
  9
$DIMASZ
 40
2.5
  9
$DIMEXO
 40
0.625
  9
$DIMDLI
 40
3.75
  9
$DIMRND
 40
0
  9
$DIMDLE
 40
0
  9
$DIMEXE
 40
1.25
  9
$DIMTP
 40
0
  9
$DIMTM
 40
0
  9
$DIMTXT
 40
2.5
  9
$DIMCEN
 40
2.5
  9
$DIMTSZ
 40
0
  9
$DIMTOL
 70
    0
  9
$DIMLIM
 70
    0
  9
$DIMTIH
 70
    0
  9
$DIMTOH
 70
    0
  9
$DIMSE1
 70
    0
  9
$DIMSE2
 70
    0
  9
$DIMTAD
 70
    1
  9
$DIMZIN
 70
    1
  9
$DIMBLK
  1

  9
$DIMASO
 70
    1
  9
$DIMSHO
 70
    1
  9
$DIMPOST
  1

  9
$DIMAPOST
  1

  9
$DIMALT
 70
    0
  9
$DIMALTD
 70
    3
  9
$DIMALTF
 40
0.03937
  9
$DIMLFAC
 40
1
  9
$DIMTOFL
 70
    1
  9
$DIMTVP
 40
0
  9
$DIMTIX
 70
    0
  9
$DIMSOXD
 70
    0
  9
$DIMSAH
 70
    0
  9
$DIMBLK1
  1

  9
$DIMBLK2
  1

  9
$DIMSTYLE
  2
STANDARD
  9
$DIMCLRD
 70
   96
  9
$DIMCLRE
 70
    0
  9
$DIMCLRT
 70
    0
  9
$DIMTFAC
 40
1
  9
$DIMGAP
 40
0.625
  9
$DIMJUST
 70
    0
  9
$DIMSD1
 70
    0
  9
$DIMSD2
 70
    0
  9
$DIMTOLJ
 70
    0
  9
$DIMTZIN
 70
    8
  9
$DIMALTZ
 70
    0
  9
$DIMALTTZ
 70
    0
  9
$DIMUPT
 70
    0
  9
$DIMDEC
 70
    1
  9
$DIMTDEC
 70
    2
  9
$DIMALTU
 70
    2
  9
$DIMALTTD
 70
    3
  9
$DIMTXSTY
  7
standard
  9
$DIMAUNIT
 70
    0
  9
$DIMADEC
 70
    2
  9
$DIMALTRND
 40
0
  9
$DIMAZIN
 70
    0
  9
$DIMDSEP
 70
    0
  9
$DIMATFIT
 70
    3
  9
$DIMFRAC
 70
    0
  9
$DIMLDRBLK
  1
STANDARD
  9
$DIMLUNIT
 70
    2
  9
$DIMLWD
 70
   -2
  9
$DIMLWE
 70
   -2
  9
$DIMTMOVE
 70
    0
  9
$DIMFXL
 40
1
  9
$DIMFXLON
 70
    0
  9
$DIMJOGANG
 40
0.7854
  9
$DIMTFILL
 70
    0
  9
$DIMTFILLCLR
 70
    0
  9
$DIMARCSYM
 70
    0
  9
$DIMLTYPE
  6

  9
$DIMLTEX1
  6

  9
$DIMLTEX2
  6

  9
$LUNITS
 70
    2
  9
$LUPREC
 70
    0
  9
$SKETCHINC
 40
1
  9
$FILLETRAD
 40
0
  9
$AUNITS
 70
    0
  9
$AUPREC
 70
    2
  9
$MENU
  1
.
  9
$ELEVATION
 40
0
  9
$PELEVATION
 40
0
  9
$THICKNESS
 40
0
  9
$LIMCHECK
 70
    0
  9
$CHAMFERA
 40
0
  9
$CHAMFERB
 40
0
  9
$CHAMFERC
 40
0
  9
$CHAMFERD
 40
0
  9
$SKPOLY
 70
    0
  9
$USRTIMER
 70
    1
  9
$ANGBASE
 50
0
  9
$ANGDIR
 70
    0
  9
$PDMODE
 70
   34
  9
$PDSIZE
 40
0
  9
$PLINEWID
 40
0
  9
$SPLFRAME
 70
    0
  9
$SPLINETYPE
 70
    2
  9
$SPLINESEGS
 70
    8
  9
$HANDSEED
  5
20000
  9
$SURFTAB1
 70
    6
  9
$SURFTAB2
 70
    6
  9
$SURFTYPE
 70
    6
  9
$SURFU
 70
    6
  9
$SURFV
 70
    6
  9
$UCSBASE
  2

  9
$UCSNAME
  2

  9
$UCSORG
 10
0
 20
0
 30
0
  9
$UCSXDIR
 10
1
 20
0
 30
0
  9
$UCSYDIR
 10
0
 20
1
 30
0
  9
$UCSORTHOREF
  2

  9
$UCSORTHOVIEW
 70
    0
  9
$UCSORGTOP
 10
0
 20
0
 30
0
  9
$UCSORGBOTTOM
 10
0
 20
0
 30
0
  9
$UCSORGLEFT
 10
0
 20
0
 30
0
  9
$UCSORGRIGHT
 10
0
 20
0
 30
0
  9
$UCSORGFRONT
 10
0
 20
0
 30
0
  9
$UCSORGBACK
 10
0
 20
0
 30
0
  9
$PUCSBASE
  2

  9
$PUCSNAME
  2

  9
$PUCSORG
 10
0
 20
0
 30
0
  9
$PUCSXDIR
 10
1
 20
0
 30
0
  9
$PUCSYDIR
 10
0
 20
1
 30
0
  9
$PUCSORTHOREF
  2

  9
$PUCSORTHOVIEW
 70
    0
  9
$PUCSORGTOP
 10
0
 20
0
 30
0
  9
$PUCSORGBOTTOM
 10
0
 20
0
 30
0
  9
$PUCSORGLEFT
 10
0
 20
0
 30
0
  9
$PUCSORGRIGHT
 10
0
 20
0
 30
0
  9
$PUCSORGFRONT
 10
0
 20
0
 30
0
  9
$PUCSORGBACK
 10
0
 20
0
 30
0
  9
$USERI1
 70
    0
  9
$USERI2
 70
    0
  9
$USERI3
 70
    0
  9
$USERI4
 70
    0
  9
$USERI5
 70
    0
  9
$USERR1
 40
0
  9
$USERR2
 40
0
  9
$USERR3
 40
0
  9
$USERR4
 40
0
  9
$USERR5
 40
0
  9
$WORLDVIEW
 70
    1
  9
$SHADEDGE
 70
    3
  9
$SHADEDIF
 70
   70
  9
$TILEMODE
 70
    1
  9
$MAXACTVP
 70
   64
  9
$PINSBASE
 10
0
 20
0
 30
0
  9
$PLIMCHECK
 70
    0
  9
$PEXTMIN
 10
0
 20
0
 30
0
  9
$PEXTMAX
 10
0
 20
0
 30
0
  9
$GRIDMODE
 70
    1
  9
$SNAPSTYLE
 70
    0
  9
$GRIDUNIT
 10
0
 20
0
  9
$PLIMMIN
 10
0
 20
0
  9
$PLIMMAX
 10
210
 20
297
  9
$UNITMODE
 70
    0
  9
$VISRETAIN
 70
    1
  9
$PLINEGEN
 70
    0
  9
$PSLTSCALE
 70
    1
  9
$TREEDEPTH
 70
 3020
  9
$CMLSTYLE
  2
Standard
  9
$CMLJUST
 70
    0
  9
$CMLSCALE
 40
20
  9
$PROXYGRAPHICS
 70
    1
  9
$MEASUREMENT
 70
    1
  9
$CELWEIGHT
370
   -1
  9
$ENDCAPS
280
    0
  9
$JOINSTYLE
280
    0
  9
$LWDISPLAY
290
    0
  9
$INSUNITS
 70
    4
  9
$HYPERLINKBASE
  1

  9
$STYLESHEET
  1

  9
$XEDIT
290
    1
  9
$CEPSNTYPE
380
    0
  9
$PSTYLEMODE
290
    1
  9
$EXTNAMES
290
    1
  9
$PSVPSCALE
 40
1
  9
$OLESTARTUP
290
    0
  9
$SORTENTS
280
  127
  9
$INDEXCTL
280
    0
  9
$HIDETEXT
280
    1
  9
$XCLIPFRAME
290
    0
  9
$HALOGAP
280
    0
  9
$OBSCOLOR
 70
  257
  9
$OBSLTYPE
280
    0
  9
$INTERSECTIONDISPLAY
280
    0
  9
$INTERSECTIONCOLOR
 70
  257
  9
$DIMASSOC
280
    1
  9
$PROJECTNAME
  1

  9
$CAMERADISPLAY
290
    0
  9
$LENSLENGTH
 40
50
  9
$CAMERAHEIGHT
 40
0
  9
$STEPSPERSEC
 40
2
  9
$STEPSIZE
 40
50
  9
$3DDWFPREC
 40
2
  9
$PSOLWIDTH
 40
5
  9
$PSOLHEIGHT
 40
80
  9
$LOFTANG1
 40
1.570796326794897
  9
$LOFTANG2
 40
1.570796326794897
  9
$LOFTMAG1
 40
0
  9
$LOFTMAG2
 40
0
  9
$LOFTPARAM
 70
    7
  9
$LOFTNORMALS
280
    1
  9
$LATITUDE
 40
1
  9
$LONGITUDE
 40
1
  9
$NORTHDIRECTION
 40
0
  9
$TIMEZONE
 70
-8000
  9
$LIGHTGLYPHDISPLAY
280
    1
  9
$TILEMODELIGHTSYNCH
280
    1
  9
$SOLIDHIST
280
    1
  9
$SHOWHIST
280
    1
  9
$DWFFRAME
280
    2
  9
$DGNFRAME
280
    0
  9
$REALWORLDSCALE
290
    1
  9
$INTERFERECOLOR
 62
    1
  9
$CSHADOW
280
    0
  9
$SHADOWPLANELOCATION
 40
0
  0
ENDSEC
  0
SECTION
  2
CLASSES
  0
ENDSEC
  0
SECTION
  2
TABLES
  0
TABLE
  2
VPORT
  5
8
330
0
100
AcDbSymbolTable
 70
    1
  0
VPORT
  5
31
330
2
100
AcDbSymbolTableRecord
100
AcDbViewportTableRecord
  2
*ACTIVE
 70
    0
 10
0
 20
0
 11
1
 21
1
 12
137.4303776981346
 22
154.1901798564437
 13
0
 23
0
 14
10
 24
10
 15
10
 25
10
 16
0
 26
0
 36
1
 17
0
 27
0
 37
0
 40
267.85211085734
 41
1.501706484641638
 42
50
 43
0
 44
0
 50
0
 51
0
 71
    0
 72
  100
 73
    1
 74
    3
 75
    0
 76
    1
 77
    0
 78
    0
281
    0
 65
    1
110
0
120
0
130
0
111
1
121
0
131
0
112
0
122
1
132
0
 79
    0
146
0
348
10020
 60
    7
 61
    5
292
1
282
    1
141
0
142
0
 63
  250
421
3358443
  0
ENDTAB
  0
TABLE
  2
LTYPE
  5
5
330
0
100
AcDbSymbolTable
 70
    4
  0
LTYPE
  5
14
330
5
100
AcDbSymbolTableRecord
100
AcDbLinetypeTableRecord
  2
ByBlock
 70
    0
  3

 72
   65
 73
    0
 40
0
  0
LTYPE
  5
15
330
5
100
AcDbSymbolTableRecord
100
AcDbLinetypeTableRecord
  2
ByLayer
 70
    0
  3

 72
   65
 73
    0
 40
0
  0
LTYPE
  5
16
330
5
100
AcDbSymbolTableRecord
100
AcDbLinetypeTableRecord
  2
Continuous
 70
    0
  3
Solid line
 72
   65
 73
    0
 40
0
  0
LTYPE
  5
32
330
5
100
AcDbSymbolTableRecord
100
AcDbLinetypeTableRecord
  2
DOT
 70
    0
  3
Dot . . . . . . . . . . . . . . . . . . . . . .
 72
   65
 73
    2
 40
6.35
 49
0
 74
    0
 49
-6.35
 74
    0
  0
LTYPE
  5
33
330
5
100
AcDbSymbolTableRecord
100
AcDbLinetypeTableRecord
  2
DOTTINY
 70
    0
  3
Dot (.15x) .....................................
 72
   65
 73
    2
 40
0.9525
 49
0
 74
    0
 49
-0.9525
 74
    0
  0
LTYPE
  5
34
330
5
100
AcDbSymbolTableRecord
100
AcDbLinetypeTableRecord
  2
DOT2
 70
    0
  3
Dot (.5x) .....................................
 72
   65
 73
    2
 40
3.175
 49
0
 74
    0
 49
-3.175
 74
    0
  0
LTYPE
  5
35
330
5
100
AcDbSymbolTableRecord
100
AcDbLinetypeTableRecord
  2
DOTX2
 70
    0
  3
Dot (2x) .  .  .  .  .  .  .  .  .  .  .  .  .
 72
   65
 73
    2
 40
12.7
 49
0
 74
    0
 49
-12.7
 74
    0
  0
LTYPE
  5
36
330
5
100
AcDbSymbolTableRecord
100
AcDbLinetypeTableRecord
  2
DASHED
 70
    0
  3
Dashed _ _ _ _ _ _ _ _ _ _ _ _ _ _ _ _ _
 72
   65
 73
    2
 40
19.05
 49
12.7
 74
    0
 49
-6.35
 74
    0
  0
LTYPE
  5
37
330
5
100
AcDbSymbolTableRecord
100
AcDbLinetypeTableRecord
  2
DASHEDTINY
 70
    0
  3
Dashed (.15x) _ _ _ _ _ _ _ _ _ _ _ _ _ _ _ _ _
 72
   65
 73
    2
 40
2.8575
 49
1.905
 74
    0
 49
-0.9525
 74
    0
  0
LTYPE
  5
38
330
5
100
AcDbSymbolTableRecord
100
AcDbLinetypeTableRecord
  2
DASHED2
 70
    0
  3
Dashed (.5x) _ _ _ _ _ _ _ _ _ _ _ _ _ _ _ _ _
 72
   65
 73
    2
 40
9.524999999999999
 49
6.35
 74
    0
 49
-3.175
 74
    0
  0
LTYPE
  5
39
330
5
100
AcDbSymbolTableRecord
100
AcDbLinetypeTableRecord
  2
DASHEDX2
 70
    0
  3
Dashed (2x) ____  ____  ____  ____  ____  ___
 72
   65
 73
    2
 40
38.09999999999999
 49
25.4
 74
    0
 49
-12.7
 74
    0
  0
LTYPE
  5
3A
330
5
100
AcDbSymbolTableRecord
100
AcDbLinetypeTableRecord
  2
DASHDOT
 70
    0
  3
Dash dot __ . __ . __ . __ . __ . __ . __ . __
 72
   65
 73
    4
 40
25.4
 49
12.7
 74
    0
 49
-6.35
 74
    0
 49
0
 74
    0
 49
-6.35
 74
    0
  0
LTYPE
  5
3B
330
5
100
AcDbSymbolTableRecord
100
AcDbLinetypeTableRecord
  2
DASHDOTTINY
 70
    0
  3
Dash dot (.15x) _._._._._._._._._._._._._._._.
 72
   65
 73
    4
 40
3.81
 49
1.905
 74
    0
 49
-0.9525
 74
    0
 49
0
 74
    0
 49
-0.9525
 74
    0
  0
LTYPE
  5
3C
330
5
100
AcDbSymbolTableRecord
100
AcDbLinetypeTableRecord
  2
DASHDOT2
 70
    0
  3
Dash dot (.5x) _._._._._._._._._._._._._._._.
 72
   65
 73
    4
 40
12.7
 49
6.35
 74
    0
 49
-3.175
 74
    0
 49
0
 74
    0
 49
-3.175
 74
    0
  0
LTYPE
  5
3D
330
5
100
AcDbSymbolTableRecord
100
AcDbLinetypeTableRecord
  2
DASHDOTX2
 70
    0
  3
Dash dot (2x) ____  .  ____  .  ____  .  ___
 72
   65
 73
    4
 40
50.8
 49
25.4
 74
    0
 49
-12.7
 74
    0
 49
0
 74
    0
 49
-12.7
 74
    0
  0
LTYPE
  5
3E
330
5
100
AcDbSymbolTableRecord
100
AcDbLinetypeTableRecord
  2
DIVIDE
 70
    0
  3
Divide ____ . . ____ . . ____ . . ____ . . ____
 72
   65
 73
    6
 40
31.75
 49
12.7
 74
    0
 49
-6.35
 74
    0
 49
0
 74
    0
 49
-6.35
 74
    0
 49
0
 74
    0
 49
-6.35
 74
    0
  0
LTYPE
  5
3F
330
5
100
AcDbSymbolTableRecord
100
AcDbLinetypeTableRecord
  2
DIVIDETINY
 70
    0
  3
Divide (.15x) __..__..__..__..__..__..__..__.._
 72
   65
 73
    6
 40
4.7625
 49
1.905
 74
    0
 49
-0.9525
 74
    0
 49
0
 74
    0
 49
-0.9525
 74
    0
 49
0
 74
    0
 49
-0.9525
 74
    0
  0
LTYPE
  5
40
330
5
100
AcDbSymbolTableRecord
100
AcDbLinetypeTableRecord
  2
DIVIDE2
 70
    0
  3
Divide (.5x) __..__..__..__..__..__..__..__.._
 72
   65
 73
    6
 40
15.875
 49
6.35
 74
    0
 49
-3.175
 74
    0
 49
0
 74
    0
 49
-3.175
 74
    0
 49
0
 74
    0
 49
-3.175
 74
    0
  0
LTYPE
  5
41
330
5
100
AcDbSymbolTableRecord
100
AcDbLinetypeTableRecord
  2
DIVIDEX2
 70
    0
  3
Divide (2x) ________  .  .  ________  .  .  _
 72
   65
 73
    6
 40
63.5
 49
25.4
 74
    0
 49
-12.7
 74
    0
 49
0
 74
    0
 49
-12.7
 74
    0
 49
0
 74
    0
 49
-12.7
 74
    0
  0
LTYPE
  5
42
330
5
100
AcDbSymbolTableRecord
100
AcDbLinetypeTableRecord
  2
BORDER
 70
    0
  3
Border __ __ . __ __ . __ __ . __ __ . __ __ .
 72
   65
 73
    6
 40
44.45
 49
12.7
 74
    0
 49
-6.35
 74
    0
 49
12.7
 74
    0
 49
-6.35
 74
    0
 49
0
 74
    0
 49
-6.35
 74
    0
  0
LTYPE
  5
43
330
5
100
AcDbSymbolTableRecord
100
AcDbLinetypeTableRecord
  2
BORDERTINY
 70
    0
  3
Border (.15x) __.__.__.__.__.__.__.__.__.__.__.
 72
   65
 73
    6
 40
6.6675
 49
1.905
 74
    0
 49
-0.9525
 74
    0
 49
1.905
 74
    0
 49
-0.9525
 74
    0
 49
0
 74
    0
 49
-0.9525
 74
    0
  0
LTYPE
  5
44
330
5
100
AcDbSymbolTableRecord
100
AcDbLinetypeTableRecord
  2
BORDER2
 70
    0
  3
Border (.5x) __.__.__.__.__.__.__.__.__.__.__.
 72
   65
 73
    6
 40
22.225
 49
6.35
 74
    0
 49
-3.175
 74
    0
 49
6.35
 74
    0
 49
-3.175
 74
    0
 49
0
 74
    0
 49
-3.175
 74
    0
  0
LTYPE
  5
45
330
5
100
AcDbSymbolTableRecord
100
AcDbLinetypeTableRecord
  2
BORDERX2
 70
    0
  3
Border (2x) ____  ____  .  ____  ____  .  ___
 72
   65
 73
    6
 40
88.89999999999999
 49
25.4
 74
    0
 49
-12.7
 74
    0
 49
25.4
 74
    0
 49
-12.7
 74
    0
 49
0
 74
    0
 49
-12.7
 74
    0
  0
LTYPE
  5
46
330
5
100
AcDbSymbolTableRecord
100
AcDbLinetypeTableRecord
  2
CENTER
 70
    0
  3
Center ____ _ ____ _ ____ _ ____ _ ____ _ ____
 72
   65
 73
    4
 40
50.8
 49
31.75
 74
    0
 49
-6.35
 74
    0
 49
6.35
 74
    0
 49
-6.35
 74
    0
  0
LTYPE
  5
47
330
5
100
AcDbSymbolTableRecord
100
AcDbLinetypeTableRecord
  2
CENTERTINY
 70
    0
  3
Center (.15x) ___ _ ___ _ ___ _ ___ _ ___ _ ___
 72
   65
 73
    4
 40
7.62
 49
4.7625
 74
    0
 49
-0.9525
 74
    0
 49
0.9525
 74
    0
 49
-0.9525
 74
    0
  0
LTYPE
  5
48
330
5
100
AcDbSymbolTableRecord
100
AcDbLinetypeTableRecord
  2
CENTER2
 70
    0
  3
Center (.5x) ___ _ ___ _ ___ _ ___ _ ___ _ ___
 72
   65
 73
    4
 40
28.575
 49
19.05
 74
    0
 49
-3.175
 74
    0
 49
3.175
 74
    0
 49
-3.175
 74
    0
  0
LTYPE
  5
49
330
5
100
AcDbSymbolTableRecord
100
AcDbLinetypeTableRecord
  2
CENTERX2
 70
    0
  3
Center (2x) ________  __  ________  __  _____
 72
   65
 73
    4
 40
101.6
 49
63.5
 74
    0
 49
-12.7
 74
    0
 49
12.7
 74
    0
 49
-12.7
 74
    0
  0
ENDTAB
  0
TABLE
  2
LAYER
  5
2
330
0
100
AcDbSymbolTable
 70
    1
  0
LAYER
  5
10
330
2
100
AcDbSymbolTableRecord
100
AcDbLayerTableRecord
  2
0
 70
    1
 62
    7
  6
CONTINUOUS
370
    0
390
F
  0
LAYER
  5
4A
330
2
100
AcDbSymbolTableRecord
100
AcDbLayerTableRecord
  2
00. —В–Є—В—Г–ї—М–љ—Л–є
 70
    0
 62
    7
  6
CONTINUOUS
370
    0
390
F
  0
LAYER
  5
4B
330
2
100
AcDbSymbolTableRecord
100
AcDbLayerTableRecord
  2
00. —Н—Б–Ї–Є–Ј
 70
    1
 62
    7
  6
CONTINUOUS
370
    0
390
F
  0
LAYER
  5
4C
330
2
100
AcDbSymbolTableRecord
100
AcDbLayerTableRecord
  2
01. –Њ—Б–љ–Њ–≤–∞–љ–Є–µ
 70
    1
 62
    7
  6
CONTINUOUS
370
    0
390
F
  0
LAYER
  5
4D
330
2
100
AcDbSymbolTableRecord
100
AcDbLayerTableRecord
  2
02. –і–µ—А–ґ–∞—В–µ–ї—М
 70
    1
 62
    7
  6
CONTINUOUS
370
    0
390
F
  0
LAYER
  5
4E
330
2
100
AcDbSymbolTableRecord
100
AcDbLayerTableRecord
  2
03. —Б–±–Њ—А–Њ—З–љ—Л–є —З–µ—А—В–µ–ґ
 70
    1
 62
    7
  6
CONTINUOUS
370
    0
390
F
  0
LAYER
  5
4F
330
2
100
AcDbSymbolTableRecord
100
AcDbLayerTableRecord
  2
04. —Б–њ–µ—Ж–Є—Д–Є–Ї–∞—Ж–Є—П
 70
    1
 62
    7
  6
CONTINUOUS
370
    0
390
F
  0
LAYER
  5
50
330
2
100
AcDbSymbolTableRecord
100
AcDbLayerTableRecord
  2
05. –≤—Л–њ–Њ–ї–љ–µ–љ–Є–µ —А–∞–±–Њ—В
 70
    1
 62
    7
  6
CONTINUOUS
370
    0
390
F
  0
LAYER
  5
51
330
2
100
AcDbSymbolTableRecord
100
AcDbLayerTableRecord
  2
–≤—Б–њ–Њ–Љ–Њ–≥–∞—В–µ–ї—М–љ—Л–є
 70
    1
 62
    7
  6
CONTINUOUS
370
    0
390
F
  0
LAYER
  5
52
330
2
100
AcDbSymbolTableRecord
100
AcDbLayerTableRecord
  2
—И—В–∞–Љ–њ A4 –∞–ї—М–±–Њ–Љ–љ—Л–є
 70
    5
 62
    7
  6
CONTINUOUS
370
    0
390
F
  0
LAYER
  5
53
330
2
100
AcDbSymbolTableRecord
100
AcDbLayerTableRecord
  2
—И—В–∞–Љ–њ –Р4 –Ї–љ–Є–ґ–љ—Л–є
 70
    5
 62
    7
  6
CONTINUOUS
370
    0
390
F
  0
LAYER
  5
54
330
2
100
AcDbSymbolTableRecord
100
AcDbLayerTableRecord
  2
—И—В–∞–Љ–њ –Р4 —Б–њ–µ—Ж–Є—Д–Є–Ї–∞—Ж–Є—П
 70
    5
 62
    7
  6
CONTINUOUS
370
    0
390
F
  0
LAYER
  5
55
330
2
100
AcDbSymbolTableRecord
100
AcDbLayerTableRecord
  2
—И—В–∞–Љ–њ –Р4 —В–Є—В—Г–ї
 70
    4
 62
    7
  6
CONTINUOUS
370
    0
390
F
  0
ENDTAB
  0
TABLE
  2
STYLE
  5
3
330
0
100
AcDbSymbolTable
 70
    3
  0
STYLE
  5
56
330
2
100
AcDbSymbolTableRecord
100
AcDbTextStyleTableRecord
  2
unicode
 70
    0
 40
0
 41
1
 50
0
 71
    0
 42
1
  3
unicode
  4

  0
STYLE
  5
57
330
2
100
AcDbSymbolTableRecord
100
AcDbTextStyleTableRecord
  2
cyrillic_ii
 70
    0
 40
0
 41
1
 50
0
 71
    0
 42
1
  3
cyrillic_ii
  4

  0
STYLE
  5
58
330
2
100
AcDbSymbolTableRecord
100
AcDbTextStyleTableRecord
  2
Standard
 70
    0
 40
0
 41
1
 50
0
 71
    0
 42
1
  3
txt
  4

  0
ENDTAB
  0
TABLE
  2
VIEW
  5
6
330
0
100
AcDbSymbolTable
 70
    0
  0
ENDTAB
  0
TABLE
  2
UCS
  5
7
330
0
100
AcDbSymbolTable
 70
    0
  0
ENDTAB
  0
TABLE
  2
APPID
  5
9
330
0
100
AcDbSymbolTable
 70
    1
  0
APPID
  5
12
330
9
100
AcDbSymbolTableRecord
100
AcDbRegAppTableRecord
  2
ACAD
 70
    0
  0
APPID
  5
59
330
9
100
AcDbSymbolTableRecord
100
AcDbRegAppTableRecord
  2
LibreCad
 70
    0
  0
ENDTAB
  0
TABLE
  2
DIMSTYLE
  5
A
330
0
100
AcDbSymbolTable
 70
    1
100
AcDbDimStyleTable
 71
    1
  0
DIMSTYLE
105
5A
330
A
100
AcDbSymbolTableRecord
100
AcDbDimStyleTableRecord
  2
Standard
 70
    0
 40
1
 41
2.5
 42
0.625
 43
0.38
 44
1.25
 45
0
 46
0
 47
0
 48
0
 49
1
140
2.5
141
0.09
142
0
143
25.4
144
1
145
0
146
1
147
0.625
148
0
 71
    0
 72
    0
 73
    0
 74
    1
 75
    0
 76
    0
 77
    0
 78
    1
 79
    0
170
    0
171
    2
172
    0
173
    0
174
    0
175
    0
176
   96
177
    0
178
    0
179
    2
271
    1
272
    4
273
    2
274
    2
275
    0
276
    0
277
    2
278
    0
279
    0
280
    0
281
    0
282
    0
283
    1
284
    0
285
    0
286
    0
288
    0
289
    3
340
standard
341

371
   -2
372
   -2
  0
ENDTAB
  0
TABLE
  2
BLOCK_RECORD
  5
1
330
0
100
AcDbSymbolTable
 70
    2
  0
BLOCK_RECORD
  5
1F
330
1
100
AcDbSymbolTableRecord
100
AcDbBlockTableRecord
  2
*Model_Space
 70
    0
280
    1
281
    0
  0
BLOCK_RECORD
  5
1E
330
1
100
AcDbSymbolTableRecord
100
AcDbBlockTableRecord
  2
*Paper_Space
 70
    0
280
    1
281
    0
  0
BLOCK_RECORD
  5
5B
330
1
100
AcDbSymbolTableRecord
100
AcDbBlockTableRecord
  2
*D19
 70
    0
280
    1
281
    0
  0
BLOCK_RECORD
  5
5E
330
1
100
AcDbSymbolTableRecord
100
AcDbBlockTableRecord
  2
*D6
 70
    0
280
    1
281
    0
  0
BLOCK_RECORD
  5
61
330
1
100
AcDbSymbolTableRecord
100
AcDbBlockTableRecord
  2
*D22
 70
    0
280
    1
281
    0
  0
BLOCK_RECORD
  5
64
330
1
100
AcDbSymbolTableRecord
100
AcDbBlockTableRecord
  2
*D21
 70
    0
280
    1
281
    0
  0
BLOCK_RECORD
  5
67
330
1
100
AcDbSymbolTableRecord
100
AcDbBlockTableRecord
  2
*D3
 70
    0
280
    1
281
    0
  0
BLOCK_RECORD
  5
6A
330
1
100
AcDbSymbolTableRecord
100
AcDbBlockTableRecord
  2
*D16
 70
    0
280
    1
281
    0
  0
BLOCK_RECORD
  5
6D
330
1
100
AcDbSymbolTableRecord
100
AcDbBlockTableRecord
  2
*D15
 70
    0
280
    1
281
    0
  0
BLOCK_RECORD
  5
70
330
1
100
AcDbSymbolTableRecord
100
AcDbBlockTableRecord
  2
*D10
 70
    0
280
    1
281
    0
  0
BLOCK_RECORD
  5
73
330
1
100
AcDbSymbolTableRecord
100
AcDbBlockTableRecord
  2
*D2
 70
    0
280
    1
281
    0
  0
BLOCK_RECORD
  5
76
330
1
100
AcDbSymbolTableRecord
100
AcDbBlockTableRecord
  2
*D1
 70
    0
280
    1
281
    0
  0
BLOCK_RECORD
  5
79
330
1
100
AcDbSymbolTableRecord
100
AcDbBlockTableRecord
  2
*D4
 70
    0
280
    1
281
    0
  0
BLOCK_RECORD
  5
7C
330
1
100
AcDbSymbolTableRecord
100
AcDbBlockTableRecord
  2
*D5
 70
    0
280
    1
281
    0
  0
BLOCK_RECORD
  5
7F
330
1
100
AcDbSymbolTableRecord
100
AcDbBlockTableRecord
  2
*D9
 70
    0
280
    1
281
    0
  0
BLOCK_RECORD
  5
82
330
1
100
AcDbSymbolTableRecord
100
AcDbBlockTableRecord
  2
*D24
 70
    0
280
    1
281
    0
  0
BLOCK_RECORD
  5
85
330
1
100
AcDbSymbolTableRecord
100
AcDbBlockTableRecord
  2
*D14
 70
    0
280
    1
281
    0
  0
BLOCK_RECORD
  5
88
330
1
100
AcDbSymbolTableRecord
100
AcDbBlockTableRecord
  2
*D8
 70
    0
280
    1
281
    0
  0
BLOCK_RECORD
  5
8B
330
1
100
AcDbSymbolTableRecord
100
AcDbBlockTableRecord
  2
*D18
 70
    0
280
    1
281
    0
  0
BLOCK_RECORD
  5
8E
330
1
100
AcDbSymbolTableRecord
100
AcDbBlockTableRecord
  2
*D7
 70
    0
280
    1
281
    0
  0
BLOCK_RECORD
  5
91
330
1
100
AcDbSymbolTableRecord
100
AcDbBlockTableRecord
  2
*D23
 70
    0
280
    1
281
    0
  0
BLOCK_RECORD
  5
94
330
1
100
AcDbSymbolTableRecord
100
AcDbBlockTableRecord
  2
*D13
 70
    0
280
    1
281
    0
  0
BLOCK_RECORD
  5
97
330
1
100
AcDbSymbolTableRecord
100
AcDbBlockTableRecord
  2
*D20
 70
    0
280
    1
281
    0
  0
BLOCK_RECORD
  5
9A
330
1
100
AcDbSymbolTableRecord
100
AcDbBlockTableRecord
  2
*D11
 70
    0
280
    1
281
    0
  0
BLOCK_RECORD
  5
9D
330
1
100
AcDbSymbolTableRecord
100
AcDbBlockTableRecord
  2
*D17
 70
    0
280
    1
281
    0
  0
BLOCK_RECORD
  5
A0
330
1
100
AcDbSymbolTableRecord
100
AcDbBlockTableRecord
  2
*D12
 70
    0
280
    1
281
    0
  0
BLOCK_RECORD
  5
A3
330
1
100
AcDbSymbolTableRecord
100
AcDbBlockTableRecord
  2
—И—В–∞–Љ–њ –Р4 –∞–ї—М–±–Њ–Љ–љ—Л–є
 70
    0
280
    1
281
    0
  0
BLOCK_RECORD
  5
A6
330
1
100
AcDbSymbolTableRecord
100
AcDbBlockTableRecord
  2
—И—В–∞–Љ–њ A4 –Ї–љ–Є–ґ–љ—Л–є
 70
    0
280
    1
281
    0
  0
BLOCK_RECORD
  5
A9
330
1
100
AcDbSymbolTableRecord
100
AcDbBlockTableRecord
  2
—И—В–∞–Љ–њ A4 —Б–њ–µ—Ж–Є—Д–Є–Ї–∞—Ж–Є—П
 70
    0
280
    1
281
    0
  0
BLOCK_RECORD
  5
AC
330
1
100
AcDbSymbolTableRecord
100
AcDbBlockTableRecord
  2
—И—В–∞–Љ–њ –Р4 –≤—Л–њ–Њ–ї–љ–µ–љ–Є–µ —А–∞–±–Њ—В
 70
    0
280
    1
281
    0
  0
BLOCK_RECORD
  5
AF
330
1
100
AcDbSymbolTableRecord
100
AcDbBlockTableRecord
  2
—И—В–∞–Љ–њ –Р4 —В–Є—В—Г–ї
 70
    0
280
    1
281
    0
  0
ENDTAB
  0
ENDSEC
  0
SECTION
  2
BLOCKS
  0
BLOCK
  5
20
330
1F
100
AcDbEntity
  8
0
100
AcDbBlockBegin
  2
*Model_Space
 70
    0
 10
0
 20
0
 30
0
  3
*Model_Space
  1

  0
ENDBLK
  5
21
330
1F
100
AcDbEntity
  8
0
100
AcDbBlockEnd
  0
BLOCK
  5
1C
330
1B
100
AcDbEntity
  8
0
100
AcDbBlockBegin
  2
*Paper_Space
 70
    0
 10
0
 20
0
 30
0
  3
*Paper_Space
  1

  0
ENDBLK
  5
1D
330
1F
100
AcDbEntity
  8
0
100
AcDbBlockEnd
  0
BLOCK
  5
5C
330
5B
100
AcDbEntity
  8
0
100
AcDbBlockBegin
  2
*D19
 70
    1
 10
0
 20
0
  3
*D19
  1

  0
LINE
  5
B2
100
AcDbEntity
  8
02. –і–µ—А–ґ–∞—В–µ–ї—М
  6
ByBlock
 62
   96
370
   -2
100
AcDbLine
 10
87.5115473509594
 20
225.0076982339729
 11
102.4884526490406
 21
234.9923017660271
  0
MTEXT
  5
B3
100
AcDbEntity
  8
02. –і–µ—А–ґ–∞—В–µ–ї—М
  6
CONTINUOUS
 62
    0
370
   -2
100
AcDbMText
 10
93.9599371320777
 20
231.5600943018835
 30
0
 40
2.5
 41
5.277777777777779
 71
    5
 72
    1
  1
18.0
  7
standard
210
0
220
0
230
1
 50
33.69006752597974
 73
    2
 44
1
  0
SOLID
  5
B4
100
AcDbEntity
  8
02. –і–µ—А–ґ–∞—В–µ–ї—М
  6
ByBlock
 62
   96
370
   -2
100
AcDbTrace
 10
87.5115473509594
 20
225.0076982339729
 30
0
 11
89.36075990545187
 21
226.7408184965642
 31
0
 12
89.82258626815616
 22
226.0480789525078
 32
0
 13
89.82258626815616
 23
226.0480789525078
 33
0
  0
SOLID
  5
B5
100
AcDbEntity
  8
02. –і–µ—А–ґ–∞—В–µ–ї—М
  6
ByBlock
 62
   96
370
   -2
100
AcDbTrace
 10
102.4884526490406
 20
234.9923017660271
 30
0
 11
100.6392400945481
 21
233.2591815034358
 31
0
 12
100.1774137318438
 22
233.9519210474922
 32
0
 13
100.1774137318438
 23
233.9519210474922
 33
0
  0
ENDBLK
  5
5D
330
5B
100
AcDbEntity
  8
0
100
AcDbBlockEnd
  0
BLOCK
  5
5F
330
5E
100
AcDbEntity
  8
0
100
AcDbBlockBegin
  2
*D6
 70
    1
 10
0
 20
0
  3
*D6
  1

  0
LINE
  5
B6
100
AcDbEntity
  8
01. –Њ—Б–љ–Њ–≤–∞–љ–Є–µ
  6
ByBlock
 62
   96
370
   -2
100
AcDbLine
 10
80
 20
250
 11
80
 21
280
  0
MTEXT
  5
B7
100
AcDbEntity
  8
01. –Њ—Б–љ–Њ–≤–∞–љ–Є–µ
  6
CONTINUOUS
 62
    0
370
   -2
100
AcDbMText
 10
78.125
 20
265
 30
0
 40
2.5
 41
5.833333333333488
 71
    5
 72
    1
  1
30.0
  7
standard
210
0
220
0
230
1
 50
90
 73
    2
 44
1
  0
SOLID
  5
B8
100
AcDbEntity
  8
01. –Њ—Б–љ–Њ–≤–∞–љ–Є–µ
  6
ByBlock
 62
   96
370
   -2
100
AcDbTrace
 10
80
 20
250
 30
0
 11
79.58371534222717
 21
252.5
 31
0
 12
80.41628465777283
 22
252.5
 32
0
 13
80.41628465777283
 23
252.5
 33
0
  0
SOLID
  5
B9
100
AcDbEntity
  8
01. –Њ—Б–љ–Њ–≤–∞–љ–Є–µ
  6
ByBlock
 62
   96
370
   -2
100
AcDbTrace
 10
80
 20
280
 30
0
 11
80.41628465777283
 21
277.5
 31
0
 12
79.58371534222717
 22
277.5
 32
0
 13
79.58371534222717
 23
277.5
 33
0
  0
LINE
  5
BA
100
AcDbEntity
  8
01. –Њ—Б–љ–Њ–≤–∞–љ–Є–µ
  6
ByBlock
 62
    0
370
   -2
100
AcDbLine
 10
94.375
 20
250
 11
78.75
 21
250
  0
LINE
  5
BB
100
AcDbEntity
  8
01. –Њ—Б–љ–Њ–≤–∞–љ–Є–µ
  6
ByBlock
 62
    0
370
   -2
100
AcDbLine
 10
94.375
 20
280
 11
78.75
 21
280
  0
ENDBLK
  5
60
330
5E
100
AcDbEntity
  8
0
100
AcDbBlockEnd
  0
BLOCK
  5
62
330
61
100
AcDbEntity
  8
0
100
AcDbBlockBegin
  2
*D22
 70
    1
 10
0
 20
0
  3
*D22
  1

  0
LINE
  5
BC
100
AcDbEntity
  8
02. –і–µ—А–ґ–∞—В–µ–ї—М
  6
ByBlock
 62
   96
370
   -2
100
AcDbLine
 10
50.00000000000001
 20
260
 11
50
 21
160
  0
MTEXT
  5
BD
100
AcDbEntity
  8
02. –і–µ—А–ґ–∞—В–µ–ї—М
  6
CONTINUOUS
 62
    0
370
   -2
100
AcDbMText
 10
48.125
 20
210
 30
0
 40
2.5
 41
7.222222222222222
 71
    5
 72
    1
  1
100.0
  7
standard
210
0
220
0
230
1
 50
90
 73
    2
 44
1
  0
SOLID
  5
BE
100
AcDbEntity
  8
02. –і–µ—А–ґ–∞—В–µ–ї—М
  6
ByBlock
 62
   96
370
   -2
100
AcDbTrace
 10
50.00000000000001
 20
260
 30
0
 11
50.41628465777285
 21
257.5
 31
0
 12
49.58371534222717
 22
257.5
 32
0
 13
49.58371534222717
 23
257.5
 33
0
  0
SOLID
  5
BF
100
AcDbEntity
  8
02. –і–µ—А–ґ–∞—В–µ–ї—М
  6
ByBlock
 62
   96
370
   -2
100
AcDbTrace
 10
50
 20
160
 30
0
 11
49.58371534222716
 21
162.5
 31
0
 12
50.41628465777284
 22
162.5
 32
0
 13
50.41628465777284
 23
162.5
 33
0
  0
LINE
  5
C0
100
AcDbEntity
  8
02. –і–µ—А–ґ–∞—В–µ–ї—М
  6
ByBlock
 62
    0
370
   -2
100
AcDbLine
 10
49.375
 20
260
 11
48.75000000000001
 21
260
  0
LINE
  5
C1
100
AcDbEntity
  8
02. –і–µ—А–ґ–∞—В–µ–ї—М
  6
ByBlock
 62
    0
370
   -2
100
AcDbLine
 10
94.375
 20
160
 11
48.75
 21
160
  0
ENDBLK
  5
63
330
61
100
AcDbEntity
  8
0
100
AcDbBlockEnd
  0
BLOCK
  5
65
330
64
100
AcDbEntity
  8
0
100
AcDbBlockBegin
  2
*D21
 70
    1
 10
0
 20
0
  3
*D21
  1

  0
LINE
  5
C2
100
AcDbEntity
  8
02. –і–µ—А–ґ–∞—В–µ–ї—М
  6
ByBlock
 62
   96
370
   -2
100
AcDbLine
 10
84.5
 20
174
 11
105.5
 21
146
  0
MTEXT
  5
C3
100
AcDbEntity
  8
02. –і–µ—А–ґ–∞—В–µ–ї—М
  6
CONTINUOUS
 62
    0
370
   -2
100
AcDbMText
 10
96.5
 20
161.125
 30
0
 40
2.5
 41
5.833333333333643
 71
    5
 72
    1
  1
35.0
  7
standard
210
0
220
0
230
1
 50
306.869897645844
 73
    2
 44
1
  0
SOLID
  5
C4
100
AcDbEntity
  8
02. –і–µ—А–ґ–∞—В–µ–ї—М
  6
ByBlock
 62
   96
370
   -2
100
AcDbTrace
 10
84.5
 20
174
 30
0
 11
86.33302772621828
 21
172.2497707946637
 31
0
 12
85.66697227378172
 22
171.7502292053363
 32
0
 13
85.66697227378172
 23
171.7502292053363
 33
0
  0
SOLID
  5
C5
100
AcDbEntity
  8
02. –і–µ—А–ґ–∞—В–µ–ї—М
  6
ByBlock
 62
   96
370
   -2
100
AcDbTrace
 10
105.5
 20
146
 30
0
 11
103.6669722737817
 21
147.7502292053363
 31
0
 12
104.3330277262183
 22
148.2497707946637
 32
0
 13
104.3330277262183
 23
148.2497707946637
 33
0
  0
ENDBLK
  5
66
330
64
100
AcDbEntity
  8
0
100
AcDbBlockEnd
  0
BLOCK
  5
68
330
67
100
AcDbEntity
  8
0
100
AcDbBlockBegin
  2
*D3
 70
    1
 10
0
 20
0
  3
*D3
  1

  0
LINE
  5
C6
100
AcDbEntity
  8
01. –Њ—Б–љ–Њ–≤–∞–љ–Є–µ
  6
ByBlock
 62
   96
370
   -2
100
AcDbLine
 10
160
 20
280
 11
160
 21
120
  0
MTEXT
  5
C7
100
AcDbEntity
  8
01. –Њ—Б–љ–Њ–≤–∞–љ–Є–µ
  6
CONTINUOUS
 62
    0
370
   -2
100
AcDbMText
 10
158.125
 20
200
 30
0
 40
2.5
 41
7.222222222222378
 71
    5
 72
    1
  1
160.0
  7
standard
210
0
220
0
230
1
 50
90
 73
    2
 44
1
  0
SOLID
  5
C8
100
AcDbEntity
  8
01. –Њ—Б–љ–Њ–≤–∞–љ–Є–µ
  6
ByBlock
 62
   96
370
   -2
100
AcDbTrace
 10
160
 20
280
 30
0
 11
160.4162846577728
 21
277.5
 31
0
 12
159.5837153422272
 22
277.5
 32
0
 13
159.5837153422272
 23
277.5
 33
0
  0
SOLID
  5
C9
100
AcDbEntity
  8
01. –Њ—Б–љ–Њ–≤–∞–љ–Є–µ
  6
ByBlock
 62
   96
370
   -2
100
AcDbTrace
 10
160
 20
120
 30
0
 11
159.5837153422272
 21
122.5
 31
0
 12
160.4162846577728
 22
122.5
 32
0
 13
160.4162846577728
 23
122.5
 33
0
  0
LINE
  5
CA
100
AcDbEntity
  8
01. –Њ—Б–љ–Њ–≤–∞–љ–Є–µ
  6
ByBlock
 62
    0
370
   -2
100
AcDbLine
 10
169.375
 20
280
 11
158.75
 21
280
  0
LINE
  5
CB
100
AcDbEntity
  8
01. –Њ—Б–љ–Њ–≤–∞–љ–Є–µ
  6
ByBlock
 62
    0
370
   -2
100
AcDbLine
 10
169.375
 20
120
 11
158.75
 21
120
  0
ENDBLK
  5
69
330
67
100
AcDbEntity
  8
0
100
AcDbBlockEnd
  0
BLOCK
  5
6B
330
6A
100
AcDbEntity
  8
0
100
AcDbBlockBegin
  2
*D16
 70
    1
 10
0
 20
0
  3
*D16
  1

  0
LINE
  5
CC
100
AcDbEntity
  8
02. –і–µ—А–ґ–∞—В–µ–ї—М
  6
ByBlock
 62
   96
370
   -2
100
AcDbLine
 10
170
 20
110
 11
190
 21
110
  0
MTEXT
  5
CD
100
AcDbEntity
  8
02. –і–µ—А–ґ–∞—В–µ–ї—М
  6
CONTINUOUS
 62
    0
370
   -2
100
AcDbMText
 10
180
 20
111.875
 30
0
 40
2.5
 41
5.833333333333334
 71
    5
 72
    1
  1
20.0
  7
standard
210
0
220
0
230
1
 50
0
 73
    2
 44
1
  0
SOLID
  5
CE
100
AcDbEntity
  8
02. –і–µ—А–ґ–∞—В–µ–ї—М
  6
ByBlock
 62
   96
370
   -2
100
AcDbTrace
 10
170
 20
110
 30
0
 11
172.5
 21
110.4162846577728
 31
0
 12
172.5
 22
109.5837153422272
 32
0
 13
172.5
 23
109.5837153422272
 33
0
  0
SOLID
  5
CF
100
AcDbEntity
  8
02. –і–µ—А–ґ–∞—В–µ–ї—М
  6
ByBlock
 62
   96
370
   -2
100
AcDbTrace
 10
190
 20
110
 30
0
 11
187.5
 21
109.5837153422272
 31
0
 12
187.5
 22
110.4162846577728
 32
0
 13
187.5
 23
110.4162846577728
 33
0
  0
LINE
  5
D0
100
AcDbEntity
  8
02. –і–µ—А–ґ–∞—В–µ–ї—М
  6
ByBlock
 62
    0
370
   -2
100
AcDbLine
 10
170
 20
129.375
 11
170
 21
108.75
  0
LINE
  5
D1
100
AcDbEntity
  8
02. –і–µ—А–ґ–∞—В–µ–ї—М
  6
ByBlock
 62
    0
370
   -2
100
AcDbLine
 10
190
 20
119.375
 11
190
 21
108.75
  0
ENDBLK
  5
6C
330
6A
100
AcDbEntity
  8
0
100
AcDbBlockEnd
  0
BLOCK
  5
6E
330
6D
100
AcDbEntity
  8
0
100
AcDbBlockBegin
  2
*D15
 70
    1
 10
0
 20
0
  3
*D15
  1

  0
LINE
  5
D2
100
AcDbEntity
  8
02. –і–µ—А–ґ–∞—В–µ–ї—М
  6
ByBlock
 62
   96
370
   -2
100
AcDbLine
 10
40
 20
110
 11
150
 21
110
  0
MTEXT
  5
D3
100
AcDbEntity
  8
02. –і–µ—А–ґ–∞—В–µ–ї—М
  6
CONTINUOUS
 62
    0
370
   -2
100
AcDbMText
 10
95
 20
111.875
 30
0
 40
2.5
 41
6.666666666666667
 71
    5
 72
    1
  1
110.0
  7
standard
210
0
220
0
230
1
 50
0
 73
    2
 44
1
  0
SOLID
  5
D4
100
AcDbEntity
  8
02. –і–µ—А–ґ–∞—В–µ–ї—М
  6
ByBlock
 62
   96
370
   -2
100
AcDbTrace
 10
40
 20
110
 30
0
 11
42.5
 21
110.4162846577728
 31
0
 12
42.5
 22
109.5837153422272
 32
0
 13
42.5
 23
109.5837153422272
 33
0
  0
SOLID
  5
D5
100
AcDbEntity
  8
02. –і–µ—А–ґ–∞—В–µ–ї—М
  6
ByBlock
 62
   96
370
   -2
100
AcDbTrace
 10
150
 20
110
 30
0
 11
147.5
 21
109.5837153422272
 31
0
 12
147.5
 22
110.4162846577728
 32
0
 13
147.5
 23
110.4162846577728
 33
0
  0
LINE
  5
D6
100
AcDbEntity
  8
02. –і–µ—А–ґ–∞—В–µ–ї—М
  6
ByBlock
 62
    0
370
   -2
100
AcDbLine
 10
40
 20
119.375
 11
40
 21
108.75
  0
LINE
  5
D7
100
AcDbEntity
  8
02. –і–µ—А–ґ–∞—В–µ–ї—М
  6
ByBlock
 62
    0
370
   -2
100
AcDbLine
 10
150
 20
119.375
 11
150
 21
108.75
  0
ENDBLK
  5
6F
330
6D
100
AcDbEntity
  8
0
100
AcDbBlockEnd
  0
BLOCK
  5
71
330
70
100
AcDbEntity
  8
0
100
AcDbBlockBegin
  2
*D10
 70
    1
 10
0
 20
0
  3
*D10
  1

  0
LINE
  5
D8
100
AcDbEntity
  8
01. –Њ—Б–љ–Њ–≤–∞–љ–Є–µ
  6
ByBlock
 62
   96
370
   -2
100
AcDbLine
 10
140
 20
174.9999999999999
 11
140
 21
280
  0
MTEXT
  5
D9
100
AcDbEntity
  8
01. –Њ—Б–љ–Њ–≤–∞–љ–Є–µ
  6
CONTINUOUS
 62
    0
370
   -2
100
AcDbMText
 10
138.125
 20
227.4999999999999
 30
0
 40
2.5
 41
7.222222222222378
 71
    5
 72
    1
  1
105.0
  7
standard
210
0
220
0
230
1
 50
90
 73
    2
 44
1
  0
SOLID
  5
DA
100
AcDbEntity
  8
01. –Њ—Б–љ–Њ–≤–∞–љ–Є–µ
  6
ByBlock
 62
   96
370
   -2
100
AcDbTrace
 10
140
 20
174.9999999999999
 30
0
 11
139.5837153422272
 21
177.4999999999999
 31
0
 12
140.4162846577728
 22
177.4999999999999
 32
0
 13
140.4162846577728
 23
177.4999999999999
 33
0
  0
SOLID
  5
DB
100
AcDbEntity
  8
01. –Њ—Б–љ–Њ–≤–∞–љ–Є–µ
  6
ByBlock
 62
   96
370
   -2
100
AcDbTrace
 10
140
 20
280
 30
0
 11
140.4162846577728
 21
277.5
 31
0
 12
139.5837153422272
 22
277.5
 32
0
 13
139.5837153422272
 23
277.5
 33
0
  0
LINE
  5
DC
100
AcDbEntity
  8
01. –Њ—Б–љ–Њ–≤–∞–љ–Є–µ
  6
ByBlock
 62
    0
370
   -2
100
AcDbLine
 10
95.625
 20
174.9999999999999
 11
141.25
 21
174.9999999999999
  0
LINE
  5
DD
100
AcDbEntity
  8
01. –Њ—Б–љ–Њ–≤–∞–љ–Є–µ
  6
ByBlock
 62
    0
370
   -2
100
AcDbLine
 10
95.625
 20
280
 11
141.25
 21
280
  0
ENDBLK
  5
72
330
70
100
AcDbEntity
  8
0
100
AcDbBlockEnd
  0
BLOCK
  5
74
330
73
100
AcDbEntity
  8
0
100
AcDbBlockBegin
  2
*D2
 70
    1
 10
0
 20
0
  3
*D2
  1

  0
LINE
  5
DE
100
AcDbEntity
  8
01. –Њ—Б–љ–Њ–≤–∞–љ–Є–µ
  6
ByBlock
 62
   96
370
   -2
100
AcDbLine
 10
40
 20
100
 11
150
 21
100
  0
MTEXT
  5
DF
100
AcDbEntity
  8
01. –Њ—Б–љ–Њ–≤–∞–љ–Є–µ
  6
CONTINUOUS
 62
    0
370
   -2
100
AcDbMText
 10
95
 20
101.875
 30
0
 40
2.5
 41
6.666666666666667
 71
    5
 72
    1
  1
110.0
  7
standard
210
0
220
0
230
1
 50
0
 73
    2
 44
1
  0
SOLID
  5
E0
100
AcDbEntity
  8
01. –Њ—Б–љ–Њ–≤–∞–љ–Є–µ
  6
ByBlock
 62
   96
370
   -2
100
AcDbTrace
 10
40
 20
100
 30
0
 11
42.5
 21
100.4162846577728
 31
0
 12
42.5
 22
99.58371534222717
 32
0
 13
42.5
 23
99.58371534222717
 33
0
  0
SOLID
  5
E1
100
AcDbEntity
  8
01. –Њ—Б–љ–Њ–≤–∞–љ–Є–µ
  6
ByBlock
 62
   96
370
   -2
100
AcDbTrace
 10
150
 20
100
 30
0
 11
147.5
 21
99.58371534222717
 31
0
 12
147.5
 22
100.4162846577728
 32
0
 13
147.5
 23
100.4162846577728
 33
0
  0
LINE
  5
E2
100
AcDbEntity
  8
01. –Њ—Б–љ–Њ–≤–∞–љ–Є–µ
  6
ByBlock
 62
    0
370
   -2
100
AcDbLine
 10
40
 20
109.375
 11
40
 21
98.75
  0
LINE
  5
E3
100
AcDbEntity
  8
01. –Њ—Б–љ–Њ–≤–∞–љ–Є–µ
  6
ByBlock
 62
    0
370
   -2
100
AcDbLine
 10
150
 20
109.375
 11
150
 21
98.75
  0
ENDBLK
  5
75
330
73
100
AcDbEntity
  8
0
100
AcDbBlockEnd
  0
BLOCK
  5
77
330
76
100
AcDbEntity
  8
0
100
AcDbBlockBegin
  2
*D1
 70
    1
 10
0
 20
0
  3
*D1
  1

  0
LINE
  5
E4
100
AcDbEntity
  8
01. –Њ—Б–љ–Њ–≤–∞–љ–Є–µ
  6
ByBlock
 62
   96
370
   -2
100
AcDbLine
 10
30.00000000000001
 20
280
 11
30
 21
110
  0
MTEXT
  5
E5
100
AcDbEntity
  8
01. –Њ—Б–љ–Њ–≤–∞–љ–Є–µ
  6
CONTINUOUS
 62
    0
370
   -2
100
AcDbMText
 10
28.12500000000001
 20
195
 30
0
 40
2.5
 41
7.222222222222222
 71
    5
 72
    1
  1
170.0
  7
standard
210
0
220
0
230
1
 50
90
 73
    2
 44
1
  0
SOLID
  5
E6
100
AcDbEntity
  8
01. –Њ—Б–љ–Њ–≤–∞–љ–Є–µ
  6
ByBlock
 62
   96
370
   -2
100
AcDbTrace
 10
30.00000000000001
 20
280
 30
0
 11
30.41628465777285
 21
277.5
 31
0
 12
29.58371534222717
 22
277.5
 32
0
 13
29.58371534222717
 23
277.5
 33
0
  0
SOLID
  5
E7
100
AcDbEntity
  8
01. –Њ—Б–љ–Њ–≤–∞–љ–Є–µ
  6
ByBlock
 62
   96
370
   -2
100
AcDbTrace
 10
30
 20
110
 30
0
 11
29.58371534222716
 21
112.5
 31
0
 12
30.41628465777284
 22
112.5
 32
0
 13
30.41628465777284
 23
112.5
 33
0
  0
LINE
  5
E8
100
AcDbEntity
  8
01. –Њ—Б–љ–Њ–≤–∞–љ–Є–µ
  6
ByBlock
 62
    0
370
   -2
100
AcDbLine
 10
39.375
 20
280
 11
28.75000000000001
 21
280
  0
LINE
  5
E9
100
AcDbEntity
  8
01. –Њ—Б–љ–Њ–≤–∞–љ–Є–µ
  6
ByBlock
 62
    0
370
   -2
100
AcDbLine
 10
39.375
 20
110
 11
28.75
 21
110
  0
ENDBLK
  5
78
330
76
100
AcDbEntity
  8
0
100
AcDbBlockEnd
  0
BLOCK
  5
7A
330
79
100
AcDbEntity
  8
0
100
AcDbBlockBegin
  2
*D4
 70
    1
 10
0
 20
0
  3
*D4
  1

  0
LINE
  5
EA
100
AcDbEntity
  8
01. –Њ—Б–љ–Њ–≤–∞–љ–Є–µ
  6
ByBlock
 62
   96
370
   -2
100
AcDbLine
 10
170
 20
100
 11
190
 21
100
  0
MTEXT
  5
EB
100
AcDbEntity
  8
01. –Њ—Б–љ–Њ–≤–∞–љ–Є–µ
  6
CONTINUOUS
 62
    0
370
   -2
100
AcDbMText
 10
180
 20
101.875
 30
0
 40
2.5
 41
5.833333333333334
 71
    5
 72
    1
  1
20.0
  7
standard
210
0
220
0
230
1
 50
0
 73
    2
 44
1
  0
SOLID
  5
EC
100
AcDbEntity
  8
01. –Њ—Б–љ–Њ–≤–∞–љ–Є–µ
  6
ByBlock
 62
   96
370
   -2
100
AcDbTrace
 10
170
 20
100
 30
0
 11
172.5
 21
100.4162846577728
 31
0
 12
172.5
 22
99.58371534222717
 32
0
 13
172.5
 23
99.58371534222717
 33
0
  0
SOLID
  5
ED
100
AcDbEntity
  8
01. –Њ—Б–љ–Њ–≤–∞–љ–Є–µ
  6
ByBlock
 62
   96
370
   -2
100
AcDbTrace
 10
190
 20
100
 30
0
 11
187.5
 21
99.58371534222717
 31
0
 12
187.5
 22
100.4162846577728
 32
0
 13
187.5
 23
100.4162846577728
 33
0
  0
LINE
  5
EE
100
AcDbEntity
  8
01. –Њ—Б–љ–Њ–≤–∞–љ–Є–µ
  6
ByBlock
 62
    0
370
   -2
100
AcDbLine
 10
170
 20
119.375
 11
170
 21
98.75
  0
LINE
  5
EF
100
AcDbEntity
  8
01. –Њ—Б–љ–Њ–≤–∞–љ–Є–µ
  6
ByBlock
 62
    0
370
   -2
100
AcDbLine
 10
190
 20
109.375
 11
190
 21
98.75
  0
ENDBLK
  5
7B
330
79
100
AcDbEntity
  8
0
100
AcDbBlockEnd
  0
BLOCK
  5
7D
330
7C
100
AcDbEntity
  8
0
100
AcDbBlockBegin
  2
*D5
 70
    1
 10
0
 20
0
  3
*D5
  1

  0
LINE
  5
F0
100
AcDbEntity
  8
01. –Њ—Б–љ–Њ–≤–∞–љ–Є–µ
  6
ByBlock
 62
   96
370
   -2
100
AcDbLine
 10
87.5115473509594
 20
245.0076982339729
 11
102.4884526490406
 21
254.9923017660271
  0
MTEXT
  5
F1
100
AcDbEntity
  8
01. –Њ—Б–љ–Њ–≤–∞–љ–Є–µ
  6
CONTINUOUS
 62
    0
370
   -2
100
AcDbMText
 10
93.9599371320777
 20
251.5600943018835
 30
0
 40
2.5
 41
5.277777777777779
 71
    5
 72
    1
  1
18.0
  7
standard
210
0
220
0
230
1
 50
33.69006752597974
 73
    2
 44
1
  0
SOLID
  5
F2
100
AcDbEntity
  8
01. –Њ—Б–љ–Њ–≤–∞–љ–Є–µ
  6
ByBlock
 62
   96
370
   -2
100
AcDbTrace
 10
87.5115473509594
 20
245.0076982339729
 30
0
 11
89.36075990545187
 21
246.7408184965642
 31
0
 12
89.82258626815616
 22
246.0480789525078
 32
0
 13
89.82258626815616
 23
246.0480789525078
 33
0
  0
SOLID
  5
F3
100
AcDbEntity
  8
01. –Њ—Б–љ–Њ–≤–∞–љ–Є–µ
  6
ByBlock
 62
   96
370
   -2
100
AcDbTrace
 10
102.4884526490406
 20
254.9923017660271
 30
0
 11
100.6392400945481
 21
253.2591815034358
 31
0
 12
100.1774137318438
 22
253.9519210474922
 32
0
 13
100.1774137318438
 23
253.9519210474922
 33
0
  0
ENDBLK
  5
7E
330
7C
100
AcDbEntity
  8
0
100
AcDbBlockEnd
  0
BLOCK
  5
80
330
7F
100
AcDbEntity
  8
0
100
AcDbBlockBegin
  2
*D9
 70
    1
 10
0
 20
0
  3
*D9
  1

  0
LINE
  5
F4
100
AcDbEntity
  8
01. –Њ—Б–љ–Њ–≤–∞–љ–Є–µ
  6
ByBlock
 62
   96
370
   -2
100
AcDbLine
 10
65.87823969817558
 20
155.5854931321167
 11
124.1217603018244
 21
194.4145068678831
  0
MTEXT
  5
F5
100
AcDbEntity
  8
01. –Њ—Б–љ–Њ–≤–∞–љ–Є–µ
  6
CONTINUOUS
 62
    0
370
   -2
100
AcDbMText
 10
93.95993713207768
 20
176.5600943018833
 30
0
 40
2.5
 41
5.833333333333334
 71
    5
 72
    1
  1
70.0
  7
standard
210
0
220
0
230
1
 50
33.6900675259801
 73
    2
 44
1
  0
SOLID
  5
F6
100
AcDbEntity
  8
01. –Њ—Б–љ–Њ–≤–∞–љ–Є–µ
  6
ByBlock
 62
   96
370
   -2
100
AcDbTrace
 10
65.87823969817558
 20
155.5854931321167
 30
0
 11
67.72745225266803
 21
157.318613394708
 31
0
 12
68.18927861537233
 22
156.6258738506516
 32
0
 13
68.18927861537233
 23
156.6258738506516
 33
0
  0
SOLID
  5
F7
100
AcDbEntity
  8
01. –Њ—Б–љ–Њ–≤–∞–љ–Є–µ
  6
ByBlock
 62
   96
370
   -2
100
AcDbTrace
 10
124.1217603018244
 20
194.4145068678831
 30
0
 11
122.272547747332
 21
192.6813866052917
 31
0
 12
121.8107213846277
 22
193.3741261493482
 32
0
 13
121.8107213846277
 23
193.3741261493482
 33
0
  0
ENDBLK
  5
81
330
7F
100
AcDbEntity
  8
0
100
AcDbBlockEnd
  0
BLOCK
  5
83
330
82
100
AcDbEntity
  8
0
100
AcDbBlockBegin
  2
*D24
 70
    1
 10
0
 20
0
  3
*D24
  1

  0
LINE
  5
F8
100
AcDbEntity
  8
01. –Њ—Б–љ–Њ–≤–∞–љ–Є–µ
  6
ByBlock
 62
   96
370
   -2
100
AcDbLine
 10
180
 20
220
 11
170
 21
220
  0
MTEXT
  5
F9
100
AcDbEntity
  8
01. –Њ—Б–љ–Њ–≤–∞–љ–Є–µ
  6
CONTINUOUS
 62
    0
370
   -2
100
AcDbMText
 10
175
 20
221.875
 30
0
 40
2.5
 41
5.277777777777779
 71
    5
 72
    1
  1
10.0
  7
standard
210
0
220
0
230
1
 50
0
 73
    2
 44
1
  0
SOLID
  5
FA
100
AcDbEntity
  8
01. –Њ—Б–љ–Њ–≤–∞–љ–Є–µ
  6
ByBlock
 62
   96
370
   -2
100
AcDbTrace
 10
180
 20
220
 30
0
 11
177.5
 21
219.5837153422272
 31
0
 12
177.5
 22
220.4162846577728
 32
0
 13
177.5
 23
220.4162846577728
 33
0
  0
SOLID
  5
FB
100
AcDbEntity
  8
01. –Њ—Б–љ–Њ–≤–∞–љ–Є–µ
  6
ByBlock
 62
   96
370
   -2
100
AcDbTrace
 10
170
 20
220
 30
0
 11
172.5
 21
220.4162846577728
 31
0
 12
172.5
 22
219.5837153422272
 32
0
 13
172.5
 23
219.5837153422272
 33
0
  0
LINE
  5
FC
100
AcDbEntity
  8
01. –Њ—Б–љ–Њ–≤–∞–љ–Є–µ
  6
ByBlock
 62
    0
370
   -2
100
AcDbLine
 10
180
 20
211.625
 11
180
 21
221.25
  0
LINE
  5
FD
100
AcDbEntity
  8
01. –Њ—Б–љ–Њ–≤–∞–љ–Є–µ
  6
ByBlock
 62
    0
370
   -2
100
AcDbLine
 10
170
 20
211.625
 11
170
 21
221.25
  0
ENDBLK
  5
84
330
82
100
AcDbEntity
  8
0
100
AcDbBlockEnd
  0
BLOCK
  5
86
330
85
100
AcDbEntity
  8
0
100
AcDbBlockBegin
  2
*D14
 70
    1
 10
0
 20
0
  3
*D14
  1

  0
LINE
  5
FE
100
AcDbEntity
  8
02. –і–µ—А–ґ–∞—В–µ–ї—М
  6
ByBlock
 62
   96
370
   -2
100
AcDbLine
 10
30.00000000000001
 20
260
 11
30
 21
120
  0
MTEXT
  5
FF
100
AcDbEntity
  8
02. –і–µ—А–ґ–∞—В–µ–ї—М
  6
CONTINUOUS
 62
    0
370
   -2
100
AcDbMText
 10
28.12500000000001
 20
190
 30
0
 40
2.5
 41
7.5
 71
    5
 72
    1
  1
140.0
  7
standard
210
0
220
0
230
1
 50
90
 73
    2
 44
1
  0
SOLID
  5
100
100
AcDbEntity
  8
02. –і–µ—А–ґ–∞—В–µ–ї—М
  6
ByBlock
 62
   96
370
   -2
100
AcDbTrace
 10
30.00000000000001
 20
260
 30
0
 11
30.41628465777285
 21
257.5
 31
0
 12
29.58371534222717
 22
257.5
 32
0
 13
29.58371534222717
 23
257.5
 33
0
  0
SOLID
  5
101
100
AcDbEntity
  8
02. –і–µ—А–ґ–∞—В–µ–ї—М
  6
ByBlock
 62
   96
370
   -2
100
AcDbTrace
 10
30
 20
120
 30
0
 11
29.58371534222716
 21
122.5
 31
0
 12
30.41628465777284
 22
122.5
 32
0
 13
30.41628465777284
 23
122.5
 33
0
  0
LINE
  5
102
100
AcDbEntity
  8
02. –і–µ—А–ґ–∞—В–µ–ї—М
  6
ByBlock
 62
    0
370
   -2
100
AcDbLine
 10
39.375
 20
260
 11
28.75000000000001
 21
260
  0
LINE
  5
103
100
AcDbEntity
  8
02. –і–µ—А–ґ–∞—В–µ–ї—М
  6
ByBlock
 62
    0
370
   -2
100
AcDbLine
 10
39.375
 20
120
 11
28.75
 21
120
  0
ENDBLK
  5
87
330
85
100
AcDbEntity
  8
0
100
AcDbBlockEnd
  0
BLOCK
  5
89
330
88
100
AcDbEntity
  8
0
100
AcDbBlockBegin
  2
*D8
 70
    1
 10
0
 20
0
  3
*D8
  1

  0
LINE
  5
104
100
AcDbEntity
  8
01. –Њ—Б–љ–Њ–≤–∞–љ–Є–µ
  6
ByBlock
 62
   96
370
   -2
100
AcDbLine
 10
90.75735931288071
 20
205.7573593128807
 11
99.24264068711929
 21
214.2426406871193
  0
MTEXT
  5
105
100
AcDbEntity
  8
01. –Њ—Б–љ–Њ–≤–∞–љ–Є–µ
  6
CONTINUOUS
 62
    0
370
   -2
100
AcDbMText
 10
96.19815315701055
 20
213.8498035864601
 30
0
 40
2.5
 41
3.888888888888889
 71
    5
 72
    1
  1
2.0
  7
standard
210
0
220
0
230
1
 50
45
 73
    2
 44
1
  0
SOLID
  5
106
100
AcDbEntity
  8
01. –Њ—Б–љ–Њ–≤–∞–љ–Є–µ
  6
ByBlock
 62
   96
370
   -2
100
AcDbTrace
 10
94.29289321881345
 20
209.2928932188134
 30
0
 11
92.81948397026217
 21
207.230768561432
 31
0
 12
92.23076856143199
 22
207.8194839702622
 32
0
 13
92.23076856143199
 23
207.8194839702622
 33
0
  0
SOLID
  5
107
100
AcDbEntity
  8
01. –Њ—Б–љ–Њ–≤–∞–љ–Є–µ
  6
ByBlock
 62
   96
370
   -2
100
AcDbTrace
 10
95.70710678118655
 20
210.7071067811866
 30
0
 11
97.18051602973783
 21
212.769231438568
 31
0
 12
97.76923143856801
 22
212.1805160297378
 32
0
 13
97.76923143856801
 23
212.1805160297378
 33
0
  0
ENDBLK
  5
8A
330
88
100
AcDbEntity
  8
0
100
AcDbBlockEnd
  0
BLOCK
  5
8C
330
8B
100
AcDbEntity
  8
0
100
AcDbBlockBegin
  2
*D18
 70
    1
 10
0
 20
0
  3
*D18
  1

  0
LINE
  5
108
100
AcDbEntity
  8
02. –і–µ—А–ґ–∞—В–µ–ї—М
  6
ByBlock
 62
   96
370
   -2
100
AcDbLine
 10
80
 20
230
 11
80
 21
260
  0
MTEXT
  5
109
100
AcDbEntity
  8
02. –і–µ—А–ґ–∞—В–µ–ї—М
  6
CONTINUOUS
 62
    0
370
   -2
100
AcDbMText
 10
78.125
 20
245
 30
0
 40
2.5
 41
5.833333333333488
 71
    5
 72
    1
  1
30.0
  7
standard
210
0
220
0
230
1
 50
90
 73
    2
 44
1
  0
SOLID
  5
10A
100
AcDbEntity
  8
02. –і–µ—А–ґ–∞—В–µ–ї—М
  6
ByBlock
 62
   96
370
   -2
100
AcDbTrace
 10
80
 20
230
 30
0
 11
79.58371534222717
 21
232.5
 31
0
 12
80.41628465777283
 22
232.5
 32
0
 13
80.41628465777283
 23
232.5
 33
0
  0
SOLID
  5
10B
100
AcDbEntity
  8
02. –і–µ—А–ґ–∞—В–µ–ї—М
  6
ByBlock
 62
   96
370
   -2
100
AcDbTrace
 10
80
 20
260
 30
0
 11
80.41628465777283
 21
257.5
 31
0
 12
79.58371534222717
 22
257.5
 32
0
 13
79.58371534222717
 23
257.5
 33
0
  0
LINE
  5
10C
100
AcDbEntity
  8
02. –і–µ—А–ґ–∞—В–µ–ї—М
  6
ByBlock
 62
    0
370
   -2
100
AcDbLine
 10
94.375
 20
230
 11
78.75
 21
230
  0
LINE
  5
10D
100
AcDbEntity
  8
02. –і–µ—А–ґ–∞—В–µ–ї—М
  6
ByBlock
 62
    0
370
   -2
100
AcDbLine
 10
94.375
 20
260
 11
78.75
 21
260
  0
ENDBLK
  5
8D
330
8B
100
AcDbEntity
  8
0
100
AcDbBlockEnd
  0
BLOCK
  5
8F
330
8E
100
AcDbEntity
  8
0
100
AcDbBlockBegin
  2
*D7
 70
    1
 10
0
 20
0
  3
*D7
  1

  0
LINE
  5
10E
100
AcDbEntity
  8
01. –Њ—Б–љ–Њ–≤–∞–љ–Є–µ
  6
ByBlock
 62
   96
370
   -2
100
AcDbLine
 10
54
 20
175
 11
66
 21
175
  0
MTEXT
  5
10F
100
AcDbEntity
  8
01. –Њ—Б–љ–Њ–≤–∞–љ–Є–µ
  6
CONTINUOUS
 62
    0
370
   -2
100
AcDbMText
 10
63.56944444444444
 20
176.875
 30
0
 40
2.5
 41
3.888888888888889
 71
    5
 72
    1
  1
2.0
  7
standard
210
0
220
0
230
1
 50
0
 73
    2
 44
1
  0
SOLID
  5
110
100
AcDbEntity
  8
01. –Њ—Б–љ–Њ–≤–∞–љ–Є–µ
  6
ByBlock
 62
   96
370
   -2
100
AcDbTrace
 10
59
 20
175
 30
0
 11
56.5
 21
174.5837153422272
 31
0
 12
56.5
 22
175.4162846577728
 32
0
 13
56.5
 23
175.4162846577728
 33
0
  0
SOLID
  5
111
100
AcDbEntity
  8
01. –Њ—Б–љ–Њ–≤–∞–љ–Є–µ
  6
ByBlock
 62
   96
370
   -2
100
AcDbTrace
 10
61
 20
175
 30
0
 11
63.5
 21
175.4162846577728
 31
0
 12
63.5
 22
174.5837153422272
 32
0
 13
63.5
 23
174.5837153422272
 33
0
  0
ENDBLK
  5
90
330
8E
100
AcDbEntity
  8
0
100
AcDbBlockEnd
  0
BLOCK
  5
92
330
91
100
AcDbEntity
  8
0
100
AcDbBlockBegin
  2
*D23
 70
    1
 10
0
 20
0
  3
*D23
  1

  0
LINE
  5
112
100
AcDbEntity
  8
01. –Њ—Б–љ–Њ–≤–∞–љ–Є–µ
  6
ByBlock
 62
   96
370
   -2
100
AcDbLine
 10
180
 20
185
 11
170
 21
185
  0
MTEXT
  5
113
100
AcDbEntity
  8
01. –Њ—Б–љ–Њ–≤–∞–љ–Є–µ
  6
CONTINUOUS
 62
    0
370
   -2
100
AcDbMText
 10
175
 20
186.875
 30
0
 40
2.5
 41
5.277777777777779
 71
    5
 72
    1
  1
10.0
  7
standard
210
0
220
0
230
1
 50
0
 73
    2
 44
1
  0
SOLID
  5
114
100
AcDbEntity
  8
01. –Њ—Б–љ–Њ–≤–∞–љ–Є–µ
  6
ByBlock
 62
   96
370
   -2
100
AcDbTrace
 10
180
 20
185
 30
0
 11
177.5
 21
184.5837153422272
 31
0
 12
177.5
 22
185.4162846577728
 32
0
 13
177.5
 23
185.4162846577728
 33
0
  0
SOLID
  5
115
100
AcDbEntity
  8
01. –Њ—Б–љ–Њ–≤–∞–љ–Є–µ
  6
ByBlock
 62
   96
370
   -2
100
AcDbTrace
 10
170
 20
185
 30
0
 11
172.5
 21
185.4162846577728
 31
0
 12
172.5
 22
184.5837153422272
 32
0
 13
172.5
 23
184.5837153422272
 33
0
  0
LINE
  5
116
100
AcDbEntity
  8
01. –Њ—Б–љ–Њ–≤–∞–љ–Є–µ
  6
ByBlock
 62
    0
370
   -2
100
AcDbLine
 10
180
 20
176.625
 11
180
 21
186.25
  0
LINE
  5
117
100
AcDbEntity
  8
01. –Њ—Б–љ–Њ–≤–∞–љ–Є–µ
  6
ByBlock
 62
    0
370
   -2
100
AcDbLine
 10
170
 20
176.625
 11
170
 21
186.25
  0
ENDBLK
  5
93
330
91
100
AcDbEntity
  8
0
100
AcDbBlockEnd
  0
BLOCK
  5
95
330
94
100
AcDbEntity
  8
0
100
AcDbBlockBegin
  2
*D13
 70
    1
 10
0
 20
0
  3
*D13
  1

  0
LINE
  5
118
100
AcDbEntity
  8
03. —Б–±–Њ—А–Њ—З–љ—Л–є —З–µ—А—В–µ–ґ
  6
ByBlock
 62
   96
370
   -2
100
AcDbLine
 10
59.99999999999999
 20
130
 11
60
 21
215
  0
MTEXT
  5
119
100
AcDbEntity
  8
03. —Б–±–Њ—А–Њ—З–љ—Л–є —З–µ—А—В–µ–ґ
  6
CONTINUOUS
 62
    0
370
   -2
100
AcDbMText
 10
58.125
 20
172.5
 30
0
 40
2.5
 41
4.444444444444445
 71
    5
 72
    1
  1
170
  7
standard
210
0
220
0
230
1
 50
90
 73
    2
 44
1
  0
SOLID
  5
11A
100
AcDbEntity
  8
03. —Б–±–Њ—А–Њ—З–љ—Л–є —З–µ—А—В–µ–ґ
  6
ByBlock
 62
   96
370
   -2
100
AcDbTrace
 10
59.99999999999999
 20
130
 30
0
 11
59.58371534222715
 21
132.5
 31
0
 12
60.41628465777283
 22
132.5
 32
0
 13
60.41628465777283
 23
132.5
 33
0
  0
SOLID
  5
11B
100
AcDbEntity
  8
03. —Б–±–Њ—А–Њ—З–љ—Л–є —З–µ—А—В–µ–ґ
  6
ByBlock
 62
   96
370
   -2
100
AcDbTrace
 10
60
 20
215
 30
0
 11
60.41628465777284
 21
212.5
 31
0
 12
59.58371534222716
 22
212.5
 32
0
 13
59.58371534222716
 23
212.5
 33
0
  0
LINE
  5
11C
100
AcDbEntity
  8
03. —Б–±–Њ—А–Њ—З–љ—Л–є —З–µ—А—В–µ–ґ
  6
ByBlock
 62
    0
370
   -2
100
AcDbLine
 10
78.875
 20
130
 11
58.74999999999999
 21
130
  0
LINE
  5
11D
100
AcDbEntity
  8
03. —Б–±–Њ—А–Њ—З–љ—Л–є —З–µ—А—В–µ–ґ
  6
ByBlock
 62
    0
370
   -2
100
AcDbLine
 10
113.875
 20
215
 11
58.75
 21
215
  0
ENDBLK
  5
96
330
94
100
AcDbEntity
  8
0
100
AcDbBlockEnd
  0
BLOCK
  5
98
330
97
100
AcDbEntity
  8
0
100
AcDbBlockBegin
  2
*D20
 70
    1
 10
0
 20
0
  3
*D20
  1

  0
LINE
  5
11E
100
AcDbEntity
  8
02. –і–µ—А–ґ–∞—В–µ–ї—М
  6
ByBlock
 62
   96
370
   -2
100
AcDbLine
 10
84.59937132077695
 20
153.0662475471846
 11
105.400628679223
 21
166.9337524528154
  0
MTEXT
  5
11F
100
AcDbEntity
  8
02. –і–µ—А–ґ–∞—В–µ–ї—М
  6
CONTINUOUS
 62
    0
370
   -2
100
AcDbMText
 10
93.9599371320777
 20
161.5600943018835
 30
0
 40
2.5
 41
5.833333333333489
 71
    5
 72
    1
  1
25.0
  7
standard
210
0
220
0
230
1
 50
33.69006752597976
 73
    2
 44
1
  0
SOLID
  5
120
100
AcDbEntity
  8
02. –і–µ—А–ґ–∞—В–µ–ї—М
  6
ByBlock
 62
   96
370
   -2
100
AcDbTrace
 10
84.59937132077695
 20
153.0662475471846
 30
0
 11
86.44858387526942
 21
154.7993678097759
 31
0
 12
86.91041023797371
 22
154.1066282657195
 32
0
 13
86.91041023797371
 23
154.1066282657195
 33
0
  0
SOLID
  5
121
100
AcDbEntity
  8
02. –і–µ—А–ґ–∞—В–µ–ї—М
  6
ByBlock
 62
   96
370
   -2
100
AcDbTrace
 10
105.400628679223
 20
166.9337524528154
 30
0
 11
103.5514161247306
 21
165.2006321902241
 31
0
 12
103.0895897620263
 22
165.8933717342805
 32
0
 13
103.0895897620263
 23
165.8933717342805
 33
0
  0
ENDBLK
  5
99
330
97
100
AcDbEntity
  8
0
100
AcDbBlockEnd
  0
BLOCK
  5
9B
330
9A
100
AcDbEntity
  8
0
100
AcDbBlockBegin
  2
*D11
 70
    1
 10
0
 20
0
  3
*D11
  1

  0
LINE
  5
122
100
AcDbEntity
  8
03. —Б–±–Њ—А–Њ—З–љ—Л–є —З–µ—А—В–µ–ґ
  6
ByBlock
 62
   96
370
   -2
100
AcDbLine
 10
50.00000000000001
 20
260
 11
50
 21
130
  0
MTEXT
  5
123
100
AcDbEntity
  8
03. —Б–±–Њ—А–Њ—З–љ—Л–є —З–µ—А—В–µ–ґ
  6
CONTINUOUS
 62
    0
370
   -2
100
AcDbMText
 10
48.125
 20
195
 30
0
 40
2.5
 41
5.000000000000155
 71
    5
 72
    1
  1
260
  7
standard
210
0
220
0
230
1
 50
90
 73
    2
 44
1
  0
SOLID
  5
124
100
AcDbEntity
  8
03. —Б–±–Њ—А–Њ—З–љ—Л–є —З–µ—А—В–µ–ґ
  6
ByBlock
 62
   96
370
   -2
100
AcDbTrace
 10
50.00000000000001
 20
260
 30
0
 11
50.41628465777285
 21
257.5
 31
0
 12
49.58371534222717
 22
257.5
 32
0
 13
49.58371534222717
 23
257.5
 33
0
  0
SOLID
  5
125
100
AcDbEntity
  8
03. —Б–±–Њ—А–Њ—З–љ—Л–є —З–µ—А—В–µ–ґ
  6
ByBlock
 62
   96
370
   -2
100
AcDbTrace
 10
50
 20
130
 30
0
 11
49.58371534222716
 21
132.5
 31
0
 12
50.41628465777284
 22
132.5
 32
0
 13
50.41628465777284
 23
132.5
 33
0
  0
LINE
  5
126
100
AcDbEntity
  8
03. —Б–±–Њ—А–Њ—З–љ—Л–є —З–µ—А—В–µ–ґ
  6
ByBlock
 62
    0
370
   -2
100
AcDbLine
 10
78.875
 20
260
 11
48.75000000000001
 21
260
  0
LINE
  5
127
100
AcDbEntity
  8
03. —Б–±–Њ—А–Њ—З–љ—Л–є —З–µ—А—В–µ–ґ
  6
ByBlock
 62
    0
370
   -2
100
AcDbLine
 10
78.875
 20
130
 11
48.75
 21
130
  0
ENDBLK
  5
9C
330
9A
100
AcDbEntity
  8
0
100
AcDbBlockEnd
  0
BLOCK
  5
9E
330
9D
100
AcDbEntity
  8
0
100
AcDbBlockBegin
  2
*D17
 70
    1
 10
0
 20
0
  3
*D17
  1

  0
LINE
  5
128
100
AcDbEntity
  8
02. –і–µ—А–ґ–∞—В–µ–ї—М
  6
ByBlock
 62
   96
370
   -2
100
AcDbLine
 10
160
 20
260
 11
160
 21
130
  0
MTEXT
  5
129
100
AcDbEntity
  8
02. –і–µ—А–ґ–∞—В–µ–ї—М
  6
CONTINUOUS
 62
    0
370
   -2
100
AcDbMText
 10
158.125
 20
195
 30
0
 40
2.5
 41
7.222222222222378
 71
    5
 72
    1
  1
130.0
  7
standard
210
0
220
0
230
1
 50
90
 73
    2
 44
1
  0
SOLID
  5
12A
100
AcDbEntity
  8
02. –і–µ—А–ґ–∞—В–µ–ї—М
  6
ByBlock
 62
   96
370
   -2
100
AcDbTrace
 10
160
 20
260
 30
0
 11
160.4162846577728
 21
257.5
 31
0
 12
159.5837153422272
 22
257.5
 32
0
 13
159.5837153422272
 23
257.5
 33
0
  0
SOLID
  5
12B
100
AcDbEntity
  8
02. –і–µ—А–ґ–∞—В–µ–ї—М
  6
ByBlock
 62
   96
370
   -2
100
AcDbTrace
 10
160
 20
130
 30
0
 11
159.5837153422272
 21
132.5
 31
0
 12
160.4162846577728
 22
132.5
 32
0
 13
160.4162846577728
 23
132.5
 33
0
  0
LINE
  5
12C
100
AcDbEntity
  8
02. –і–µ—А–ґ–∞—В–µ–ї—М
  6
ByBlock
 62
    0
370
   -2
100
AcDbLine
 10
169.375
 20
260
 11
158.75
 21
260
  0
LINE
  5
12D
100
AcDbEntity
  8
02. –і–µ—А–ґ–∞—В–µ–ї—М
  6
ByBlock
 62
    0
370
   -2
100
AcDbLine
 10
169.375
 20
130
 11
158.75
 21
130
  0
ENDBLK
  5
9F
330
9D
100
AcDbEntity
  8
0
100
AcDbBlockEnd
  0
BLOCK
  5
A1
330
A0
100
AcDbEntity
  8
0
100
AcDbBlockBegin
  2
*D12
 70
    1
 10
0
 20
0
  3
*D12
  1

  0
LINE
  5
12E
100
AcDbEntity
  8
03. —Б–±–Њ—А–Њ—З–љ—Л–є —З–µ—А—В–µ–ґ
  6
ByBlock
 62
   96
370
   -2
100
AcDbLine
 10
70
 20
175
 11
70
 21
130
  0
MTEXT
  5
12F
100
AcDbEntity
  8
03. —Б–±–Њ—А–Њ—З–љ—Л–є —З–µ—А—В–µ–ґ
  6
CONTINUOUS
 62
    0
370
   -2
100
AcDbMText
 10
68.125
 20
152.5
 30
0
 40
2.5
 41
3.055555555555711
 71
    5
 72
    1
  1
90
  7
standard
210
0
220
0
230
1
 50
90
 73
    2
 44
1
  0
SOLID
  5
130
100
AcDbEntity
  8
03. —Б–±–Њ—А–Њ—З–љ—Л–є —З–µ—А—В–µ–ґ
  6
ByBlock
 62
   96
370
   -2
100
AcDbTrace
 10
70
 20
175
 30
0
 11
70.41628465777283
 21
172.5
 31
0
 12
69.58371534222717
 22
172.5
 32
0
 13
69.58371534222717
 23
172.5
 33
0
  0
SOLID
  5
131
100
AcDbEntity
  8
03. —Б–±–Њ—А–Њ—З–љ—Л–є —З–µ—А—В–µ–ґ
  6
ByBlock
 62
   96
370
   -2
100
AcDbTrace
 10
70
 20
130
 30
0
 11
69.58371534222717
 21
132.5
 31
0
 12
70.41628465777283
 22
132.5
 32
0
 13
70.41628465777283
 23
132.5
 33
0
  0
LINE
  5
132
100
AcDbEntity
  8
03. —Б–±–Њ—А–Њ—З–љ—Л–є —З–µ—А—В–µ–ґ
  6
ByBlock
 62
    0
370
   -2
100
AcDbLine
 10
113.875
 20
175
 11
68.75
 21
175
  0
LINE
  5
133
100
AcDbEntity
  8
03. —Б–±–Њ—А–Њ—З–љ—Л–є —З–µ—А—В–µ–ґ
  6
ByBlock
 62
    0
370
   -2
100
AcDbLine
 10
78.875
 20
130
 11
68.75
 21
130
  0
ENDBLK
  5
A2
330
A0
100
AcDbEntity
  8
0
100
AcDbBlockEnd
  0
BLOCK
  5
A4
330
A3
100
AcDbEntity
  8
0
100
AcDbBlockBegin
  2
—И—В–∞–Љ–њ –Р4 –∞–ї—М–±–Њ–Љ–љ—Л–є
 70
    0
 10
0
 20
0
  3
—И—В–∞–Љ–њ –Р4 –∞–ї—М–±–Њ–Љ–љ—Л–є
  1

  0
LINE
  5
134
100
AcDbEntity
  8
—И—В–∞–Љ–њ A4 –∞–ї—М–±–Њ–Љ–љ—Л–є
  6
CONTINUOUS
 62
    5
370
   20
100
AcDbLine
 10
210
 20
297
 11
210
 21
0
  0
LINE
  5
135
100
AcDbEntity
  8
—И—В–∞–Љ–њ A4 –∞–ї—М–±–Њ–Љ–љ—Л–є
  6
CONTINUOUS
 62
    5
370
   20
100
AcDbLine
 10
0
 20
0
 11
0
 21
297
  0
LINE
  5
136
100
AcDbEntity
  8
—И—В–∞–Љ–њ A4 –∞–ї—М–±–Њ–Љ–љ—Л–є
  6
CONTINUOUS
 62
    5
370
   20
100
AcDbLine
 10
0
 20
0
 11
210
 21
0
  0
LINE
  5
137
100
AcDbEntity
  8
—И—В–∞–Љ–њ A4 –∞–ї—М–±–Њ–Љ–љ—Л–є
  6
CONTINUOUS
 62
    5
370
   20
100
AcDbLine
 10
0
 20
297
 11
210
 21
297
  0
LINE
  5
138
100
AcDbEntity
  8
—И—В–∞–Љ–њ A4 –∞–ї—М–±–Њ–Љ–љ—Л–є
  6
CONTINUOUS
 62
    1
370
   60
100
AcDbLine
 10
20
 20
5
 11
205
 21
5
  0
LINE
  5
139
100
AcDbEntity
  8
—И—В–∞–Љ–њ A4 –∞–ї—М–±–Њ–Љ–љ—Л–є
  6
CONTINUOUS
 62
    1
370
   60
100
AcDbLine
 10
20
 20
292
 11
205
 21
292
  0
LINE
  5
13A
100
AcDbEntity
  8
—И—В–∞–Љ–њ A4 –∞–ї—М–±–Њ–Љ–љ—Л–є
  6
CONTINUOUS
 62
    1
370
   60
100
AcDbLine
 10
205
 20
292
 11
205
 21
5
  0
LINE
  5
13B
100
AcDbEntity
  8
—И—В–∞–Љ–њ A4 –∞–ї—М–±–Њ–Љ–љ—Л–є
  6
CONTINUOUS
 62
    1
370
   60
100
AcDbLine
 10
20
 20
5
 11
20
 21
292
  0
LINE
  5
13C
100
AcDbEntity
  8
—И—В–∞–Љ–њ A4 –∞–ї—М–±–Њ–Љ–љ—Л–є
  6
CONTINUOUS
 62
    1
370
   60
100
AcDbLine
 10
20
 20
5
 11
205
 21
5
  0
LINE
  5
13D
100
AcDbEntity
  8
—И—В–∞–Љ–њ A4 –∞–ї—М–±–Њ–Љ–љ—Л–є
  6
CONTINUOUS
 62
    1
370
   60
100
AcDbLine
 10
20
 20
5.000000253502606
 11
20
 21
60.00000025350261
  0
MTEXT
  5
13E
100
AcDbEntity
  8
—И—В–∞–Љ–њ A4 –∞–ї—М–±–Њ–Љ–љ—Л–є
  6
ByLayer
 62
  256
370
   -1
100
AcDbMText
 10
171.5
 20
116
 30
0
 40
2
 41
6.000000000000092
 71
    1
 72
    1
  1
–Ы–Є—Б—В
  7
cyrillic_ii
210
0
220
0
230
1
 50
90
 73
    2
 44
1
  0
MTEXT
  5
13F
100
AcDbEntity
  8
—И—В–∞–Љ–њ A4 –∞–ї—М–±–Њ–Љ–љ—Л–є
  6
ByLayer
 62
  256
370
   -1
100
AcDbMText
 10
171.5
 20
149.4
 30
0
 40
2
 41
10.22222222222232
 71
    1
 72
    1
  1
–Я–Њ–і–њ–Є—Б—М
  7
cyrillic_ii
210
0
220
0
230
1
 50
90
 73
    2
 44
1
  0
MTEXT
  5
140
100
AcDbEntity
  8
—И—В–∞–Љ–њ A4 –∞–ї—М–±–Њ–Љ–љ—Л–є
  6
ByLayer
 62
  256
370
   -1
100
AcDbMText
 10
171.5
 20
126.7
 30
0
 40
2
 41
17.6111111111112
 71
    1
 72
    1
  1
N –і–Њ–Ї—Г–Љ–µ–љ—В–∞
  7
cyrillic_ii
210
0
220
0
230
1
 50
90
 73
    2
 44
1
  0
MTEXT
  5
141
100
AcDbEntity
  8
—И—В–∞–Љ–њ A4 –∞–ї—М–±–Њ–Љ–љ—Л–є
  6
ByLayer
 62
  256
370
   -1
100
AcDbMText
 10
171.5
 20
108.3
 30
0
 40
2
 41
4.444444444444444
 71
    1
 72
    1
  1
–Ш–Ј–Љ
  7
cyrillic_ii
210
0
220
0
230
1
 50
90
 73
    2
 44
1
  0
MTEXT
  5
142
100
AcDbEntity
  8
—И—В–∞–Љ–њ A4 –∞–ї—М–±–Њ–Љ–љ—Л–є
  6
ByLayer
 62
  256
370
   -1
100
AcDbMText
 10
166.5
 20
247.1
 30
0
 40
2
 41
5.333333333333426
 71
    1
 72
    1
  1
–Ы–Є—В.
  7
cyrillic_ii
210
0
220
0
230
1
 50
90
 73
    2
 44
1
  0
MTEXT
  5
143
100
AcDbEntity
  8
—И—В–∞–Љ–њ A4 –∞–ї—М–±–Њ–Љ–љ—Л–є
  6
ByLayer
 62
  256
370
   -1
100
AcDbMText
 10
166.5
 20
261.5
 30
0
 40
2
 41
7.777777777777777
 71
    1
 72
    1
  1
–Ь–∞—Б—Б–∞
  7
cyrillic_ii
210
0
220
0
230
1
 50
90
 73
    2
 44
1
  0
MTEXT
  5
144
100
AcDbEntity
  8
—И—В–∞–Љ–њ A4 –∞–ї—М–±–Њ–Љ–љ—Л–є
  6
ByLayer
 62
  256
370
   -1
100
AcDbMText
 10
166.5
 20
277
 30
0
 40
2
 41
12.00000000000009
 71
    1
 72
    1
  1
–Ь–∞—Б—И—В–∞–±
  7
cyrillic_ii
210
0
220
0
230
1
 50
90
 73
    2
 44
1
  0
MTEXT
  5
145
100
AcDbEntity
  8
—И—В–∞–Љ–њ A4 –∞–ї—М–±–Њ–Љ–љ—Л–є
  6
ByLayer
 62
  256
370
   -1
100
AcDbMText
 10
171.5
 20
163.5
 30
0
 40
2
 41
7.111111111111204
 71
    1
 72
    1
  1
–Ф–∞—В–∞
  7
cyrillic_ii
210
0
220
0
230
1
 50
90
 73
    2
 44
1
  0
MTEXT
  5
146
100
AcDbEntity
  8
—И—В–∞–Љ–њ A4 –∞–ї—М–±–Њ–Љ–љ—Л–є
  6
ByLayer
 62
  256
370
   -1
100
AcDbMText
 10
176.6
 20
109
 30
0
 40
2
 41
10.22222222222222
 71
    1
 72
    1
  1
–†–∞–Ј—А–∞–±.
  7
cyrillic_ii
210
0
220
0
230
1
 50
90
 73
    2
 44
1
  0
MTEXT
  5
147
100
AcDbEntity
  8
—И—В–∞–Љ–њ A4 –∞–ї—М–±–Њ–Љ–љ—Л–є
  6
ByLayer
 62
  256
370
   -1
100
AcDbMText
 10
181.6
 20
109
 30
0
 40
2
 41
6.444444444444444
 71
    1
 72
    1
  1
–Я—А–Њ–≤.
  7
cyrillic_ii
210
0
220
0
230
1
 50
90
 73
    2
 44
1
  0
MTEXT
  5
148
100
AcDbEntity
  8
—И—В–∞–Љ–њ A4 –∞–ї—М–±–Њ–Љ–љ—Л–є
  6
ByLayer
 62
  256
370
   -1
100
AcDbMText
 10
186.6
 20
109
 30
0
 40
2
 41
10.88888888888898
 71
    1
 72
    1
  1
–Ґ.–Ї–Њ–љ—В—А.
  7
cyrillic_ii
210
0
220
0
230
1
 50
90
 73
    2
 44
1
  0
MTEXT
  5
149
100
AcDbEntity
  8
—И—В–∞–Љ–њ A4 –∞–ї—М–±–Њ–Љ–љ—Л–є
  6
ByLayer
 62
  256
370
   -1
100
AcDbMText
 10
196.6
 20
109
 30
0
 40
2
 41
12.16666666666676
 71
    1
 72
    1
  1
–Э. –Ї–Њ–љ—В—А.
  7
cyrillic_ii
210
0
220
0
230
1
 50
90
 73
    2
 44
1
  0
MTEXT
  5
14A
100
AcDbEntity
  8
—И—В–∞–Љ–њ A4 –∞–ї—М–±–Њ–Љ–љ—Л–є
  6
ByLayer
 62
  256
370
   -1
100
AcDbMText
 10
201.6
 20
109
 30
0
 40
2
 41
5.333333333333426
 71
    1
 72
    1
  1
–£—В–≤.
  7
cyrillic_ii
210
0
220
0
230
1
 50
90
 73
    2
 44
1
  0
MTEXT
  5
14B
100
AcDbEntity
  8
—И—В–∞–Љ–њ A4 –∞–ї—М–±–Њ–Љ–љ—Л–є
  6
ByLayer
 62
  256
370
   -1
100
AcDbMText
 10
186.5
 20
249
 30
0
 40
2
 41
6.000000000000092
 71
    1
 72
    1
  1
–Ы–Є—Б—В
  7
cyrillic_ii
210
0
220
0
230
1
 50
90
 73
    2
 44
1
  0
MTEXT
  5
14C
100
AcDbEntity
  8
—И—В–∞–Љ–њ A4 –∞–ї—М–±–Њ–Љ–љ—Л–є
  6
ByLayer
 62
  256
370
   -1
100
AcDbMText
 10
186.5
 20
271
 30
0
 40
2
 41
9.111111111111205
 71
    1
 72
    1
  1
–Ы–Є—Б—В–Њ–≤
  7
cyrillic_ii
210
0
220
0
230
1
 50
90
 73
    2
 44
1
  0
LINE
  5
14D
100
AcDbEntity
  8
—И—В–∞–Љ–њ A4 –∞–ї—М–±–Њ–Љ–љ—Л–є
  6
CONTINUOUS
 62
    1
370
   60
100
AcDbLine
 10
205
 20
107
 11
205
 21
292
  0
LINE
  5
14E
100
AcDbEntity
  8
—И—В–∞–Љ–њ A4 –∞–ї—М–±–Њ–Љ–љ—Л–є
  6
CONTINUOUS
 62
    1
370
   60
100
AcDbLine
 10
190
 20
262
 11
185
 21
262
  0
LINE
  5
14F
100
AcDbEntity
  8
—И—В–∞–Љ–њ A4 –∞–ї—М–±–Њ–Љ–љ—Л–є
  6
CONTINUOUS
 62
    1
370
   60
100
AcDbLine
 10
185
 20
257
 11
165
 21
257
  0
LINE
  5
150
100
AcDbEntity
  8
—И—В–∞–Љ–њ A4 –∞–ї—М–±–Њ–Љ–љ—Л–є
  6
CONTINUOUS
 62
    5
370
   20
100
AcDbLine
 10
185
 20
252
 11
170
 21
252
  0
LINE
  5
151
100
AcDbEntity
  8
—И—В–∞–Љ–њ A4 –∞–ї—М–±–Њ–Љ–љ—Л–є
  6
CONTINUOUS
 62
    1
370
   60
100
AcDbLine
 10
185
 20
274
 11
165
 21
274
  0
LINE
  5
152
100
AcDbEntity
  8
—И—В–∞–Љ–њ A4 –∞–ї—М–±–Њ–Љ–љ—Л–є
  6
CONTINUOUS
 62
    5
370
   20
100
AcDbLine
 10
185
 20
247
 11
170
 21
247
  0
LINE
  5
153
100
AcDbEntity
  8
—И—В–∞–Љ–њ A4 –∞–ї—М–±–Њ–Љ–љ—Л–є
  6
CONTINUOUS
 62
    1
370
   60
100
AcDbLine
 10
205
 20
242
 11
165
 21
242
  0
LINE
  5
154
100
AcDbEntity
  8
—И—В–∞–Љ–њ A4 –∞–ї—М–±–Њ–Љ–љ—Л–є
  6
CONTINUOUS
 62
    1
370
   60
100
AcDbLine
 10
170
 20
242
 11
170
 21
292
  0
LINE
  5
155
100
AcDbEntity
  8
—И—В–∞–Љ–њ A4 –∞–ї—М–±–Њ–Љ–љ—Л–є
  6
CONTINUOUS
 62
    1
370
   60
100
AcDbLine
 10
185
 20
242
 11
185
 21
292
  0
LINE
  5
156
100
AcDbEntity
  8
—И—В–∞–Љ–њ A4 –∞–ї—М–±–Њ–Љ–љ—Л–є
  6
CONTINUOUS
 62
    1
370
   60
100
AcDbLine
 10
205
 20
162
 11
150
 21
162
  0
LINE
  5
157
100
AcDbEntity
  8
—И—В–∞–Љ–њ A4 –∞–ї—М–±–Њ–Љ–љ—Л–є
  6
CONTINUOUS
 62
    1
370
   60
100
AcDbLine
 10
205
 20
147
 11
150
 21
147
  0
LINE
  5
158
100
AcDbEntity
  8
—И—В–∞–Љ–њ A4 –∞–ї—М–±–Њ–Љ–љ—Л–є
  6
CONTINUOUS
 62
    1
370
   60
100
AcDbLine
 10
205
 20
124
 11
150
 21
124
  0
LINE
  5
159
100
AcDbEntity
  8
—И—В–∞–Љ–њ A4 –∞–ї—М–±–Њ–Љ–љ—Л–є
  6
CONTINUOUS
 62
    1
370
   60
100
AcDbLine
 10
205
 20
172
 11
150
 21
172
  0
LINE
  5
15A
100
AcDbEntity
  8
—И—В–∞–Љ–њ A4 –∞–ї—М–±–Њ–Љ–љ—Л–є
  6
CONTINUOUS
 62
    1
370
   60
100
AcDbLine
 10
175
 20
114
 11
150
 21
114
  0
LINE
  5
15B
100
AcDbEntity
  8
—И—В–∞–Љ–њ A4 –∞–ї—М–±–Њ–Љ–љ—Л–є
  6
CONTINUOUS
 62
    5
370
   20
100
AcDbLine
 10
155
 20
107
 11
155
 21
172
  0
LINE
  5
15C
100
AcDbEntity
  8
—И—В–∞–Љ–њ A4 –∞–ї—М–±–Њ–Љ–љ—Л–є
  6
CONTINUOUS
 62
    5
370
   20
100
AcDbLine
 10
160
 20
107
 11
160
 21
172
  0
LINE
  5
15D
100
AcDbEntity
  8
—И—В–∞–Љ–њ A4 –∞–ї—М–±–Њ–Љ–љ—Л–є
  6
CONTINUOUS
 62
    5
370
   20
100
AcDbLine
 10
165
 20
107
 11
165
 21
172
  0
LINE
  5
15E
100
AcDbEntity
  8
—И—В–∞–Љ–њ A4 –∞–ї—М–±–Њ–Љ–љ—Л–є
  6
CONTINUOUS
 62
    5
370
   20
100
AcDbLine
 10
180
 20
107
 11
180
 21
172
  0
LINE
  5
15F
100
AcDbEntity
  8
—И—В–∞–Љ–њ A4 –∞–ї—М–±–Њ–Љ–љ—Л–є
  6
CONTINUOUS
 62
    5
370
   20
100
AcDbLine
 10
185
 20
107
 11
185
 21
172
  0
LINE
  5
160
100
AcDbEntity
  8
—И—В–∞–Љ–њ A4 –∞–ї—М–±–Њ–Љ–љ—Л–є
  6
CONTINUOUS
 62
    5
370
   20
100
AcDbLine
 10
190
 20
107
 11
190
 21
172
  0
LINE
  5
161
100
AcDbEntity
  8
—И—В–∞–Љ–њ A4 –∞–ї—М–±–Њ–Љ–љ—Л–є
  6
CONTINUOUS
 62
    5
370
   20
100
AcDbLine
 10
195
 20
107
 11
195
 21
172
  0
LINE
  5
162
100
AcDbEntity
  8
—И—В–∞–Љ–њ A4 –∞–ї—М–±–Њ–Љ–љ—Л–є
  6
CONTINUOUS
 62
    5
370
   20
100
AcDbLine
 10
200
 20
107
 11
200
 21
172
  0
LINE
  5
163
100
AcDbEntity
  8
—И—В–∞–Љ–њ A4 –∞–ї—М–±–Њ–Љ–љ—Л–є
  6
CONTINUOUS
 62
    1
370
   60
100
AcDbLine
 10
170
 20
107
 11
170
 21
172
  0
LINE
  5
164
100
AcDbEntity
  8
—И—В–∞–Љ–њ A4 –∞–ї—М–±–Њ–Љ–љ—Л–є
  6
CONTINUOUS
 62
    1
370
   60
100
AcDbLine
 10
175
 20
107
 11
175
 21
172
  0
LINE
  5
165
100
AcDbEntity
  8
—И—В–∞–Љ–њ A4 –∞–ї—М–±–Њ–Љ–љ—Л–є
  6
CONTINUOUS
 62
    1
370
   60
100
AcDbLine
 10
150
 20
107
 11
150
 21
292
  0
LINE
  5
166
100
AcDbEntity
  8
—И—В–∞–Љ–њ A4 –∞–ї—М–±–Њ–Љ–љ—Л–є
  6
CONTINUOUS
 62
    1
370
   60
100
AcDbLine
 10
205
 20
107
 11
205
 21
292
  0
LINE
  5
167
100
AcDbEntity
  8
—И—В–∞–Љ–њ A4 –∞–ї—М–±–Њ–Љ–љ—Л–є
  6
CONTINUOUS
 62
    1
370
   60
100
AcDbLine
 10
165
 20
172
 11
165
 21
292
  0
LINE
  5
168
100
AcDbEntity
  8
—И—В–∞–Љ–њ A4 –∞–ї—М–±–Њ–Љ–љ—Л–є
  6
CONTINUOUS
 62
    1
370
   60
100
AcDbLine
 10
190
 20
172
 11
190
 21
292
  0
LINE
  5
169
100
AcDbEntity
  8
—И—В–∞–Љ–њ A4 –∞–ї—М–±–Њ–Љ–љ—Л–є
  6
CONTINUOUS
 62
    1
370
   60
100
AcDbLine
 10
204.9999997464974
 20
107
 11
149.9999997464974
 21
107
  0
LINE
  5
16A
100
AcDbEntity
  8
—И—В–∞–Љ–њ A4 –∞–ї—М–±–Њ–Љ–љ—Л–є
  6
CONTINUOUS
 62
    1
370
   60
100
AcDbLine
 10
150
 20
292
 11
205
 21
292
  0
LINE
  5
16B
100
AcDbEntity
  8
—И—В–∞–Љ–њ A4 –∞–ї—М–±–Њ–Љ–љ—Л–є
  6
CONTINUOUS
 62
    1
370
   60
100
AcDbLine
 10
205
 20
107
 11
149.9999997464974
 21
107
  0
ENDBLK
  5
A5
330
A3
100
AcDbEntity
  8
0
100
AcDbBlockEnd
  0
BLOCK
  5
A7
330
A6
100
AcDbEntity
  8
0
100
AcDbBlockBegin
  2
—И—В–∞–Љ–њ A4 –Ї–љ–Є–ґ–љ—Л–є
 70
    0
 10
0
 20
0
  3
—И—В–∞–Љ–њ A4 –Ї–љ–Є–ґ–љ—Л–є
  1

  0
MTEXT
  5
16C
100
AcDbEntity
  8
0
  6
ByLayer
 62
  256
370
   -1
100
AcDbMText
 10
29
 20
38.5
 30
0
 40
2
 41
6.000000000000092
 71
    1
 72
    1
  1
–Ы–Є—Б—В
  7
cyrillic_ii
210
0
220
0
230
1
 50
0
 73
    2
 44
1
  0
MTEXT
  5
16D
100
AcDbEntity
  8
0
  6
ByLayer
 62
  256
370
   -1
100
AcDbMText
 10
62.4
 20
38.5
 30
0
 40
2
 41
10.22222222222232
 71
    1
 72
    1
  1
–Я–Њ–і–њ–Є—Б—М
  7
cyrillic_ii
210
0
220
0
230
1
 50
0
 73
    2
 44
1
  0
MTEXT
  5
16E
100
AcDbEntity
  8
0
  6
ByLayer
 62
  256
370
   -1
100
AcDbMText
 10
39.7
 20
38.5
 30
0
 40
2
 41
17.6111111111112
 71
    1
 72
    1
  1
N –і–Њ–Ї—Г–Љ–µ–љ—В–∞
  7
cyrillic_ii
210
0
220
0
230
1
 50
0
 73
    2
 44
1
  0
MTEXT
  5
16F
100
AcDbEntity
  8
0
  6
ByLayer
 62
  256
370
   -1
100
AcDbMText
 10
21.3
 20
38.5
 30
0
 40
2
 41
4.444444444444444
 71
    1
 72
    1
  1
–Ш–Ј–Љ
  7
cyrillic_ii
210
0
220
0
230
1
 50
0
 73
    2
 44
1
  0
MTEXT
  5
170
100
AcDbEntity
  8
0
  6
ByLayer
 62
  256
370
   -1
100
AcDbMText
 10
160.1
 20
43.50000000000001
 30
0
 40
2
 41
5.333333333333426
 71
    1
 72
    1
  1
–Ы–Є—В.
  7
cyrillic_ii
210
0
220
0
230
1
 50
0
 73
    2
 44
1
  0
MTEXT
  5
171
100
AcDbEntity
  8
0
  6
ByLayer
 62
  256
370
   -1
100
AcDbMText
 10
174.5
 20
43.5
 30
0
 40
2
 41
7.777777777777777
 71
    1
 72
    1
  1
–Ь–∞—Б—Б–∞
  7
cyrillic_ii
210
0
220
0
230
1
 50
0
 73
    2
 44
1
  0
MTEXT
  5
172
100
AcDbEntity
  8
0
  6
ByLayer
 62
  256
370
   -1
100
AcDbMText
 10
190
 20
43.50000000000001
 30
0
 40
2
 41
12.00000000000009
 71
    1
 72
    1
  1
–Ь–∞—Б—И—В–∞–±
  7
cyrillic_ii
210
0
220
0
230
1
 50
0
 73
    2
 44
1
  0
MTEXT
  5
173
100
AcDbEntity
  8
0
  6
ByLayer
 62
  256
370
   -1
100
AcDbMText
 10
76.5
 20
38.5
 30
0
 40
2
 41
7.111111111111204
 71
    1
 72
    1
  1
–Ф–∞—В–∞
  7
cyrillic_ii
210
0
220
0
230
1
 50
0
 73
    2
 44
1
  0
MTEXT
  5
174
100
AcDbEntity
  8
0
  6
ByLayer
 62
  256
370
   -1
100
AcDbMText
 10
22
 20
33.40000000000001
 30
0
 40
2
 41
10.22222222222222
 71
    1
 72
    1
  1
–†–∞–Ј—А–∞–±.
  7
cyrillic_ii
210
0
220
0
230
1
 50
0
 73
    2
 44
1
  0
MTEXT
  5
175
100
AcDbEntity
  8
0
  6
ByLayer
 62
  256
370
   -1
100
AcDbMText
 10
22
 20
28.4
 30
0
 40
2
 41
6.444444444444444
 71
    1
 72
    1
  1
–Я—А–Њ–≤.
  7
cyrillic_ii
210
0
220
0
230
1
 50
0
 73
    2
 44
1
  0
MTEXT
  5
176
100
AcDbEntity
  8
0
  6
ByLayer
 62
  256
370
   -1
100
AcDbMText
 10
22
 20
23.4
 30
0
 40
2
 41
10.88888888888898
 71
    1
 72
    1
  1
–Ґ.–Ї–Њ–љ—В—А.
  7
cyrillic_ii
210
0
220
0
230
1
 50
0
 73
    2
 44
1
  0
MTEXT
  5
177
100
AcDbEntity
  8
0
  6
ByLayer
 62
  256
370
   -1
100
AcDbMText
 10
22
 20
13.4
 30
0
 40
2
 41
12.16666666666676
 71
    1
 72
    1
  1
–Э. –Ї–Њ–љ—В—А.
  7
cyrillic_ii
210
0
220
0
230
1
 50
0
 73
    2
 44
1
  0
MTEXT
  5
178
100
AcDbEntity
  8
0
  6
ByLayer
 62
  256
370
   -1
100
AcDbMText
 10
22
 20
8.400000000000002
 30
0
 40
2
 41
5.333333333333426
 71
    1
 72
    1
  1
–£—В–≤.
  7
cyrillic_ii
210
0
220
0
230
1
 50
0
 73
    2
 44
1
  0
MTEXT
  5
179
100
AcDbEntity
  8
0
  6
ByLayer
 62
  256
370
   -1
100
AcDbMText
 10
162
 20
23.5
 30
0
 40
2
 41
6.000000000000092
 71
    1
 72
    1
  1
–Ы–Є—Б—В
  7
cyrillic_ii
210
0
220
0
230
1
 50
0
 73
    2
 44
1
  0
MTEXT
  5
17A
100
AcDbEntity
  8
0
  6
ByLayer
 62
  256
370
   -1
100
AcDbMText
 10
184
 20
23.5
 30
0
 40
2
 41
9.111111111111205
 71
    1
 72
    1
  1
–Ы–Є—Б—В–Њ–≤
  7
cyrillic_ii
210
0
220
0
230
1
 50
0
 73
    2
 44
1
  0
LINE
  5
17B
100
AcDbEntity
  8
0
  6
CONTINUOUS
 62
    5
370
   20
100
AcDbLine
 10
210
 20
297
 11
210
 21
0
  0
LINE
  5
17C
100
AcDbEntity
  8
0
  6
CONTINUOUS
 62
    5
370
   20
100
AcDbLine
 10
0
 20
0
 11
0
 21
297
  0
LINE
  5
17D
100
AcDbEntity
  8
0
  6
CONTINUOUS
 62
    5
370
   20
100
AcDbLine
 10
0
 20
0
 11
210
 21
0
  0
LINE
  5
17E
100
AcDbEntity
  8
0
  6
CONTINUOUS
 62
    5
370
   20
100
AcDbLine
 10
0
 20
297
 11
210
 21
297
  0
LINE
  5
17F
100
AcDbEntity
  8
0
  6
CONTINUOUS
 62
    1
370
   60
100
AcDbLine
 10
20
 20
5
 11
205
 21
5
  0
LINE
  5
180
100
AcDbEntity
  8
0
  6
CONTINUOUS
 62
    1
370
   60
100
AcDbLine
 10
20
 20
292
 11
205
 21
292
  0
LINE
  5
181
100
AcDbEntity
  8
0
  6
CONTINUOUS
 62
    1
370
   60
100
AcDbLine
 10
205
 20
292
 11
205
 21
5
  0
LINE
  5
182
100
AcDbEntity
  8
0
  6
CONTINUOUS
 62
    1
370
   60
100
AcDbLine
 10
20
 20
5
 11
20
 21
292
  0
LINE
  5
183
100
AcDbEntity
  8
0
  6
CONTINUOUS
 62
    1
370
   60
100
AcDbLine
 10
175
 20
20
 11
175
 21
25
  0
LINE
  5
184
100
AcDbEntity
  8
0
  6
CONTINUOUS
 62
    1
370
   60
100
AcDbLine
 10
170
 20
25
 11
170
 21
45
  0
LINE
  5
185
100
AcDbEntity
  8
0
  6
CONTINUOUS
 62
    5
370
   20
100
AcDbLine
 10
165
 20
25
 11
165
 21
40
  0
LINE
  5
186
100
AcDbEntity
  8
0
  6
CONTINUOUS
 62
    1
370
   60
100
AcDbLine
 10
187
 20
25
 11
187
 21
45
  0
LINE
  5
187
100
AcDbEntity
  8
0
  6
CONTINUOUS
 62
    5
370
   20
100
AcDbLine
 10
160
 20
25
 11
160
 21
40
  0
LINE
  5
188
100
AcDbEntity
  8
0
  6
CONTINUOUS
 62
    1
370
   60
100
AcDbLine
 10
155
 20
5
 11
155
 21
45
  0
LINE
  5
189
100
AcDbEntity
  8
0
  6
CONTINUOUS
 62
    1
370
   60
100
AcDbLine
 10
155
 20
40
 11
205
 21
40
  0
LINE
  5
18A
100
AcDbEntity
  8
0
  6
CONTINUOUS
 62
    1
370
   60
100
AcDbLine
 10
155
 20
25
 11
205
 21
25
  0
LINE
  5
18B
100
AcDbEntity
  8
0
  6
CONTINUOUS
 62
    1
370
   60
100
AcDbLine
 10
75
 20
5
 11
75
 21
60
  0
LINE
  5
18C
100
AcDbEntity
  8
0
  6
CONTINUOUS
 62
    1
370
   60
100
AcDbLine
 10
60
 20
5
 11
60
 21
60
  0
LINE
  5
18D
100
AcDbEntity
  8
0
  6
CONTINUOUS
 62
    1
370
   60
100
AcDbLine
 10
37
 20
5
 11
37
 21
60
  0
LINE
  5
18E
100
AcDbEntity
  8
0
  6
CONTINUOUS
 62
    1
370
   60
100
AcDbLine
 10
85
 20
5
 11
85
 21
60
  0
LINE
  5
18F
100
AcDbEntity
  8
0
  6
CONTINUOUS
 62
    1
370
   60
100
AcDbLine
 10
27
 20
35
 11
27
 21
60
  0
LINE
  5
190
100
AcDbEntity
  8
0
  6
CONTINUOUS
 62
    5
370
   20
100
AcDbLine
 10
20
 20
55
 11
85
 21
55
  0
LINE
  5
191
100
AcDbEntity
  8
0
  6
CONTINUOUS
 62
    5
370
   20
100
AcDbLine
 10
20
 20
50
 11
85
 21
50
  0
LINE
  5
192
100
AcDbEntity
  8
0
  6
CONTINUOUS
 62
    5
370
   20
100
AcDbLine
 10
20
 20
45
 11
85
 21
45
  0
LINE
  5
193
100
AcDbEntity
  8
0
  6
CONTINUOUS
 62
    5
370
   20
100
AcDbLine
 10
20
 20
30
 11
85
 21
30
  0
LINE
  5
194
100
AcDbEntity
  8
0
  6
CONTINUOUS
 62
    5
370
   20
100
AcDbLine
 10
20
 20
25
 11
85
 21
25
  0
LINE
  5
195
100
AcDbEntity
  8
0
  6
CONTINUOUS
 62
    5
370
   20
100
AcDbLine
 10
20
 20
20
 11
85
 21
20
  0
LINE
  5
196
100
AcDbEntity
  8
0
  6
CONTINUOUS
 62
    5
370
   20
100
AcDbLine
 10
20
 20
15
 11
85
 21
15
  0
LINE
  5
197
100
AcDbEntity
  8
0
  6
CONTINUOUS
 62
    5
370
   20
100
AcDbLine
 10
20
 20
10
 11
85
 21
10
  0
LINE
  5
198
100
AcDbEntity
  8
0
  6
CONTINUOUS
 62
    1
370
   60
100
AcDbLine
 10
20
 20
40
 11
85
 21
40
  0
LINE
  5
199
100
AcDbEntity
  8
0
  6
CONTINUOUS
 62
    1
370
   60
100
AcDbLine
 10
20
 20
35
 11
85
 21
35
  0
LINE
  5
19A
100
AcDbEntity
  8
0
  6
CONTINUOUS
 62
    1
370
   60
100
AcDbLine
 10
20
 20
60
 11
205
 21
60
  0
LINE
  5
19B
100
AcDbEntity
  8
0
  6
CONTINUOUS
 62
    1
370
   60
100
AcDbLine
 10
20
 20
5
 11
205
 21
5
  0
LINE
  5
19C
100
AcDbEntity
  8
0
  6
CONTINUOUS
 62
    1
370
   60
100
AcDbLine
 10
85
 20
45
 11
205
 21
45
  0
LINE
  5
19D
100
AcDbEntity
  8
0
  6
CONTINUOUS
 62
    1
370
   60
100
AcDbLine
 10
85
 20
20
 11
205
 21
20
  0
LINE
  5
19E
100
AcDbEntity
  8
0
  6
CONTINUOUS
 62
    1
370
   60
100
AcDbLine
 10
20
 20
5.000000253502606
 11
20
 21
60.00000025350261
  0
ENDBLK
  5
A8
330
A6
100
AcDbEntity
  8
0
100
AcDbBlockEnd
  0
BLOCK
  5
AA
330
A9
100
AcDbEntity
  8
0
100
AcDbBlockBegin
  2
—И—В–∞–Љ–њ A4 —Б–њ–µ—Ж–Є—Д–Є–Ї–∞—Ж–Є—П
 70
    0
 10
0
 20
0
  3
—И—В–∞–Љ–њ A4 —Б–њ–µ—Ж–Є—Д–Є–Ї–∞—Ж–Є—П
  1

  0
LINE
  5
19F
100
AcDbEntity
  8
—И—В–∞–Љ–њ –Р4 —Б–њ–µ—Ж–Є—Д–Є–Ї–∞—Ж–Є—П
  6
CONTINUOUS
 62
    5
370
   20
100
AcDbLine
 10
210
 20
297
 11
210
 21
0
  0
LINE
  5
1A0
100
AcDbEntity
  8
—И—В–∞–Љ–њ –Р4 —Б–њ–µ—Ж–Є—Д–Є–Ї–∞—Ж–Є—П
  6
CONTINUOUS
 62
    5
370
   20
100
AcDbLine
 10
0
 20
0
 11
0
 21
297
  0
LINE
  5
1A1
100
AcDbEntity
  8
—И—В–∞–Љ–њ –Р4 —Б–њ–µ—Ж–Є—Д–Є–Ї–∞—Ж–Є—П
  6
CONTINUOUS
 62
    5
370
   20
100
AcDbLine
 10
0
 20
0
 11
210
 21
0
  0
LINE
  5
1A2
100
AcDbEntity
  8
—И—В–∞–Љ–њ –Р4 —Б–њ–µ—Ж–Є—Д–Є–Ї–∞—Ж–Є—П
  6
CONTINUOUS
 62
    5
370
   20
100
AcDbLine
 10
0
 20
297
 11
210
 21
297
  0
LINE
  5
1A3
100
AcDbEntity
  8
—И—В–∞–Љ–њ –Р4 —Б–њ–µ—Ж–Є—Д–Є–Ї–∞—Ж–Є—П
  6
CONTINUOUS
 62
    1
370
   60
100
AcDbLine
 10
20
 20
5
 11
205
 21
5
  0
LINE
  5
1A4
100
AcDbEntity
  8
—И—В–∞–Љ–њ –Р4 —Б–њ–µ—Ж–Є—Д–Є–Ї–∞—Ж–Є—П
  6
CONTINUOUS
 62
    1
370
   60
100
AcDbLine
 10
20
 20
292
 11
205
 21
292
  0
LINE
  5
1A5
100
AcDbEntity
  8
—И—В–∞–Љ–њ –Р4 —Б–њ–µ—Ж–Є—Д–Є–Ї–∞—Ж–Є—П
  6
CONTINUOUS
 62
    1
370
   60
100
AcDbLine
 10
205
 20
292
 11
205
 21
5
  0
LINE
  5
1A6
100
AcDbEntity
  8
—И—В–∞–Љ–њ –Р4 —Б–њ–µ—Ж–Є—Д–Є–Ї–∞—Ж–Є—П
  6
CONTINUOUS
 62
    1
370
   60
100
AcDbLine
 10
20
 20
5
 11
20
 21
292
  0
LINE
  5
1A7
100
AcDbEntity
  8
—И—В–∞–Љ–њ –Р4 —Б–њ–µ—Ж–Є—Д–Є–Ї–∞—Ж–Є—П
  6
CONTINUOUS
 62
    5
370
   20
100
AcDbLine
 10
20
 20
25
 11
85
 21
25
  0
LINE
  5
1A8
100
AcDbEntity
  8
—И—В–∞–Љ–њ –Р4 —Б–њ–µ—Ж–Є—Д–Є–Ї–∞—Ж–Є—П
  6
CONTINUOUS
 62
    5
370
   20
100
AcDbLine
 10
20
 20
20
 11
85
 21
20
  0
LINE
  5
1A9
100
AcDbEntity
  8
—И—В–∞–Љ–њ –Р4 —Б–њ–µ—Ж–Є—Д–Є–Ї–∞—Ж–Є—П
  6
CONTINUOUS
 62
    5
370
   20
100
AcDbLine
 10
20
 20
15
 11
85
 21
15
  0
LINE
  5
1AA
100
AcDbEntity
  8
—И—В–∞–Љ–њ –Р4 —Б–њ–µ—Ж–Є—Д–Є–Ї–∞—Ж–Є—П
  6
CONTINUOUS
 62
    5
370
   20
100
AcDbLine
 10
20
 20
10
 11
85
 21
10
  0
LINE
  5
1AB
100
AcDbEntity
  8
—И—В–∞–Љ–њ –Р4 —Б–њ–µ—Ж–Є—Д–Є–Ї–∞—Ж–Є—П
  6
CONTINUOUS
 62
    1
370
   60
100
AcDbLine
 10
20
 20
5
 11
205
 21
5
  0
LINE
  5
1AC
100
AcDbEntity
  8
—И—В–∞–Љ–њ –Р4 —Б–њ–µ—Ж–Є—Д–Є–Ї–∞—Ж–Є—П
  6
CONTINUOUS
 62
    1
370
   60
100
AcDbLine
 10
20
 20
5.000000253502606
 11
20
 21
60.00000025350261
  0
MTEXT
  5
1AD
100
AcDbEntity
  8
—И—В–∞–Љ–њ –Р4 —Б–њ–µ—Ж–Є—Д–Є–Ї–∞—Ж–Є—П
  6
ByLayer
 62
  256
370
   -1
100
AcDbMText
 10
22
 20
28.00000000000001
 30
0
 40
2
 41
10.22222222222222
 71
    1
 72
    1
  1
–†–∞–Ј—А–∞–±.
  7
cyrillic_ii
210
0
220
0
230
1
 50
0
 73
    2
 44
1
  0
MTEXT
  5
1AE
100
AcDbEntity
  8
—И—В–∞–Љ–њ –Р4 —Б–њ–µ—Ж–Є—Д–Є–Ї–∞—Ж–Є—П
  6
ByLayer
 62
  256
370
   -1
100
AcDbMText
 10
22
 20
23
 30
0
 40
2
 41
6.444444444444444
 71
    1
 72
    1
  1
–Я—А–Њ–≤.
  7
cyrillic_ii
210
0
220
0
230
1
 50
0
 73
    2
 44
1
  0
MTEXT
  5
1AF
100
AcDbEntity
  8
—И—В–∞–Љ–њ –Р4 —Б–њ–µ—Ж–Є—Д–Є–Ї–∞—Ж–Є—П
  6
ByLayer
 62
  256
370
   -1
100
AcDbMText
 10
22
 20
18
 30
0
 40
2
 41
10.88888888888898
 71
    1
 72
    1
  1
–Ґ.–Ї–Њ–љ—В—А.
  7
cyrillic_ii
210
0
220
0
230
1
 50
0
 73
    2
 44
1
  0
MTEXT
  5
1B0
100
AcDbEntity
  8
—И—В–∞–Љ–њ –Р4 —Б–њ–µ—Ж–Є—Д–Є–Ї–∞—Ж–Є—П
  6
ByLayer
 62
  256
370
   -1
100
AcDbMText
 10
22
 20
8
 30
0
 40
2
 41
12.16666666666676
 71
    1
 72
    1
  1
–Э. –Ї–Њ–љ—В—А.
  7
cyrillic_ii
210
0
220
0
230
1
 50
0
 73
    2
 44
1
  0
MTEXT
  5
1B1
100
AcDbEntity
  8
—И—В–∞–Љ–њ –Р4 —Б–њ–µ—Ж–Є—Д–Є–Ї–∞—Ж–Є—П
  6
ByLayer
 62
  256
370
   -1
100
AcDbMText
 10
29
 20
33.5
 30
0
 40
2
 41
6.000000000000092
 71
    1
 72
    1
  1
–Ы–Є—Б—В
  7
cyrillic_ii
210
0
220
0
230
1
 50
0
 73
    2
 44
1
  0
MTEXT
  5
1B2
100
AcDbEntity
  8
—И—В–∞–Љ–њ –Р4 —Б–њ–µ—Ж–Є—Д–Є–Ї–∞—Ж–Є—П
  6
ByLayer
 62
  256
370
   -1
100
AcDbMText
 10
62.4
 20
33.5
 30
0
 40
2
 41
10.22222222222232
 71
    1
 72
    1
  1
–Я–Њ–і–њ–Є—Б—М
  7
cyrillic_ii
210
0
220
0
230
1
 50
0
 73
    2
 44
1
  0
MTEXT
  5
1B3
100
AcDbEntity
  8
—И—В–∞–Љ–њ –Р4 —Б–њ–µ—Ж–Є—Д–Є–Ї–∞—Ж–Є—П
  6
ByLayer
 62
  256
370
   -1
100
AcDbMText
 10
39.7
 20
33.5
 30
0
 40
2
 41
17.6111111111112
 71
    1
 72
    1
  1
N –і–Њ–Ї—Г–Љ–µ–љ—В–∞
  7
cyrillic_ii
210
0
220
0
230
1
 50
0
 73
    2
 44
1
  0
MTEXT
  5
1B4
100
AcDbEntity
  8
—И—В–∞–Љ–њ –Р4 —Б–њ–µ—Ж–Є—Д–Є–Ї–∞—Ж–Є—П
  6
ByLayer
 62
  256
370
   -1
100
AcDbMText
 10
21.3
 20
33.5
 30
0
 40
2
 41
4.444444444444444
 71
    1
 72
    1
  1
–Ш–Ј–Љ
  7
cyrillic_ii
210
0
220
0
230
1
 50
0
 73
    2
 44
1
  0
MTEXT
  5
1B5
100
AcDbEntity
  8
—И—В–∞–Љ–њ –Р4 —Б–њ–µ—Ж–Є—Д–Є–Ї–∞—Ж–Є—П
  6
ByLayer
 62
  256
370
   -1
100
AcDbMText
 10
76.5
 20
33.5
 30
0
 40
2
 41
7.111111111111204
 71
    1
 72
    1
  1
–Ф–∞—В–∞
  7
cyrillic_ii
210
0
220
0
230
1
 50
0
 73
    2
 44
1
  0
LINE
  5
1B6
100
AcDbEntity
  8
—И—В–∞–Љ–њ –Р4 —Б–њ–µ—Ж–Є—Д–Є–Ї–∞—Ж–Є—П
  6
CONTINUOUS
 62
    5
370
   20
100
AcDbLine
 10
20
 20
40
 11
85
 21
40
  0
LINE
  5
1B7
100
AcDbEntity
  8
—И—В–∞–Љ–њ –Р4 —Б–њ–µ—Ж–Є—Д–Є–Ї–∞—Ж–Є—П
  6
CONTINUOUS
 62
    1
370
   60
100
AcDbLine
 10
20
 20
35
 11
85
 21
35
  0
LINE
  5
1B8
100
AcDbEntity
  8
—И—В–∞–Љ–њ –Р4 —Б–њ–µ—Ж–Є—Д–Є–Ї–∞—Ж–Є—П
  6
CONTINUOUS
 62
    1
370
   60
100
AcDbLine
 10
20
 20
30
 11
85
 21
30
  0
LINE
  5
1B9
100
AcDbEntity
  8
—И—В–∞–Љ–њ –Р4 —Б–њ–µ—Ж–Є—Д–Є–Ї–∞—Ж–Є—П
  6
CONTINUOUS
 62
    1
370
   60
100
AcDbLine
 10
20
 20
45
 11
205
 21
45
  0
LINE
  5
1BA
100
AcDbEntity
  8
—И—В–∞–Љ–њ –Р4 —Б–њ–µ—Ж–Є—Д–Є–Ї–∞—Ж–Є—П
  6
CONTINUOUS
 62
    1
370
   60
100
AcDbLine
 10
85
 20
5
 11
85
 21
45
  0
LINE
  5
1BB
100
AcDbEntity
  8
—И—В–∞–Љ–њ –Р4 —Б–њ–µ—Ж–Є—Д–Є–Ї–∞—Ж–Є—П
  6
CONTINUOUS
 62
    1
370
   60
100
AcDbLine
 10
75
 20
5
 11
75
 21
45
  0
LINE
  5
1BC
100
AcDbEntity
  8
—И—В–∞–Љ–њ –Р4 —Б–њ–µ—Ж–Є—Д–Є–Ї–∞—Ж–Є—П
  6
CONTINUOUS
 62
    1
370
   60
100
AcDbLine
 10
60
 20
5
 11
60
 21
45
  0
LINE
  5
1BD
100
AcDbEntity
  8
—И—В–∞–Љ–њ –Р4 —Б–њ–µ—Ж–Є—Д–Є–Ї–∞—Ж–Є—П
  6
CONTINUOUS
 62
    1
370
   60
100
AcDbLine
 10
37
 20
5
 11
37
 21
45
  0
LINE
  5
1BE
100
AcDbEntity
  8
—И—В–∞–Љ–њ –Р4 —Б–њ–µ—Ж–Є—Д–Є–Ї–∞—Ж–Є—П
  6
CONTINUOUS
 62
    1
370
   60
100
AcDbLine
 10
27
 20
35
 11
27
 21
45
  0
LINE
  5
1BF
100
AcDbEntity
  8
—И—В–∞–Љ–њ –Р4 —Б–њ–µ—Ж–Є—Д–Є–Ї–∞—Ж–Є—П
  6
CONTINUOUS
 62
    1
370
   60
100
AcDbLine
 10
85
 20
30
 11
205
 21
30.00437047154489
  0
LINE
  5
1C0
100
AcDbEntity
  8
—И—В–∞–Љ–њ –Р4 —Б–њ–µ—Ж–Є—Д–Є–Ї–∞—Ж–Є—П
  6
CONTINUOUS
 62
    1
370
   60
100
AcDbLine
 10
155
 20
20
 11
205
 21
20
  0
MTEXT
  5
1C1
100
AcDbEntity
  8
—И—В–∞–Љ–њ –Р4 —Б–њ–µ—Ж–Є—Д–Є–Ї–∞—Ж–Є—П
  6
ByLayer
 62
  256
370
   -1
100
AcDbMText
 10
160.1
 20
28.5043704715449
 30
0
 40
2
 41
5.333333333333426
 71
    1
 72
    1
  1
–Ы–Є—В.
  7
cyrillic_ii
210
0
220
0
230
1
 50
0
 73
    2
 44
1
  0
LINE
  5
1C2
100
AcDbEntity
  8
—И—В–∞–Љ–њ –Р4 —Б–њ–µ—Ж–Є—Д–Є–Ї–∞—Ж–Є—П
  6
CONTINUOUS
 62
    1
370
   60
100
AcDbLine
 10
155
 20
25.00437047154489
 11
205
 21
25.00437047154489
  0
LINE
  5
1C3
100
AcDbEntity
  8
—И—В–∞–Љ–њ –Р4 —Б–њ–µ—Ж–Є—Д–Є–Ї–∞—Ж–Є—П
  6
CONTINUOUS
 62
    5
370
   20
100
AcDbLine
 10
165
 20
20
 11
165
 21
25.00437047154489
  0
LINE
  5
1C4
100
AcDbEntity
  8
—И—В–∞–Љ–њ –Р4 —Б–њ–µ—Ж–Є—Д–Є–Ї–∞—Ж–Є—П
  6
CONTINUOUS
 62
    5
370
   20
100
AcDbLine
 10
160
 20
20
 11
160
 21
25
  0
LINE
  5
1C5
100
AcDbEntity
  8
—И—В–∞–Љ–њ –Р4 —Б–њ–µ—Ж–Є—Д–Є–Ї–∞—Ж–Є—П
  6
CONTINUOUS
 62
    1
370
   60
100
AcDbLine
 10
187
 20
20
 11
187
 21
30
  0
LINE
  5
1C6
100
AcDbEntity
  8
—И—В–∞–Љ–њ –Р4 —Б–њ–µ—Ж–Є—Д–Є–Ї–∞—Ж–Є—П
  6
CONTINUOUS
 62
    1
370
   60
100
AcDbLine
 10
170
 20
20
 11
170
 21
30
  0
MTEXT
  5
1C7
100
AcDbEntity
  8
—И—В–∞–Љ–њ –Р4 —Б–њ–µ—Ж–Є—Д–Є–Ї–∞—Ж–Є—П
  6
ByLayer
 62
  256
370
   -1
100
AcDbMText
 10
191.5
 20
28.5
 30
0
 40
2
 41
9.111111111111205
 71
    1
 72
    1
  1
–Ы–Є—Б—В–Њ–≤
  7
cyrillic_ii
210
0
220
0
230
1
 50
0
 73
    2
 44
1
  0
MTEXT
  5
1C8
100
AcDbEntity
  8
—И—В–∞–Љ–њ –Р4 —Б–њ–µ—Ж–Є—Д–Є–Ї–∞—Ж–Є—П
  6
ByLayer
 62
  256
370
   -1
100
AcDbMText
 10
175.5
 20
28.5
 30
0
 40
2
 41
6.000000000000092
 71
    1
 72
    1
  1
–Ы–Є—Б—В
  7
cyrillic_ii
210
0
220
0
230
1
 50
0
 73
    2
 44
1
  0
LINE
  5
1C9
100
AcDbEntity
  8
—И—В–∞–Љ–њ –Р4 —Б–њ–µ—Ж–Є—Д–Є–Ї–∞—Ж–Є—П
  6
CONTINUOUS
 62
    1
370
   60
100
AcDbLine
 10
155
 20
5
 11
155
 21
30
  0
LINE
  5
1CA
100
AcDbEntity
  8
—И—В–∞–Љ–њ –Р4 —Б–њ–µ—Ж–Є—Д–Є–Ї–∞—Ж–Є—П
  6
CONTINUOUS
 62
    1
370
   25
100
AcDbLine
 10
20
 20
270
 11
205
 21
270
  0
LINE
  5
1CB
100
AcDbEntity
  8
—И—В–∞–Љ–њ –Р4 —Б–њ–µ—Ж–Є—Д–Є–Ї–∞—Ж–Є—П
  6
CONTINUOUS
 62
    1
370
   25
100
AcDbLine
 10
20
 20
262
 11
205
 21
262
  0
LINE
  5
1CC
100
AcDbEntity
  8
—И—В–∞–Љ–њ –Р4 —Б–њ–µ—Ж–Є—Д–Є–Ї–∞—Ж–Є—П
  6
CONTINUOUS
 62
    1
370
   25
100
AcDbLine
 10
20
 20
254
 11
205
 21
254
  0
LINE
  5
1CD
100
AcDbEntity
  8
—И—В–∞–Љ–њ –Р4 —Б–њ–µ—Ж–Є—Д–Є–Ї–∞—Ж–Є—П
  6
CONTINUOUS
 62
    1
370
   25
100
AcDbLine
 10
20
 20
246
 11
205
 21
246
  0
LINE
  5
1CE
100
AcDbEntity
  8
—И—В–∞–Љ–њ –Р4 —Б–њ–µ—Ж–Є—Д–Є–Ї–∞—Ж–Є—П
  6
CONTINUOUS
 62
    1
370
   25
100
AcDbLine
 10
20
 20
238
 11
205
 21
238
  0
LINE
  5
1CF
100
AcDbEntity
  8
—И—В–∞–Љ–њ –Р4 —Б–њ–µ—Ж–Є—Д–Є–Ї–∞—Ж–Є—П
  6
CONTINUOUS
 62
    1
370
   25
100
AcDbLine
 10
20
 20
230
 11
205
 21
230
  0
LINE
  5
1D0
100
AcDbEntity
  8
—И—В–∞–Љ–њ –Р4 —Б–њ–µ—Ж–Є—Д–Є–Ї–∞—Ж–Є—П
  6
CONTINUOUS
 62
    1
370
   25
100
AcDbLine
 10
20
 20
222
 11
205
 21
222
  0
LINE
  5
1D1
100
AcDbEntity
  8
—И—В–∞–Љ–њ –Р4 —Б–њ–µ—Ж–Є—Д–Є–Ї–∞—Ж–Є—П
  6
CONTINUOUS
 62
    1
370
   25
100
AcDbLine
 10
20
 20
214
 11
205
 21
214
  0
LINE
  5
1D2
100
AcDbEntity
  8
—И—В–∞–Љ–њ –Р4 —Б–њ–µ—Ж–Є—Д–Є–Ї–∞—Ж–Є—П
  6
CONTINUOUS
 62
    1
370
   25
100
AcDbLine
 10
20
 20
206
 11
205
 21
206
  0
LINE
  5
1D3
100
AcDbEntity
  8
—И—В–∞–Љ–њ –Р4 —Б–њ–µ—Ж–Є—Д–Є–Ї–∞—Ж–Є—П
  6
CONTINUOUS
 62
    1
370
   25
100
AcDbLine
 10
20
 20
198
 11
205
 21
198
  0
LINE
  5
1D4
100
AcDbEntity
  8
—И—В–∞–Љ–њ –Р4 —Б–њ–µ—Ж–Є—Д–Є–Ї–∞—Ж–Є—П
  6
CONTINUOUS
 62
    1
370
   25
100
AcDbLine
 10
20
 20
190
 11
205
 21
190
  0
LINE
  5
1D5
100
AcDbEntity
  8
—И—В–∞–Љ–њ –Р4 —Б–њ–µ—Ж–Є—Д–Є–Ї–∞—Ж–Є—П
  6
CONTINUOUS
 62
    1
370
   25
100
AcDbLine
 10
20
 20
182
 11
205
 21
182
  0
LINE
  5
1D6
100
AcDbEntity
  8
—И—В–∞–Љ–њ –Р4 —Б–њ–µ—Ж–Є—Д–Є–Ї–∞—Ж–Є—П
  6
CONTINUOUS
 62
    1
370
   25
100
AcDbLine
 10
20
 20
174
 11
205
 21
174
  0
LINE
  5
1D7
100
AcDbEntity
  8
—И—В–∞–Љ–њ –Р4 —Б–њ–µ—Ж–Є—Д–Є–Ї–∞—Ж–Є—П
  6
CONTINUOUS
 62
    1
370
   25
100
AcDbLine
 10
20
 20
166
 11
205
 21
166
  0
LINE
  5
1D8
100
AcDbEntity
  8
—И—В–∞–Љ–њ –Р4 —Б–њ–µ—Ж–Є—Д–Є–Ї–∞—Ж–Є—П
  6
CONTINUOUS
 62
    1
370
   25
100
AcDbLine
 10
20
 20
158
 11
205
 21
158
  0
LINE
  5
1D9
100
AcDbEntity
  8
—И—В–∞–Љ–њ –Р4 —Б–њ–µ—Ж–Є—Д–Є–Ї–∞—Ж–Є—П
  6
CONTINUOUS
 62
    1
370
   25
100
AcDbLine
 10
20
 20
150
 11
205
 21
150
  0
LINE
  5
1DA
100
AcDbEntity
  8
—И—В–∞–Љ–њ –Р4 —Б–њ–µ—Ж–Є—Д–Є–Ї–∞—Ж–Є—П
  6
CONTINUOUS
 62
    1
370
   25
100
AcDbLine
 10
20
 20
142
 11
205
 21
142
  0
LINE
  5
1DB
100
AcDbEntity
  8
—И—В–∞–Љ–њ –Р4 —Б–њ–µ—Ж–Є—Д–Є–Ї–∞—Ж–Є—П
  6
CONTINUOUS
 62
    1
370
   25
100
AcDbLine
 10
20
 20
134
 11
205
 21
134
  0
LINE
  5
1DC
100
AcDbEntity
  8
—И—В–∞–Љ–њ –Р4 —Б–њ–µ—Ж–Є—Д–Є–Ї–∞—Ж–Є—П
  6
CONTINUOUS
 62
    1
370
   25
100
AcDbLine
 10
20
 20
126
 11
205
 21
126
  0
LINE
  5
1DD
100
AcDbEntity
  8
—И—В–∞–Љ–њ –Р4 —Б–њ–µ—Ж–Є—Д–Є–Ї–∞—Ж–Є—П
  6
CONTINUOUS
 62
    1
370
   25
100
AcDbLine
 10
20
 20
118
 11
205
 21
118
  0
LINE
  5
1DE
100
AcDbEntity
  8
—И—В–∞–Љ–њ –Р4 —Б–њ–µ—Ж–Є—Д–Є–Ї–∞—Ж–Є—П
  6
CONTINUOUS
 62
    1
370
   25
100
AcDbLine
 10
20
 20
110
 11
205
 21
110
  0
LINE
  5
1DF
100
AcDbEntity
  8
—И—В–∞–Љ–њ –Р4 —Б–њ–µ—Ж–Є—Д–Є–Ї–∞—Ж–Є—П
  6
CONTINUOUS
 62
    1
370
   25
100
AcDbLine
 10
20
 20
102
 11
205
 21
102
  0
LINE
  5
1E0
100
AcDbEntity
  8
—И—В–∞–Љ–њ –Р4 —Б–њ–µ—Ж–Є—Д–Є–Ї–∞—Ж–Є—П
  6
CONTINUOUS
 62
    1
370
   25
100
AcDbLine
 10
20
 20
94
 11
205
 21
94
  0
LINE
  5
1E1
100
AcDbEntity
  8
—И—В–∞–Љ–њ –Р4 —Б–њ–µ—Ж–Є—Д–Є–Ї–∞—Ж–Є—П
  6
CONTINUOUS
 62
    1
370
   25
100
AcDbLine
 10
20
 20
86
 11
205
 21
86
  0
LINE
  5
1E2
100
AcDbEntity
  8
—И—В–∞–Љ–њ –Р4 —Б–њ–µ—Ж–Є—Д–Є–Ї–∞—Ж–Є—П
  6
CONTINUOUS
 62
    1
370
   25
100
AcDbLine
 10
20
 20
78
 11
205
 21
78
  0
LINE
  5
1E3
100
AcDbEntity
  8
—И—В–∞–Љ–њ –Р4 —Б–њ–µ—Ж–Є—Д–Є–Ї–∞—Ж–Є—П
  6
CONTINUOUS
 62
    1
370
   25
100
AcDbLine
 10
20
 20
70
 11
205
 21
70
  0
LINE
  5
1E4
100
AcDbEntity
  8
—И—В–∞–Љ–њ –Р4 —Б–њ–µ—Ж–Є—Д–Є–Ї–∞—Ж–Є—П
  6
CONTINUOUS
 62
    1
370
   25
100
AcDbLine
 10
20
 20
62
 11
205
 21
62
  0
LINE
  5
1E5
100
AcDbEntity
  8
—И—В–∞–Љ–њ –Р4 —Б–њ–µ—Ж–Є—Д–Є–Ї–∞—Ж–Є—П
  6
CONTINUOUS
 62
    1
370
   25
100
AcDbLine
 10
20
 20
54
 11
205
 21
54
  0
LINE
  5
1E6
100
AcDbEntity
  8
—И—В–∞–Љ–њ –Р4 —Б–њ–µ—Ж–Є—Д–Є–Ї–∞—Ж–Є—П
  6
CONTINUOUS
 62
    1
370
   60
100
AcDbLine
 10
20
 20
278
 11
205
 21
278
  0
LINE
  5
1E7
100
AcDbEntity
  8
—И—В–∞–Љ–њ –Р4 —Б–њ–µ—Ж–Є—Д–Є–Ї–∞—Ж–Є—П
  6
ByLayer
 62
    1
370
   60
100
AcDbLine
 10
26.01560630250761
 20
292
 11
26
 21
45
  0
LINE
  5
1E8
100
AcDbEntity
  8
—И—В–∞–Љ–њ –Р4 —Б–њ–µ—Ж–Є—Д–Є–Ї–∞—Ж–Є—П
  6
ByLayer
 62
    1
370
   60
100
AcDbLine
 10
32
 20
292
 11
32
 21
45
  0
LINE
  5
1E9
100
AcDbEntity
  8
—И—В–∞–Љ–њ –Р4 —Б–њ–µ—Ж–Є—Д–Є–Ї–∞—Ж–Є—П
  6
ByLayer
 62
    1
370
   60
100
AcDbLine
 10
40
 20
45
 11
40
 21
292
  0
LINE
  5
1EA
100
AcDbEntity
  8
—И—В–∞–Љ–њ –Р4 —Б–њ–µ—Ж–Є—Д–Є–Ї–∞—Ж–Є—П
  6
ByLayer
 62
    1
370
   60
100
AcDbLine
 10
110
 20
45
 11
110
 21
292
  0
LINE
  5
1EB
100
AcDbEntity
  8
—И—В–∞–Љ–њ –Р4 —Б–њ–µ—Ж–Є—Д–Є–Ї–∞—Ж–Є—П
  6
ByLayer
 62
    1
370
   60
100
AcDbLine
 10
173
 20
292
 11
173
 21
45
  0
LINE
  5
1EC
100
AcDbEntity
  8
—И—В–∞–Љ–њ –Р4 —Б–њ–µ—Ж–Є—Д–Є–Ї–∞—Ж–Є—П
  6
ByLayer
 62
    1
370
   60
100
AcDbLine
 10
183
 20
292
 11
183
 21
45
  0
MTEXT
  5
1ED
100
AcDbEntity
  8
—И—В–∞–Љ–њ –Р4 —Б–њ–µ—Ж–Є—Д–Є–Ї–∞—Ж–Є—П
  6
ByLayer
 62
  256
370
   -1
100
AcDbMText
 10
184
 20
287
 30
0
 40
4
 41
19.55555555555555
 71
    1
 72
    1
  1
–Я—А–Є–Љ–µ—З.
  7
cyrillic_ii
210
0
220
0
230
1
 50
0
 73
    2
 44
1
  0
MTEXT
  5
1EE
100
AcDbEntity
  8
—И—В–∞–Љ–њ –Р4 —Б–њ–µ—Ж–Є—Д–Є–Ї–∞—Ж–Є—П
  6
ByLayer
 62
  256
370
   -1
100
AcDbMText
 10
123
 20
287
 30
0
 40
4
 41
38.22222222222222
 71
    1
 72
    1
  1
–Э–∞–Є–Љ–µ–љ–Є–≤–∞–љ–Є–µ
  7
cyrillic_ii
210
0
220
0
230
1
 50
0
 73
    2
 44
1
  0
MTEXT
  5
1EF
100
AcDbEntity
  8
—И—В–∞–Љ–њ –Р4 —Б–њ–µ—Ж–Є—Д–Є–Ї–∞—Ж–Є—П
  6
ByLayer
 62
  256
370
   -1
100
AcDbMText
 10
58
 20
287
 30
0
 40
4
 41
34.66666666666666
 71
    1
 72
    1
  1
–Ю–±–Њ–Ј–љ–∞—З–∞–љ–Є–µ
  7
cyrillic_ii
210
0
220
0
230
1
 50
0
 73
    2
 44
1
  0
MTEXT
  5
1F0
100
AcDbEntity
  8
—И—В–∞–Љ–њ –Р4 —Б–њ–µ—Ж–Є—Д–Є–Ї–∞—Ж–Є—П
  6
ByLayer
 62
  256
370
   -1
100
AcDbMText
 10
27
 20
279
 30
0
 40
4
 41
12.12844444444444
 71
    1
 72
    1
  1
–Ч–Њ–љ–∞
  7
cyrillic_ii
210
0
220
0
230
1
 50
90
 73
    2
 44
1
  0
MTEXT
  5
1F1
100
AcDbEntity
  8
—И—В–∞–Љ–њ –Р4 —Б–њ–µ—Ж–Є—Д–Є–Ї–∞—Ж–Є—П
  6
ByLayer
 62
  256
370
   -1
100
AcDbMText
 10
21
 20
279
 30
0
 40
4
 41
12.44444444444444
 71
    1
 72
    1
  1
–§–Њ—А–Љ
  7
cyrillic_ii
210
0
220
0
230
1
 50
90
 73
    2
 44
1
  0
MTEXT
  5
1F2
100
AcDbEntity
  8
—И—В–∞–Љ–њ –Р4 —Б–њ–µ—Ж–Є—Д–Є–Ї–∞—Ж–Є—П
  6
ByLayer
 62
  256
370
   -1
100
AcDbMText
 10
34
 20
280
 30
0
 40
4
 41
9.777777777777777
 71
    1
 72
    1
  1
–Я–Њ–Ј.
  7
cyrillic_ii
210
0
220
0
230
1
 50
90
 73
    2
 44
1
  0
MTEXT
  5
1F3
100
AcDbEntity
  8
—И—В–∞–Љ–њ –Р4 —Б–њ–µ—Ж–Є—Д–Є–Ї–∞—Ж–Є—П
  6
ByLayer
 62
  256
370
   25
100
AcDbMText
 10
173.8
 20
287
 30
0
 40
4
 41
8.444444444444443
 71
    1
 72
    1
  1
–Ъ–Њ–ї
  7
cyrillic_ii
210
0
220
0
230
1
 50
0
 73
    2
 44
1
  0
ENDBLK
  5
AB
330
A9
100
AcDbEntity
  8
0
100
AcDbBlockEnd
  0
BLOCK
  5
AD
330
AC
100
AcDbEntity
  8
0
100
AcDbBlockBegin
  2
—И—В–∞–Љ–њ –Р4 –≤—Л–њ–Њ–ї–љ–µ–љ–Є–µ —А–∞–±–Њ—В
 70
    0
 10
0
 20
0
  3
—И—В–∞–Љ–њ –Р4 –≤—Л–њ–Њ–ї–љ–µ–љ–Є–µ —А–∞–±–Њ—В
  1

  0
LINE
  5
1F4
100
AcDbEntity
  8
05. –≤—Л–њ–Њ–ї–љ–µ–љ–Є–µ —А–∞–±–Њ—В
  6
CONTINUOUS
 62
    5
370
   20
100
AcDbLine
 10
210
 20
297
 11
210
 21
0
  0
LINE
  5
1F5
100
AcDbEntity
  8
05. –≤—Л–њ–Њ–ї–љ–µ–љ–Є–µ —А–∞–±–Њ—В
  6
CONTINUOUS
 62
    5
370
   20
100
AcDbLine
 10
0
 20
0
 11
0
 21
297
  0
LINE
  5
1F6
100
AcDbEntity
  8
05. –≤—Л–њ–Њ–ї–љ–µ–љ–Є–µ —А–∞–±–Њ—В
  6
CONTINUOUS
 62
    5
370
   20
100
AcDbLine
 10
0
 20
0
 11
210
 21
0
  0
LINE
  5
1F7
100
AcDbEntity
  8
05. –≤—Л–њ–Њ–ї–љ–µ–љ–Є–µ —А–∞–±–Њ—В
  6
CONTINUOUS
 62
    5
370
   20
100
AcDbLine
 10
0
 20
297
 11
210
 21
297
  0
LINE
  5
1F8
100
AcDbEntity
  8
05. –≤—Л–њ–Њ–ї–љ–µ–љ–Є–µ —А–∞–±–Њ—В
  6
CONTINUOUS
 62
    1
370
   60
100
AcDbLine
 10
20
 20
5
 11
205
 21
5
  0
LINE
  5
1F9
100
AcDbEntity
  8
05. –≤—Л–њ–Њ–ї–љ–µ–љ–Є–µ —А–∞–±–Њ—В
  6
CONTINUOUS
 62
    1
370
   60
100
AcDbLine
 10
20
 20
292
 11
205
 21
292
  0
LINE
  5
1FA
100
AcDbEntity
  8
05. –≤—Л–њ–Њ–ї–љ–µ–љ–Є–µ —А–∞–±–Њ—В
  6
CONTINUOUS
 62
    1
370
   60
100
AcDbLine
 10
205
 20
292
 11
205
 21
5
  0
LINE
  5
1FB
100
AcDbEntity
  8
05. –≤—Л–њ–Њ–ї–љ–µ–љ–Є–µ —А–∞–±–Њ—В
  6
CONTINUOUS
 62
    1
370
   60
100
AcDbLine
 10
20
 20
5
 11
20
 21
292
  0
LINE
  5
1FC
100
AcDbEntity
  8
05. –≤—Л–њ–Њ–ї–љ–µ–љ–Є–µ —А–∞–±–Њ—В
  6
CONTINUOUS
 62
    5
370
   20
100
AcDbLine
 10
20
 20
25
 11
85
 21
25
  0
LINE
  5
1FD
100
AcDbEntity
  8
05. –≤—Л–њ–Њ–ї–љ–µ–љ–Є–µ —А–∞–±–Њ—В
  6
CONTINUOUS
 62
    5
370
   20
100
AcDbLine
 10
20
 20
20
 11
85
 21
20
  0
LINE
  5
1FE
100
AcDbEntity
  8
05. –≤—Л–њ–Њ–ї–љ–µ–љ–Є–µ —А–∞–±–Њ—В
  6
CONTINUOUS
 62
    5
370
   20
100
AcDbLine
 10
20
 20
15
 11
85
 21
15
  0
LINE
  5
1FF
100
AcDbEntity
  8
05. –≤—Л–њ–Њ–ї–љ–µ–љ–Є–µ —А–∞–±–Њ—В
  6
CONTINUOUS
 62
    5
370
   20
100
AcDbLine
 10
20
 20
10
 11
85
 21
10
  0
LINE
  5
200
100
AcDbEntity
  8
05. –≤—Л–њ–Њ–ї–љ–µ–љ–Є–µ —А–∞–±–Њ—В
  6
CONTINUOUS
 62
    1
370
   60
100
AcDbLine
 10
20
 20
5
 11
205
 21
5
  0
LINE
  5
201
100
AcDbEntity
  8
05. –≤—Л–њ–Њ–ї–љ–µ–љ–Є–µ —А–∞–±–Њ—В
  6
CONTINUOUS
 62
    1
370
   60
100
AcDbLine
 10
20
 20
5.000000253502606
 11
20
 21
60.00000025350261
  0
MTEXT
  5
202
100
AcDbEntity
  8
05. –≤—Л–њ–Њ–ї–љ–µ–љ–Є–µ —А–∞–±–Њ—В
  6
ByLayer
 62
  256
370
   -1
100
AcDbMText
 10
22
 20
28.00000000000001
 30
0
 40
2
 41
10.22222222222222
 71
    1
 72
    1
  1
–†–∞–Ј—А–∞–±.
  7
cyrillic_ii
210
0
220
0
230
1
 50
0
 73
    2
 44
1
  0
MTEXT
  5
203
100
AcDbEntity
  8
05. –≤—Л–њ–Њ–ї–љ–µ–љ–Є–µ —А–∞–±–Њ—В
  6
ByLayer
 62
  256
370
   -1
100
AcDbMText
 10
22
 20
23
 30
0
 40
2
 41
6.444444444444444
 71
    1
 72
    1
  1
–Я—А–Њ–≤.
  7
cyrillic_ii
210
0
220
0
230
1
 50
0
 73
    2
 44
1
  0
MTEXT
  5
204
100
AcDbEntity
  8
05. –≤—Л–њ–Њ–ї–љ–µ–љ–Є–µ —А–∞–±–Њ—В
  6
ByLayer
 62
  256
370
   -1
100
AcDbMText
 10
22
 20
18
 30
0
 40
2
 41
10.88888888888898
 71
    1
 72
    1
  1
–Ґ.–Ї–Њ–љ—В—А.
  7
cyrillic_ii
210
0
220
0
230
1
 50
0
 73
    2
 44
1
  0
MTEXT
  5
205
100
AcDbEntity
  8
05. –≤—Л–њ–Њ–ї–љ–µ–љ–Є–µ —А–∞–±–Њ—В
  6
ByLayer
 62
  256
370
   -1
100
AcDbMText
 10
22
 20
8
 30
0
 40
2
 41
12.16666666666676
 71
    1
 72
    1
  1
–Э. –Ї–Њ–љ—В—А.
  7
cyrillic_ii
210
0
220
0
230
1
 50
0
 73
    2
 44
1
  0
MTEXT
  5
206
100
AcDbEntity
  8
05. –≤—Л–њ–Њ–ї–љ–µ–љ–Є–µ —А–∞–±–Њ—В
  6
ByLayer
 62
  256
370
   -1
100
AcDbMText
 10
29
 20
33.5
 30
0
 40
2
 41
6.000000000000092
 71
    1
 72
    1
  1
–Ы–Є—Б—В
  7
cyrillic_ii
210
0
220
0
230
1
 50
0
 73
    2
 44
1
  0
MTEXT
  5
207
100
AcDbEntity
  8
05. –≤—Л–њ–Њ–ї–љ–µ–љ–Є–µ —А–∞–±–Њ—В
  6
ByLayer
 62
  256
370
   -1
100
AcDbMText
 10
62.39999999999998
 20
33.5
 30
0
 40
2
 41
10.22222222222232
 71
    1
 72
    1
  1
–Я–Њ–і–њ–Є—Б—М
  7
cyrillic_ii
210
0
220
0
230
1
 50
0
 73
    2
 44
1
  0
MTEXT
  5
208
100
AcDbEntity
  8
05. –≤—Л–њ–Њ–ї–љ–µ–љ–Є–µ —А–∞–±–Њ—В
  6
ByLayer
 62
  256
370
   -1
100
AcDbMText
 10
39.70000000000005
 20
33.5
 30
0
 40
2
 41
17.6111111111112
 71
    1
 72
    1
  1
N –і–Њ–Ї—Г–Љ–µ–љ—В–∞
  7
cyrillic_ii
210
0
220
0
230
1
 50
0
 73
    2
 44
1
  0
MTEXT
  5
209
100
AcDbEntity
  8
05. –≤—Л–њ–Њ–ї–љ–µ–љ–Є–µ —А–∞–±–Њ—В
  6
ByLayer
 62
  256
370
   -1
100
AcDbMText
 10
21.29999999999995
 20
33.5
 30
0
 40
2
 41
4.444444444444444
 71
    1
 72
    1
  1
–Ш–Ј–Љ
  7
cyrillic_ii
210
0
220
0
230
1
 50
0
 73
    2
 44
1
  0
MTEXT
  5
20A
100
AcDbEntity
  8
05. –≤—Л–њ–Њ–ї–љ–µ–љ–Є–µ —А–∞–±–Њ—В
  6
ByLayer
 62
  256
370
   -1
100
AcDbMText
 10
76.5
 20
33.5
 30
0
 40
2
 41
7.111111111111204
 71
    1
 72
    1
  1
–Ф–∞—В–∞
  7
cyrillic_ii
210
0
220
0
230
1
 50
0
 73
    2
 44
1
  0
LINE
  5
20B
100
AcDbEntity
  8
05. –≤—Л–њ–Њ–ї–љ–µ–љ–Є–µ —А–∞–±–Њ—В
  6
CONTINUOUS
 62
    5
370
   20
100
AcDbLine
 10
20
 20
40
 11
85
 21
40
  0
LINE
  5
20C
100
AcDbEntity
  8
05. –≤—Л–њ–Њ–ї–љ–µ–љ–Є–µ —А–∞–±–Њ—В
  6
CONTINUOUS
 62
    1
370
   60
100
AcDbLine
 10
20
 20
35
 11
85
 21
35
  0
LINE
  5
20D
100
AcDbEntity
  8
05. –≤—Л–њ–Њ–ї–љ–µ–љ–Є–µ —А–∞–±–Њ—В
  6
CONTINUOUS
 62
    1
370
   60
100
AcDbLine
 10
20
 20
30
 11
85
 21
30
  0
LINE
  5
20E
100
AcDbEntity
  8
05. –≤—Л–њ–Њ–ї–љ–µ–љ–Є–µ —А–∞–±–Њ—В
  6
CONTINUOUS
 62
    1
370
   60
100
AcDbLine
 10
20
 20
45
 11
205
 21
45
  0
LINE
  5
20F
100
AcDbEntity
  8
05. –≤—Л–њ–Њ–ї–љ–µ–љ–Є–µ —А–∞–±–Њ—В
  6
CONTINUOUS
 62
    1
370
   60
100
AcDbLine
 10
85
 20
5
 11
85
 21
45
  0
LINE
  5
210
100
AcDbEntity
  8
05. –≤—Л–њ–Њ–ї–љ–µ–љ–Є–µ —А–∞–±–Њ—В
  6
CONTINUOUS
 62
    1
370
   60
100
AcDbLine
 10
75
 20
5
 11
75
 21
45
  0
LINE
  5
211
100
AcDbEntity
  8
05. –≤—Л–њ–Њ–ї–љ–µ–љ–Є–µ —А–∞–±–Њ—В
  6
CONTINUOUS
 62
    1
370
   60
100
AcDbLine
 10
60
 20
5
 11
60
 21
45
  0
LINE
  5
212
100
AcDbEntity
  8
05. –≤—Л–њ–Њ–ї–љ–µ–љ–Є–µ —А–∞–±–Њ—В
  6
CONTINUOUS
 62
    1
370
   60
100
AcDbLine
 10
37
 20
5
 11
37
 21
45
  0
LINE
  5
213
100
AcDbEntity
  8
05. –≤—Л–њ–Њ–ї–љ–µ–љ–Є–µ —А–∞–±–Њ—В
  6
CONTINUOUS
 62
    1
370
   60
100
AcDbLine
 10
27
 20
35
 11
27
 21
45
  0
LINE
  5
214
100
AcDbEntity
  8
05. –≤—Л–њ–Њ–ї–љ–µ–љ–Є–µ —А–∞–±–Њ—В
  6
CONTINUOUS
 62
    1
370
   60
100
AcDbLine
 10
85
 20
30
 11
205
 21
30.00437047154489
  0
LINE
  5
215
100
AcDbEntity
  8
05. –≤—Л–њ–Њ–ї–љ–µ–љ–Є–µ —А–∞–±–Њ—В
  6
CONTINUOUS
 62
    1
370
   60
100
AcDbLine
 10
155
 20
20
 11
205
 21
20
  0
MTEXT
  5
216
100
AcDbEntity
  8
05. –≤—Л–њ–Њ–ї–љ–µ–љ–Є–µ —А–∞–±–Њ—В
  6
ByLayer
 62
  256
370
   -1
100
AcDbMText
 10
160.1
 20
28.5043704715449
 30
0
 40
2
 41
5.333333333333426
 71
    1
 72
    1
  1
–Ы–Є—В.
  7
cyrillic_ii
210
0
220
0
230
1
 50
0
 73
    2
 44
1
  0
LINE
  5
217
100
AcDbEntity
  8
05. –≤—Л–њ–Њ–ї–љ–µ–љ–Є–µ —А–∞–±–Њ—В
  6
CONTINUOUS
 62
    1
370
   60
100
AcDbLine
 10
155
 20
25.00437047154489
 11
205
 21
25.00437047154489
  0
LINE
  5
218
100
AcDbEntity
  8
05. –≤—Л–њ–Њ–ї–љ–µ–љ–Є–µ —А–∞–±–Њ—В
  6
CONTINUOUS
 62
    5
370
   20
100
AcDbLine
 10
165
 20
20
 11
165
 21
25.00437047154489
  0
LINE
  5
219
100
AcDbEntity
  8
05. –≤—Л–њ–Њ–ї–љ–µ–љ–Є–µ —А–∞–±–Њ—В
  6
CONTINUOUS
 62
    5
370
   20
100
AcDbLine
 10
160
 20
20
 11
160
 21
25
  0
LINE
  5
21A
100
AcDbEntity
  8
05. –≤—Л–њ–Њ–ї–љ–µ–љ–Є–µ —А–∞–±–Њ—В
  6
CONTINUOUS
 62
    1
370
   60
100
AcDbLine
 10
187
 20
20
 11
187
 21
30
  0
LINE
  5
21B
100
AcDbEntity
  8
05. –≤—Л–њ–Њ–ї–љ–µ–љ–Є–µ —А–∞–±–Њ—В
  6
CONTINUOUS
 62
    1
370
   60
100
AcDbLine
 10
170
 20
20
 11
170
 21
30
  0
MTEXT
  5
21C
100
AcDbEntity
  8
05. –≤—Л–њ–Њ–ї–љ–µ–љ–Є–µ —А–∞–±–Њ—В
  6
ByLayer
 62
  256
370
   -1
100
AcDbMText
 10
191.5
 20
28.5
 30
0
 40
2
 41
9.111111111111205
 71
    1
 72
    1
  1
–Ы–Є—Б—В–Њ–≤
  7
cyrillic_ii
210
0
220
0
230
1
 50
0
 73
    2
 44
1
  0
MTEXT
  5
21D
100
AcDbEntity
  8
05. –≤—Л–њ–Њ–ї–љ–µ–љ–Є–µ —А–∞–±–Њ—В
  6
ByLayer
 62
  256
370
   -1
100
AcDbMText
 10
175.5
 20
28.5
 30
0
 40
2
 41
6.000000000000092
 71
    1
 72
    1
  1
–Ы–Є—Б—В
  7
cyrillic_ii
210
0
220
0
230
1
 50
0
 73
    2
 44
1
  0
LINE
  5
21E
100
AcDbEntity
  8
05. –≤—Л–њ–Њ–ї–љ–µ–љ–Є–µ —А–∞–±–Њ—В
  6
CONTINUOUS
 62
    1
370
   60
100
AcDbLine
 10
155
 20
5
 11
155
 21
30
  0
LINE
  5
21F
100
AcDbEntity
  8
05. –≤—Л–њ–Њ–ї–љ–µ–љ–Є–µ —А–∞–±–Њ—В
  6
CONTINUOUS
 62
    1
370
   25
100
AcDbLine
 10
20
 20
270
 11
205
 21
270
  0
LINE
  5
220
100
AcDbEntity
  8
05. –≤—Л–њ–Њ–ї–љ–µ–љ–Є–µ —А–∞–±–Њ—В
  6
CONTINUOUS
 62
    1
370
   25
100
AcDbLine
 10
20
 20
262
 11
205
 21
262
  0
LINE
  5
221
100
AcDbEntity
  8
05. –≤—Л–њ–Њ–ї–љ–µ–љ–Є–µ —А–∞–±–Њ—В
  6
CONTINUOUS
 62
    1
370
   25
100
AcDbLine
 10
20
 20
254
 11
205
 21
254
  0
LINE
  5
222
100
AcDbEntity
  8
05. –≤—Л–њ–Њ–ї–љ–µ–љ–Є–µ —А–∞–±–Њ—В
  6
CONTINUOUS
 62
    1
370
   25
100
AcDbLine
 10
20
 20
246
 11
205
 21
246
  0
LINE
  5
223
100
AcDbEntity
  8
05. –≤—Л–њ–Њ–ї–љ–µ–љ–Є–µ —А–∞–±–Њ—В
  6
CONTINUOUS
 62
    1
370
   25
100
AcDbLine
 10
20
 20
238
 11
205
 21
238
  0
LINE
  5
224
100
AcDbEntity
  8
05. –≤—Л–њ–Њ–ї–љ–µ–љ–Є–µ —А–∞–±–Њ—В
  6
CONTINUOUS
 62
    1
370
   25
100
AcDbLine
 10
20
 20
230
 11
205
 21
230
  0
LINE
  5
225
100
AcDbEntity
  8
05. –≤—Л–њ–Њ–ї–љ–µ–љ–Є–µ —А–∞–±–Њ—В
  6
CONTINUOUS
 62
    1
370
   25
100
AcDbLine
 10
20
 20
222
 11
205
 21
222
  0
LINE
  5
226
100
AcDbEntity
  8
05. –≤—Л–њ–Њ–ї–љ–µ–љ–Є–µ —А–∞–±–Њ—В
  6
CONTINUOUS
 62
    1
370
   25
100
AcDbLine
 10
20
 20
214
 11
205
 21
214
  0
LINE
  5
227
100
AcDbEntity
  8
05. –≤—Л–њ–Њ–ї–љ–µ–љ–Є–µ —А–∞–±–Њ—В
  6
CONTINUOUS
 62
    1
370
   25
100
AcDbLine
 10
20
 20
206
 11
205
 21
206
  0
LINE
  5
228
100
AcDbEntity
  8
05. –≤—Л–њ–Њ–ї–љ–µ–љ–Є–µ —А–∞–±–Њ—В
  6
CONTINUOUS
 62
    1
370
   25
100
AcDbLine
 10
20
 20
198
 11
205
 21
198
  0
LINE
  5
229
100
AcDbEntity
  8
05. –≤—Л–њ–Њ–ї–љ–µ–љ–Є–µ —А–∞–±–Њ—В
  6
CONTINUOUS
 62
    1
370
   25
100
AcDbLine
 10
20
 20
190
 11
205
 21
190
  0
LINE
  5
22A
100
AcDbEntity
  8
05. –≤—Л–њ–Њ–ї–љ–µ–љ–Є–µ —А–∞–±–Њ—В
  6
CONTINUOUS
 62
    1
370
   25
100
AcDbLine
 10
20
 20
182
 11
205
 21
182
  0
LINE
  5
22B
100
AcDbEntity
  8
05. –≤—Л–њ–Њ–ї–љ–µ–љ–Є–µ —А–∞–±–Њ—В
  6
CONTINUOUS
 62
    1
370
   25
100
AcDbLine
 10
20
 20
174
 11
205
 21
174
  0
LINE
  5
22C
100
AcDbEntity
  8
05. –≤—Л–њ–Њ–ї–љ–µ–љ–Є–µ —А–∞–±–Њ—В
  6
CONTINUOUS
 62
    1
370
   25
100
AcDbLine
 10
20
 20
166
 11
205
 21
166
  0
LINE
  5
22D
100
AcDbEntity
  8
05. –≤—Л–њ–Њ–ї–љ–µ–љ–Є–µ —А–∞–±–Њ—В
  6
CONTINUOUS
 62
    1
370
   25
100
AcDbLine
 10
20
 20
158
 11
205
 21
158
  0
LINE
  5
22E
100
AcDbEntity
  8
05. –≤—Л–њ–Њ–ї–љ–µ–љ–Є–µ —А–∞–±–Њ—В
  6
CONTINUOUS
 62
    1
370
   25
100
AcDbLine
 10
20
 20
150
 11
205
 21
150
  0
LINE
  5
22F
100
AcDbEntity
  8
05. –≤—Л–њ–Њ–ї–љ–µ–љ–Є–µ —А–∞–±–Њ—В
  6
CONTINUOUS
 62
    1
370
   25
100
AcDbLine
 10
20
 20
142
 11
205
 21
142
  0
LINE
  5
230
100
AcDbEntity
  8
05. –≤—Л–њ–Њ–ї–љ–µ–љ–Є–µ —А–∞–±–Њ—В
  6
CONTINUOUS
 62
    1
370
   25
100
AcDbLine
 10
20
 20
134
 11
205
 21
134
  0
LINE
  5
231
100
AcDbEntity
  8
05. –≤—Л–њ–Њ–ї–љ–µ–љ–Є–µ —А–∞–±–Њ—В
  6
CONTINUOUS
 62
    1
370
   25
100
AcDbLine
 10
20
 20
126
 11
205
 21
126
  0
LINE
  5
232
100
AcDbEntity
  8
05. –≤—Л–њ–Њ–ї–љ–µ–љ–Є–µ —А–∞–±–Њ—В
  6
CONTINUOUS
 62
    1
370
   25
100
AcDbLine
 10
20
 20
118
 11
205
 21
118
  0
LINE
  5
233
100
AcDbEntity
  8
05. –≤—Л–њ–Њ–ї–љ–µ–љ–Є–µ —А–∞–±–Њ—В
  6
CONTINUOUS
 62
    1
370
   25
100
AcDbLine
 10
20
 20
110
 11
205
 21
110
  0
LINE
  5
234
100
AcDbEntity
  8
05. –≤—Л–њ–Њ–ї–љ–µ–љ–Є–µ —А–∞–±–Њ—В
  6
CONTINUOUS
 62
    1
370
   25
100
AcDbLine
 10
20
 20
102
 11
205
 21
102
  0
LINE
  5
235
100
AcDbEntity
  8
05. –≤—Л–њ–Њ–ї–љ–µ–љ–Є–µ —А–∞–±–Њ—В
  6
CONTINUOUS
 62
    1
370
   25
100
AcDbLine
 10
20
 20
94
 11
205
 21
94
  0
LINE
  5
236
100
AcDbEntity
  8
05. –≤—Л–њ–Њ–ї–љ–µ–љ–Є–µ —А–∞–±–Њ—В
  6
CONTINUOUS
 62
    1
370
   25
100
AcDbLine
 10
20
 20
86
 11
205
 21
86
  0
LINE
  5
237
100
AcDbEntity
  8
05. –≤—Л–њ–Њ–ї–љ–µ–љ–Є–µ —А–∞–±–Њ—В
  6
CONTINUOUS
 62
    1
370
   25
100
AcDbLine
 10
20
 20
78
 11
205
 21
78
  0
LINE
  5
238
100
AcDbEntity
  8
05. –≤—Л–њ–Њ–ї–љ–µ–љ–Є–µ —А–∞–±–Њ—В
  6
CONTINUOUS
 62
    1
370
   25
100
AcDbLine
 10
20
 20
70
 11
205
 21
70
  0
LINE
  5
239
100
AcDbEntity
  8
05. –≤—Л–њ–Њ–ї–љ–µ–љ–Є–µ —А–∞–±–Њ—В
  6
CONTINUOUS
 62
    1
370
   25
100
AcDbLine
 10
20
 20
62
 11
205
 21
62
  0
LINE
  5
23A
100
AcDbEntity
  8
05. –≤—Л–њ–Њ–ї–љ–µ–љ–Є–µ —А–∞–±–Њ—В
  6
CONTINUOUS
 62
    1
370
   25
100
AcDbLine
 10
20
 20
54
 11
205
 21
54
  0
LINE
  5
23B
100
AcDbEntity
  8
05. –≤—Л–њ–Њ–ї–љ–µ–љ–Є–µ —А–∞–±–Њ—В
  6
CONTINUOUS
 62
    1
370
   60
100
AcDbLine
 10
20
 20
278
 11
205
 21
278
  0
LINE
  5
23C
100
AcDbEntity
  8
05. –≤—Л–њ–Њ–ї–љ–µ–љ–Є–µ —А–∞–±–Њ—В
  6
CONTINUOUS
 62
    5
370
   20
100
AcDbLine
 10
210
 20
297
 11
210
 21
0
  0
LINE
  5
23D
100
AcDbEntity
  8
05. –≤—Л–њ–Њ–ї–љ–µ–љ–Є–µ —А–∞–±–Њ—В
  6
CONTINUOUS
 62
    5
370
   20
100
AcDbLine
 10
0
 20
0
 11
0
 21
297
  0
LINE
  5
23E
100
AcDbEntity
  8
05. –≤—Л–њ–Њ–ї–љ–µ–љ–Є–µ —А–∞–±–Њ—В
  6
CONTINUOUS
 62
    5
370
   20
100
AcDbLine
 10
0
 20
0
 11
210
 21
0
  0
LINE
  5
23F
100
AcDbEntity
  8
05. –≤—Л–њ–Њ–ї–љ–µ–љ–Є–µ —А–∞–±–Њ—В
  6
CONTINUOUS
 62
    5
370
   20
100
AcDbLine
 10
0
 20
297
 11
210
 21
297
  0
LINE
  5
240
100
AcDbEntity
  8
05. –≤—Л–њ–Њ–ї–љ–µ–љ–Є–µ —А–∞–±–Њ—В
  6
CONTINUOUS
 62
    1
370
   60
100
AcDbLine
 10
20
 20
5
 11
205
 21
5
  0
LINE
  5
241
100
AcDbEntity
  8
05. –≤—Л–њ–Њ–ї–љ–µ–љ–Є–µ —А–∞–±–Њ—В
  6
CONTINUOUS
 62
    1
370
   60
100
AcDbLine
 10
20
 20
292
 11
205
 21
292
  0
LINE
  5
242
100
AcDbEntity
  8
05. –≤—Л–њ–Њ–ї–љ–µ–љ–Є–µ —А–∞–±–Њ—В
  6
CONTINUOUS
 62
    1
370
   60
100
AcDbLine
 10
205
 20
292
 11
205
 21
5
  0
LINE
  5
243
100
AcDbEntity
  8
05. –≤—Л–њ–Њ–ї–љ–µ–љ–Є–µ —А–∞–±–Њ—В
  6
CONTINUOUS
 62
    1
370
   60
100
AcDbLine
 10
20
 20
5
 11
20
 21
292
  0
LINE
  5
244
100
AcDbEntity
  8
05. –≤—Л–њ–Њ–ї–љ–µ–љ–Є–µ —А–∞–±–Њ—В
  6
CONTINUOUS
 62
    5
370
   20
100
AcDbLine
 10
20
 20
25
 11
85
 21
25
  0
LINE
  5
245
100
AcDbEntity
  8
05. –≤—Л–њ–Њ–ї–љ–µ–љ–Є–µ —А–∞–±–Њ—В
  6
CONTINUOUS
 62
    5
370
   20
100
AcDbLine
 10
20
 20
20
 11
85
 21
20
  0
LINE
  5
246
100
AcDbEntity
  8
05. –≤—Л–њ–Њ–ї–љ–µ–љ–Є–µ —А–∞–±–Њ—В
  6
CONTINUOUS
 62
    5
370
   20
100
AcDbLine
 10
20
 20
15
 11
85
 21
15
  0
LINE
  5
247
100
AcDbEntity
  8
05. –≤—Л–њ–Њ–ї–љ–µ–љ–Є–µ —А–∞–±–Њ—В
  6
CONTINUOUS
 62
    5
370
   20
100
AcDbLine
 10
20
 20
10
 11
85
 21
10
  0
LINE
  5
248
100
AcDbEntity
  8
05. –≤—Л–њ–Њ–ї–љ–µ–љ–Є–µ —А–∞–±–Њ—В
  6
CONTINUOUS
 62
    1
370
   60
100
AcDbLine
 10
20
 20
5
 11
205
 21
5
  0
LINE
  5
249
100
AcDbEntity
  8
05. –≤—Л–њ–Њ–ї–љ–µ–љ–Є–µ —А–∞–±–Њ—В
  6
CONTINUOUS
 62
    1
370
   60
100
AcDbLine
 10
20
 20
5.000000253502606
 11
20
 21
60.00000025350261
  0
MTEXT
  5
24A
100
AcDbEntity
  8
05. –≤—Л–њ–Њ–ї–љ–µ–љ–Є–µ —А–∞–±–Њ—В
  6
ByLayer
 62
  256
370
   -1
100
AcDbMText
 10
22
 20
28.00000000000001
 30
0
 40
2
 41
10.22222222222222
 71
    1
 72
    1
  1
–†–∞–Ј—А–∞–±.
  7
cyrillic_ii
210
0
220
0
230
1
 50
0
 73
    2
 44
1
  0
MTEXT
  5
24B
100
AcDbEntity
  8
05. –≤—Л–њ–Њ–ї–љ–µ–љ–Є–µ —А–∞–±–Њ—В
  6
ByLayer
 62
  256
370
   -1
100
AcDbMText
 10
22
 20
23
 30
0
 40
2
 41
6.444444444444444
 71
    1
 72
    1
  1
–Я—А–Њ–≤.
  7
cyrillic_ii
210
0
220
0
230
1
 50
0
 73
    2
 44
1
  0
MTEXT
  5
24C
100
AcDbEntity
  8
05. –≤—Л–њ–Њ–ї–љ–µ–љ–Є–µ —А–∞–±–Њ—В
  6
ByLayer
 62
  256
370
   -1
100
AcDbMText
 10
22
 20
18
 30
0
 40
2
 41
10.88888888888898
 71
    1
 72
    1
  1
–Ґ.–Ї–Њ–љ—В—А.
  7
cyrillic_ii
210
0
220
0
230
1
 50
0
 73
    2
 44
1
  0
MTEXT
  5
24D
100
AcDbEntity
  8
05. –≤—Л–њ–Њ–ї–љ–µ–љ–Є–µ —А–∞–±–Њ—В
  6
ByLayer
 62
  256
370
   -1
100
AcDbMText
 10
22
 20
8
 30
0
 40
2
 41
12.16666666666676
 71
    1
 72
    1
  1
–Э. –Ї–Њ–љ—В—А.
  7
cyrillic_ii
210
0
220
0
230
1
 50
0
 73
    2
 44
1
  0
MTEXT
  5
24E
100
AcDbEntity
  8
05. –≤—Л–њ–Њ–ї–љ–µ–љ–Є–µ —А–∞–±–Њ—В
  6
ByLayer
 62
  256
370
   -1
100
AcDbMText
 10
29
 20
33.5
 30
0
 40
2
 41
6.000000000000092
 71
    1
 72
    1
  1
–Ы–Є—Б—В
  7
cyrillic_ii
210
0
220
0
230
1
 50
0
 73
    2
 44
1
  0
MTEXT
  5
24F
100
AcDbEntity
  8
05. –≤—Л–њ–Њ–ї–љ–µ–љ–Є–µ —А–∞–±–Њ—В
  6
ByLayer
 62
  256
370
   -1
100
AcDbMText
 10
62.39999999999998
 20
33.5
 30
0
 40
2
 41
10.22222222222232
 71
    1
 72
    1
  1
–Я–Њ–і–њ–Є—Б—М
  7
cyrillic_ii
210
0
220
0
230
1
 50
0
 73
    2
 44
1
  0
MTEXT
  5
250
100
AcDbEntity
  8
05. –≤—Л–њ–Њ–ї–љ–µ–љ–Є–µ —А–∞–±–Њ—В
  6
ByLayer
 62
  256
370
   -1
100
AcDbMText
 10
39.70000000000005
 20
33.5
 30
0
 40
2
 41
17.6111111111112
 71
    1
 72
    1
  1
N –і–Њ–Ї—Г–Љ–µ–љ—В–∞
  7
cyrillic_ii
210
0
220
0
230
1
 50
0
 73
    2
 44
1
  0
MTEXT
  5
251
100
AcDbEntity
  8
05. –≤—Л–њ–Њ–ї–љ–µ–љ–Є–µ —А–∞–±–Њ—В
  6
ByLayer
 62
  256
370
   -1
100
AcDbMText
 10
21.29999999999995
 20
33.5
 30
0
 40
2
 41
4.444444444444444
 71
    1
 72
    1
  1
–Ш–Ј–Љ
  7
cyrillic_ii
210
0
220
0
230
1
 50
0
 73
    2
 44
1
  0
MTEXT
  5
252
100
AcDbEntity
  8
05. –≤—Л–њ–Њ–ї–љ–µ–љ–Є–µ —А–∞–±–Њ—В
  6
ByLayer
 62
  256
370
   -1
100
AcDbMText
 10
76.5
 20
33.5
 30
0
 40
2
 41
7.111111111111204
 71
    1
 72
    1
  1
–Ф–∞—В–∞
  7
cyrillic_ii
210
0
220
0
230
1
 50
0
 73
    2
 44
1
  0
LINE
  5
253
100
AcDbEntity
  8
05. –≤—Л–њ–Њ–ї–љ–µ–љ–Є–µ —А–∞–±–Њ—В
  6
CONTINUOUS
 62
    5
370
   20
100
AcDbLine
 10
20
 20
40
 11
85
 21
40
  0
LINE
  5
254
100
AcDbEntity
  8
05. –≤—Л–њ–Њ–ї–љ–µ–љ–Є–µ —А–∞–±–Њ—В
  6
CONTINUOUS
 62
    1
370
   60
100
AcDbLine
 10
20
 20
35
 11
85
 21
35
  0
LINE
  5
255
100
AcDbEntity
  8
05. –≤—Л–њ–Њ–ї–љ–µ–љ–Є–µ —А–∞–±–Њ—В
  6
CONTINUOUS
 62
    1
370
   60
100
AcDbLine
 10
20
 20
30
 11
85
 21
30
  0
LINE
  5
256
100
AcDbEntity
  8
05. –≤—Л–њ–Њ–ї–љ–µ–љ–Є–µ —А–∞–±–Њ—В
  6
CONTINUOUS
 62
    1
370
   60
100
AcDbLine
 10
20
 20
45
 11
205
 21
45
  0
LINE
  5
257
100
AcDbEntity
  8
05. –≤—Л–њ–Њ–ї–љ–µ–љ–Є–µ —А–∞–±–Њ—В
  6
CONTINUOUS
 62
    1
370
   60
100
AcDbLine
 10
85
 20
5
 11
85
 21
45
  0
LINE
  5
258
100
AcDbEntity
  8
05. –≤—Л–њ–Њ–ї–љ–µ–љ–Є–µ —А–∞–±–Њ—В
  6
CONTINUOUS
 62
    1
370
   60
100
AcDbLine
 10
75
 20
5
 11
75
 21
45
  0
LINE
  5
259
100
AcDbEntity
  8
05. –≤—Л–њ–Њ–ї–љ–µ–љ–Є–µ —А–∞–±–Њ—В
  6
CONTINUOUS
 62
    1
370
   60
100
AcDbLine
 10
60
 20
5
 11
60
 21
45
  0
LINE
  5
25A
100
AcDbEntity
  8
05. –≤—Л–њ–Њ–ї–љ–µ–љ–Є–µ —А–∞–±–Њ—В
  6
CONTINUOUS
 62
    1
370
   60
100
AcDbLine
 10
37
 20
5
 11
37
 21
45
  0
LINE
  5
25B
100
AcDbEntity
  8
05. –≤—Л–њ–Њ–ї–љ–µ–љ–Є–µ —А–∞–±–Њ—В
  6
CONTINUOUS
 62
    1
370
   60
100
AcDbLine
 10
27
 20
35
 11
27
 21
45
  0
LINE
  5
25C
100
AcDbEntity
  8
05. –≤—Л–њ–Њ–ї–љ–µ–љ–Є–µ —А–∞–±–Њ—В
  6
CONTINUOUS
 62
    1
370
   60
100
AcDbLine
 10
85
 20
30
 11
205
 21
30.00437047154489
  0
LINE
  5
25D
100
AcDbEntity
  8
05. –≤—Л–њ–Њ–ї–љ–µ–љ–Є–µ —А–∞–±–Њ—В
  6
CONTINUOUS
 62
    1
370
   60
100
AcDbLine
 10
155
 20
20
 11
205
 21
20
  0
MTEXT
  5
25E
100
AcDbEntity
  8
05. –≤—Л–њ–Њ–ї–љ–µ–љ–Є–µ —А–∞–±–Њ—В
  6
ByLayer
 62
  256
370
   -1
100
AcDbMText
 10
160.1
 20
28.5043704715449
 30
0
 40
2
 41
5.333333333333426
 71
    1
 72
    1
  1
–Ы–Є—В.
  7
cyrillic_ii
210
0
220
0
230
1
 50
0
 73
    2
 44
1
  0
LINE
  5
25F
100
AcDbEntity
  8
05. –≤—Л–њ–Њ–ї–љ–µ–љ–Є–µ —А–∞–±–Њ—В
  6
CONTINUOUS
 62
    1
370
   60
100
AcDbLine
 10
155
 20
25.00437047154489
 11
205
 21
25.00437047154489
  0
LINE
  5
260
100
AcDbEntity
  8
05. –≤—Л–њ–Њ–ї–љ–µ–љ–Є–µ —А–∞–±–Њ—В
  6
CONTINUOUS
 62
    5
370
   20
100
AcDbLine
 10
165
 20
20
 11
165
 21
25.00437047154489
  0
LINE
  5
261
100
AcDbEntity
  8
05. –≤—Л–њ–Њ–ї–љ–µ–љ–Є–µ —А–∞–±–Њ—В
  6
CONTINUOUS
 62
    5
370
   20
100
AcDbLine
 10
160
 20
20
 11
160
 21
25
  0
LINE
  5
262
100
AcDbEntity
  8
05. –≤—Л–њ–Њ–ї–љ–µ–љ–Є–µ —А–∞–±–Њ—В
  6
CONTINUOUS
 62
    1
370
   60
100
AcDbLine
 10
187
 20
20
 11
187
 21
30
  0
LINE
  5
263
100
AcDbEntity
  8
05. –≤—Л–њ–Њ–ї–љ–µ–љ–Є–µ —А–∞–±–Њ—В
  6
CONTINUOUS
 62
    1
370
   60
100
AcDbLine
 10
170
 20
20
 11
170
 21
30
  0
MTEXT
  5
264
100
AcDbEntity
  8
05. –≤—Л–њ–Њ–ї–љ–µ–љ–Є–µ —А–∞–±–Њ—В
  6
ByLayer
 62
  256
370
   -1
100
AcDbMText
 10
191.5
 20
28.5
 30
0
 40
2
 41
9.111111111111205
 71
    1
 72
    1
  1
–Ы–Є—Б—В–Њ–≤
  7
cyrillic_ii
210
0
220
0
230
1
 50
0
 73
    2
 44
1
  0
MTEXT
  5
265
100
AcDbEntity
  8
05. –≤—Л–њ–Њ–ї–љ–µ–љ–Є–µ —А–∞–±–Њ—В
  6
ByLayer
 62
  256
370
   -1
100
AcDbMText
 10
175.5
 20
28.5
 30
0
 40
2
 41
6.000000000000092
 71
    1
 72
    1
  1
–Ы–Є—Б—В
  7
cyrillic_ii
210
0
220
0
230
1
 50
0
 73
    2
 44
1
  0
LINE
  5
266
100
AcDbEntity
  8
05. –≤—Л–њ–Њ–ї–љ–µ–љ–Є–µ —А–∞–±–Њ—В
  6
CONTINUOUS
 62
    1
370
   60
100
AcDbLine
 10
155
 20
5
 11
155
 21
30
  0
LINE
  5
267
100
AcDbEntity
  8
05. –≤—Л–њ–Њ–ї–љ–µ–љ–Є–µ —А–∞–±–Њ—В
  6
CONTINUOUS
 62
    1
370
   25
100
AcDbLine
 10
20
 20
270
 11
205
 21
270
  0
LINE
  5
268
100
AcDbEntity
  8
05. –≤—Л–њ–Њ–ї–љ–µ–љ–Є–µ —А–∞–±–Њ—В
  6
CONTINUOUS
 62
    1
370
   25
100
AcDbLine
 10
20
 20
262
 11
205
 21
262
  0
LINE
  5
269
100
AcDbEntity
  8
05. –≤—Л–њ–Њ–ї–љ–µ–љ–Є–µ —А–∞–±–Њ—В
  6
CONTINUOUS
 62
    1
370
   25
100
AcDbLine
 10
20
 20
254
 11
205
 21
254
  0
LINE
  5
26A
100
AcDbEntity
  8
05. –≤—Л–њ–Њ–ї–љ–µ–љ–Є–µ —А–∞–±–Њ—В
  6
CONTINUOUS
 62
    1
370
   25
100
AcDbLine
 10
20
 20
246
 11
205
 21
246
  0
LINE
  5
26B
100
AcDbEntity
  8
05. –≤—Л–њ–Њ–ї–љ–µ–љ–Є–µ —А–∞–±–Њ—В
  6
CONTINUOUS
 62
    1
370
   25
100
AcDbLine
 10
20
 20
238
 11
205
 21
238
  0
LINE
  5
26C
100
AcDbEntity
  8
05. –≤—Л–њ–Њ–ї–љ–µ–љ–Є–µ —А–∞–±–Њ—В
  6
CONTINUOUS
 62
    1
370
   25
100
AcDbLine
 10
20
 20
230
 11
205
 21
230
  0
LINE
  5
26D
100
AcDbEntity
  8
05. –≤—Л–њ–Њ–ї–љ–µ–љ–Є–µ —А–∞–±–Њ—В
  6
CONTINUOUS
 62
    1
370
   25
100
AcDbLine
 10
20
 20
222
 11
205
 21
222
  0
LINE
  5
26E
100
AcDbEntity
  8
05. –≤—Л–њ–Њ–ї–љ–µ–љ–Є–µ —А–∞–±–Њ—В
  6
CONTINUOUS
 62
    1
370
   25
100
AcDbLine
 10
20
 20
214
 11
205
 21
214
  0
LINE
  5
26F
100
AcDbEntity
  8
05. –≤—Л–њ–Њ–ї–љ–µ–љ–Є–µ —А–∞–±–Њ—В
  6
CONTINUOUS
 62
    1
370
   25
100
AcDbLine
 10
20
 20
206
 11
205
 21
206
  0
LINE
  5
270
100
AcDbEntity
  8
05. –≤—Л–њ–Њ–ї–љ–µ–љ–Є–µ —А–∞–±–Њ—В
  6
CONTINUOUS
 62
    1
370
   25
100
AcDbLine
 10
20
 20
198
 11
205
 21
198
  0
LINE
  5
271
100
AcDbEntity
  8
05. –≤—Л–њ–Њ–ї–љ–µ–љ–Є–µ —А–∞–±–Њ—В
  6
CONTINUOUS
 62
    1
370
   25
100
AcDbLine
 10
20
 20
190
 11
205
 21
190
  0
LINE
  5
272
100
AcDbEntity
  8
05. –≤—Л–њ–Њ–ї–љ–µ–љ–Є–µ —А–∞–±–Њ—В
  6
CONTINUOUS
 62
    1
370
   25
100
AcDbLine
 10
20
 20
182
 11
205
 21
182
  0
LINE
  5
273
100
AcDbEntity
  8
05. –≤—Л–њ–Њ–ї–љ–µ–љ–Є–µ —А–∞–±–Њ—В
  6
CONTINUOUS
 62
    1
370
   25
100
AcDbLine
 10
20
 20
174
 11
205
 21
174
  0
LINE
  5
274
100
AcDbEntity
  8
05. –≤—Л–њ–Њ–ї–љ–µ–љ–Є–µ —А–∞–±–Њ—В
  6
CONTINUOUS
 62
    1
370
   25
100
AcDbLine
 10
20
 20
166
 11
205
 21
166
  0
LINE
  5
275
100
AcDbEntity
  8
05. –≤—Л–њ–Њ–ї–љ–µ–љ–Є–µ —А–∞–±–Њ—В
  6
CONTINUOUS
 62
    1
370
   25
100
AcDbLine
 10
20
 20
158
 11
205
 21
158
  0
LINE
  5
276
100
AcDbEntity
  8
05. –≤—Л–њ–Њ–ї–љ–µ–љ–Є–µ —А–∞–±–Њ—В
  6
CONTINUOUS
 62
    1
370
   25
100
AcDbLine
 10
20
 20
150
 11
205
 21
150
  0
LINE
  5
277
100
AcDbEntity
  8
05. –≤—Л–њ–Њ–ї–љ–µ–љ–Є–µ —А–∞–±–Њ—В
  6
CONTINUOUS
 62
    1
370
   25
100
AcDbLine
 10
20
 20
142
 11
205
 21
142
  0
LINE
  5
278
100
AcDbEntity
  8
05. –≤—Л–њ–Њ–ї–љ–µ–љ–Є–µ —А–∞–±–Њ—В
  6
CONTINUOUS
 62
    1
370
   25
100
AcDbLine
 10
20
 20
134
 11
205
 21
134
  0
LINE
  5
279
100
AcDbEntity
  8
05. –≤—Л–њ–Њ–ї–љ–µ–љ–Є–µ —А–∞–±–Њ—В
  6
CONTINUOUS
 62
    1
370
   25
100
AcDbLine
 10
20
 20
126
 11
205
 21
126
  0
LINE
  5
27A
100
AcDbEntity
  8
05. –≤—Л–њ–Њ–ї–љ–µ–љ–Є–µ —А–∞–±–Њ—В
  6
CONTINUOUS
 62
    1
370
   25
100
AcDbLine
 10
20
 20
118
 11
205
 21
118
  0
LINE
  5
27B
100
AcDbEntity
  8
05. –≤—Л–њ–Њ–ї–љ–µ–љ–Є–µ —А–∞–±–Њ—В
  6
CONTINUOUS
 62
    1
370
   25
100
AcDbLine
 10
20
 20
110
 11
205
 21
110
  0
LINE
  5
27C
100
AcDbEntity
  8
05. –≤—Л–њ–Њ–ї–љ–µ–љ–Є–µ —А–∞–±–Њ—В
  6
CONTINUOUS
 62
    1
370
   25
100
AcDbLine
 10
20
 20
102
 11
205
 21
102
  0
LINE
  5
27D
100
AcDbEntity
  8
05. –≤—Л–њ–Њ–ї–љ–µ–љ–Є–µ —А–∞–±–Њ—В
  6
CONTINUOUS
 62
    1
370
   25
100
AcDbLine
 10
20
 20
94
 11
205
 21
94
  0
LINE
  5
27E
100
AcDbEntity
  8
05. –≤—Л–њ–Њ–ї–љ–µ–љ–Є–µ —А–∞–±–Њ—В
  6
CONTINUOUS
 62
    1
370
   25
100
AcDbLine
 10
20
 20
86
 11
205
 21
86
  0
LINE
  5
27F
100
AcDbEntity
  8
05. –≤—Л–њ–Њ–ї–љ–µ–љ–Є–µ —А–∞–±–Њ—В
  6
CONTINUOUS
 62
    1
370
   25
100
AcDbLine
 10
20
 20
78
 11
205
 21
78
  0
LINE
  5
280
100
AcDbEntity
  8
05. –≤—Л–њ–Њ–ї–љ–µ–љ–Є–µ —А–∞–±–Њ—В
  6
CONTINUOUS
 62
    1
370
   25
100
AcDbLine
 10
20
 20
70
 11
205
 21
70
  0
LINE
  5
281
100
AcDbEntity
  8
05. –≤—Л–њ–Њ–ї–љ–µ–љ–Є–µ —А–∞–±–Њ—В
  6
CONTINUOUS
 62
    1
370
   25
100
AcDbLine
 10
20
 20
62
 11
205
 21
62
  0
LINE
  5
282
100
AcDbEntity
  8
05. –≤—Л–њ–Њ–ї–љ–µ–љ–Є–µ —А–∞–±–Њ—В
  6
CONTINUOUS
 62
    1
370
   25
100
AcDbLine
 10
20
 20
54
 11
205
 21
54
  0
LINE
  5
283
100
AcDbEntity
  8
05. –≤—Л–њ–Њ–ї–љ–µ–љ–Є–µ —А–∞–±–Њ—В
  6
CONTINUOUS
 62
    1
370
   60
100
AcDbLine
 10
20
 20
278
 11
205
 21
278
  0
LINE
  5
284
100
AcDbEntity
  8
05. –≤—Л–њ–Њ–ї–љ–µ–љ–Є–µ —А–∞–±–Њ—В
  6
ByLayer
 62
    1
370
   60
100
AcDbLine
 10
110
 20
45
 11
110
 21
292
  0
LINE
  5
285
100
AcDbEntity
  8
05. –≤—Л–њ–Њ–ї–љ–µ–љ–Є–µ —А–∞–±–Њ—В
  6
ByLayer
 62
    1
370
   60
100
AcDbLine
 10
120
 20
292
 11
120
 21
45
  0
LINE
  5
286
100
AcDbEntity
  8
05. –≤—Л–њ–Њ–ї–љ–µ–љ–Є–µ —А–∞–±–Њ—В
  6
ByLayer
 62
    1
370
   60
100
AcDbLine
 10
130
 20
292
 11
130
 21
45
  0
LINE
  5
287
100
AcDbEntity
  8
05. –≤—Л–њ–Њ–ї–љ–µ–љ–Є–µ —А–∞–±–Њ—В
  6
ByLayer
 62
    1
370
   60
100
AcDbLine
 10
140
 20
292
 11
140
 21
45
  0
LINE
  5
288
100
AcDbEntity
  8
05. –≤—Л–њ–Њ–ї–љ–µ–љ–Є–µ —А–∞–±–Њ—В
  6
ByLayer
 62
    1
370
   60
100
AcDbLine
 10
150
 20
292
 11
150
 21
45
  0
MTEXT
  5
289
100
AcDbEntity
  8
05. –≤—Л–њ–Њ–ї–љ–µ–љ–Є–µ —А–∞–±–Њ—В
  6
ByLayer
 62
  256
370
   -1
100
AcDbMText
 10
162
 20
287
 30
0
 40
4
 41
31.33333333333333
 71
    1
 72
    1
  1
–Я—А–Є–Љ–µ—З–∞–љ–Є–µ
  7
cyrillic_ii
210
0
220
0
230
1
 50
0
 73
    2
 44
1
  0
MTEXT
  5
28A
100
AcDbEntity
  8
05. –≤—Л–њ–Њ–ї–љ–µ–љ–Є–µ —А–∞–±–Њ—В
  6
ByLayer
 62
  256
370
   -1
100
AcDbMText
 10
113
 20
279
 30
0
 40
3
 41
9
 71
    1
 72
    1
  1
–Ф–µ–љ—М
  7
cyrillic_ii
210
0
220
0
230
1
 50
90
 73
    2
 44
1
  0
MTEXT
  5
28B
100
AcDbEntity
  8
05. –≤—Л–њ–Њ–ї–љ–µ–љ–Є–µ —А–∞–±–Њ—В
  6
ByLayer
 62
  256
370
   -1
100
AcDbMText
 10
123
 20
279
 30
0
 40
3
 41
11.33333333333333
 71
    1
 72
    1
  1
–Т—А–µ–Љ—П
  7
cyrillic_ii
210
0
220
0
230
1
 50
90
 73
    2
 44
1
  0
MTEXT
  5
28C
100
AcDbEntity
  8
05. –≤—Л–њ–Њ–ї–љ–µ–љ–Є–µ —А–∞–±–Њ—В
  6
ByLayer
 62
  256
370
   -1
100
AcDbMText
 10
133
 20
279
 30
0
 40
3
 41
8.333333333333332
 71
    1
 72
    1
  1
–Ъ—Г—А—Б
  7
cyrillic_ii
210
0
220
0
230
1
 50
90
 73
    2
 44
1
  0
MTEXT
  5
28D
100
AcDbEntity
  8
05. –≤—Л–њ–Њ–ї–љ–µ–љ–Є–µ —А–∞–±–Њ—В
  6
ByLayer
 62
  256
370
   -1
100
AcDbMText
 10
143
 20
279
 30
0
 40
3
 41
8.333333333333472
 71
    1
 72
    1
  1
–Ю—В–Љ.
  7
cyrillic_ii
210
0
220
0
230
1
 50
90
 73
    2
 44
1
  0
MTEXT
  5
28E
100
AcDbEntity
  8
05. –≤—Л–њ–Њ–ї–љ–µ–љ–Є–µ —А–∞–±–Њ—В
  6
ByLayer
 62
  256
370
   -1
100
AcDbMText
 10
60
 20
287
 30
0
 40
4
 41
9.777777777777779
 71
    1
 72
    1
  1
–§–Ш–Ю
  7
cyrillic_ii
210
0
220
0
230
1
 50
0
 73
    2
 44
1
  0
ENDBLK
  5
AE
330
AC
100
AcDbEntity
  8
0
100
AcDbBlockEnd
  0
BLOCK
  5
B0
330
AF
100
AcDbEntity
  8
0
100
AcDbBlockBegin
  2
—И—В–∞–Љ–њ –Р4 —В–Є—В—Г–ї
 70
    0
 10
0
 20
0
  3
—И—В–∞–Љ–њ –Р4 —В–Є—В—Г–ї
  1

  0
LINE
  5
28F
100
AcDbEntity
  8
0
  6
CONTINUOUS
 62
    5
370
   20
100
AcDbLine
 10
210
 20
297
 11
210
 21
0
  0
LINE
  5
290
100
AcDbEntity
  8
0
  6
CONTINUOUS
 62
    5
370
   20
100
AcDbLine
 10
0
 20
0
 11
0
 21
297
  0
LINE
  5
291
100
AcDbEntity
  8
0
  6
CONTINUOUS
 62
    5
370
   20
100
AcDbLine
 10
0
 20
0
 11
210
 21
0
  0
LINE
  5
292
100
AcDbEntity
  8
0
  6
CONTINUOUS
 62
    5
370
   20
100
AcDbLine
 10
0
 20
297
 11
210
 21
297
  0
LINE
  5
293
100
AcDbEntity
  8
0
  6
CONTINUOUS
 62
    1
370
   60
100
AcDbLine
 10
20
 20
5
 11
205
 21
5
  0
LINE
  5
294
100
AcDbEntity
  8
0
  6
CONTINUOUS
 62
    1
370
   60
100
AcDbLine
 10
20
 20
292
 11
205
 21
292
  0
LINE
  5
295
100
AcDbEntity
  8
0
  6
CONTINUOUS
 62
    1
370
   60
100
AcDbLine
 10
205
 20
292
 11
205
 21
5
  0
LINE
  5
296
100
AcDbEntity
  8
0
  6
CONTINUOUS
 62
    1
370
   60
100
AcDbLine
 10
20
 20
5
 11
20
 21
292
  0
LINE
  5
297
100
AcDbEntity
  8
0
  6
CONTINUOUS
 62
    1
370
   60
100
AcDbLine
 10
20
 20
5
 11
205
 21
5
  0
LINE
  5
298
100
AcDbEntity
  8
0
  6
CONTINUOUS
 62
    1
370
   60
100
AcDbLine
 10
20
 20
5.000000253502606
 11
20
 21
60.00000025350261
  0
ENDBLK
  5
B1
330
AF
100
AcDbEntity
  8
0
100
AcDbBlockEnd
  0
ENDSEC
  0
SECTION
  2
ENTITIES
  0
HATCH
  5
299
100
AcDbEntity
  8
03. —Б–±–Њ—А–Њ—З–љ—Л–є —З–µ—А—В–µ–ґ
  6
ByLayer
 62
  256
370
   -1
100
AcDbHatch
 10
0
 20
0
 30
0
210
0
220
0
230
1
  2
SOLID
 70
    1
 71
    0
 91
    1
 92
    0
 93
    4
 72
    1
 10
114.1
 20
158.4
 11
114.5
 21
158.4
 72
    1
 10
114.5
 20
158.4
 11
114.5
 21
140
 72
    1
 10
114.5
 20
140
 11
114.1
 21
140
 72
    1
 10
114.1
 20
140
 11
114.1
 21
158.4
 97
    0
 75
    0
 76
    1
 98
    0
  0
HATCH
  5
29A
100
AcDbEntity
  8
03. —Б–±–Њ—А–Њ—З–љ—Л–є —З–µ—А—В–µ–ґ
  6
ByLayer
 62
  256
370
   -1
100
AcDbHatch
 10
0
 20
0
 30
0
210
0
220
0
230
1
  2
SOLID
 70
    1
 71
    0
 91
    1
 92
    0
 93
    8
 72
    2
 10
137.2
 20
153
 40
5.000000000000001
 50
180
 51
270
 73
    0
 72
    1
 10
137.2
 20
158
 11
149.5
 21
158
 72
    1
 10
149.5
 20
158
 11
149.5
 21
158.4
 72
    1
 10
149.5
 20
158.4
 11
136.8
 21
158.4
 72
    2
 10
136.8
 20
153.4
 40
5.000000000000001
 50
90
 51
180
 73
    1
 72
    1
 10
131.8
 20
153.4
 11
131.8
 21
140
 72
    1
 10
131.8
 20
140
 11
132.2
 21
140
 72
    1
 10
132.2
 20
140
 11
132.2
 21
153
 97
    0
 75
    0
 76
    1
 98
    0
  0
HATCH
  5
29B
100
AcDbEntity
  8
03. —Б–±–Њ—А–Њ—З–љ—Л–є —З–µ—А—В–µ–ґ
  6
ByLayer
 62
  256
370
   -1
100
AcDbHatch
 10
0
 20
0
 30
0
210
0
220
0
230
1
  2
gost_ceramics
 70
    0
 71
    0
 91
    1
 92
    0
 93
    4
 72
    1
 10
99
 20
250
 11
90
 21
250
 72
    1
 10
90
 20
250
 11
90
 21
140
 72
    1
 10
90
 20
140
 11
99
 21
140
 72
    1
 10
99
 20
140
 11
99
 21
250
 97
    0
 75
    0
 76
    1
 52
0
 41
0.5
 77
    0
 78
    0
 98
    0
  0
HATCH
  5
29C
100
AcDbEntity
  8
03. —Б–±–Њ—А–Њ—З–љ—Л–є —З–µ—А—В–µ–ґ
  6
ByLayer
 62
  256
370
   -1
100
AcDbHatch
 10
0
 20
0
 30
0
210
0
220
0
230
1
  2
gost_glass
 70
    0
 71
    0
 91
    1
 92
    0
 93
   10
 72
    2
 10
138
 20
230.5
 40
23.50531854708631
 50
178.7811247648686
 51
218.0887728809752
 73
    0
 72
    2
 10
99.89285714285703
 20
262.404761904762
 40
26.21766175656911
 50
318.4053506620291
 51
354.73726372048
 73
    1
 72
    1
 10
126
 20
260
 11
126
 21
274
 72
    1
 10
126
 20
274
 11
138
 21
274
 72
    1
 10
138
 20
274
 11
138
 21
260
 72
    2
 10
164.107142857143
 20
262.404761904762
 40
26.21766175656911
 50
185.26273627952
 51
221.5946493379709
 73
    1
 72
    2
 10
126
 20
230.5
 40
23.50531854708632
 50
321.9112271190248
 51
1.218875235131365
 73
    0
 72
    1
 10
149.5000000000001
 20
230
 11
149.5000000000001
 21
215
 72
    1
 10
149.5000000000001
 20
215
 11
114.5
 21
215
 72
    1
 10
114.5
 20
215
 11
114.5
 21
230
 97
    0
 75
    0
 76
    1
 52
0
 41
0.3
 77
    0
 78
    0
 98
    0
  0
HATCH
  5
29D
100
AcDbEntity
  8
03. —Б–±–Њ—А–Њ—З–љ—Л–є —З–µ—А—В–µ–ґ
  6
ByLayer
 62
  256
370
   -1
100
AcDbHatch
 10
0
 20
0
 30
0
210
0
220
0
230
1
  2
gost_glass
 70
    0
 71
    0
 91
    1
 92
    0
 93
    4
 72
    1
 10
114.5
 20
175
 11
149.5
 21
175
 72
    1
 10
149.5
 20
175
 11
149.5
 21
140
 72
    1
 10
149.5
 20
140
 11
114.5
 21
140
 72
    1
 10
114.5
 20
140
 11
114.5
 21
175
 97
    0
 75
    0
 76
    1
 52
0
 41
0.3
 77
    0
 78
    0
 98
    0
  0
IMAGE
  5
2A0
100
AcDbEntity
  8
02. –і–µ—А–ґ–∞—В–µ–ї—М
  6
ByLayer
 62
  256
370
   -1
100
AcDbRasterImage
 10
118
 20
62
 30
0
 11
0.1231884057971015
 21
0
 31
0
 12
7.542865222818991e-18
 22
0.1231884057971015
 32
0
 13
690
 23
135
340
29E
 70
    1
280
    0
281
   50
282
   50
283
    0
360
29F
  0
IMAGE
  5
2A3
100
AcDbEntity
  8
00. —Н—Б–Ї–Є–Ј
  6
ByLayer
 62
  256
370
   -1
100
AcDbRasterImage
 10
39
 20
80
 30
0
 11
0.1302083333333333
 21
0
 31
0
 12
7.972697616031102e-18
 22
0.1302083333333333
 32
0
 13
1024
 23
1536
340
2A1
 70
    1
280
    0
281
   50
282
   50
283
    0
360
2A2
  0
IMAGE
  5
2A6
100
AcDbEntity
  8
00. —В–Є—В—Г–ї—М–љ—Л–є
  6
ByLayer
 62
  256
370
   -1
100
AcDbRasterImage
 10
180
 20
124
 30
0
 11
1
 21
0
 31
0
 12
6.123031769111886e-17
 22
1
 32
0
 13
1
 23
1
340
2A4
 70
    1
280
    0
281
   50
282
   50
283
    0
360
2A5
  0
IMAGE
  5
2A8
100
AcDbEntity
  8
00. —В–Є—В—Г–ї—М–љ—Л–є
  6
ByLayer
 62
  256
370
   -1
100
AcDbRasterImage
 10
160
 20
124
 30
0
 11
1
 21
0
 31
0
 12
6.123031769111886e-17
 22
1
 32
0
 13
1
 23
1
340
2A4
 70
    1
280
    0
281
   50
282
   50
283
    0
360
2A7
  0
IMAGE
  5
2AB
100
AcDbEntity
  8
00. —В–Є—В—Г–ї—М–љ—Л–є
  6
ByLayer
 62
  256
370
   -1
100
AcDbRasterImage
 10
171.9387755102041
 20
99
 30
0
 11
0.06122448979591837
 21
0
 31
0
 12
3.748794960680746e-18
 22
0.06122448979591837
 32
0
 13
491
 23
490
340
2A9
 70
    1
280
    0
281
   50
282
   50
283
    0
360
2AA
  0
IMAGE
  5
2AD
100
AcDbEntity
  8
03. —Б–±–Њ—А–Њ—З–љ—Л–є —З–µ—А—В–µ–ґ
  6
ByLayer
 62
  256
370
   -1
100
AcDbRasterImage
 10
203
 20
205
 30
0
 11
7.542865222818991e-18
 21
0.1231884057971015
 31
0
 12
-0.1231884057971015
 22
1.508573044563798e-17
 32
0
 13
690
 23
135
340
29E
 70
    1
280
    0
281
   50
282
   50
283
    0
360
2AC
  0
IMAGE
  5
2AF
100
AcDbEntity
  8
01. –Њ—Б–љ–Њ–≤–∞–љ–Є–µ
  6
ByLayer
 62
  256
370
   -1
100
AcDbRasterImage
 10
118
 20
62
 30
0
 11
0.1231884057971015
 21
0
 31
0
 12
7.542865222818991e-18
 22
0.1231884057971015
 32
0
 13
690
 23
135
340
29E
 70
    1
280
    0
281
   50
282
   50
283
    0
360
2AE
  0
IMAGE
  5
2B1
100
AcDbEntity
  8
00. —Н—Б–Ї–Є–Ј
  6
ByLayer
 62
  256
370
   -1
100
AcDbRasterImage
 10
203
 20
205
 30
0
 11
7.542865222818991e-18
 21
0.1231884057971015
 31
0
 12
-0.1231884057971015
 22
1.508573044563798e-17
 32
0
 13
690
 23
135
340
29E
 70
    1
280
    0
281
   50
282
   50
283
    0
360
2B0
  0
IMAGE
  5
2B4
100
AcDbEntity
  8
00. —Н—Б–Ї–Є–Ј
  6
ByLayer
 62
  256
370
   -1
100
AcDbRasterImage
 10
209.0696640297358
 20
259.8884887785762
 30
0
 11
0.05
 21
0
 31
0
 12
3.061515884555943e-18
 22
0.05
 32
0
 13
800
 23
800
340
2B2
 70
    1
280
    0
281
   50
282
   50
283
    0
360
2B3
  0
IMAGE
  5
2B7
100
AcDbEntity
  8
00. —В–Є—В—Г–ї—М–љ—Л–є
  6
ByLayer
 62
  256
370
   -1
100
AcDbRasterImage
 10
93
 20
197
 30
0
 11
0.08456659619450317
 21
0
 31
0
 12
5.178039551045992e-18
 22
0.08456659619450317
 32
0
 13
473
 23
473
340
2B5
 70
    1
280
    0
281
   50
282
   50
283
    0
360
2B6
  0
IMAGE
  5
2BA
100
AcDbEntity
  8
00. —В–Є—В—Г–ї—М–љ—Л–є
  6
ByLayer
 62
  256
370
   -1
100
AcDbRasterImage
 10
25
 20
241.5443548387097
 30
0
 11
0.1764112903225806
 21
0
 31
0
 12
1.080171935075182e-17
 22
0.1764112903225806
 32
0
 13
992
 23
252
340
2B8
 70
    1
280
    0
281
   50
282
   50
283
    0
360
2B9
  0
IMAGE
  5
2BD
100
AcDbEntity
  8
00. —В–Є—В—Г–ї—М–љ—Л–є
  6
ByLayer
 62
  256
370
   -1
100
AcDbRasterImage
 10
26.92328157724423
 20
255.2847574563285
 30
0
 11
0.1764112903225807
 21
0
 31
0
 12
1.080171935075182e-17
 22
0.1764112903225807
 32
0
 13
992
 23
252
340
2BB
 70
    1
280
    0
281
   50
282
   50
283
    0
360
2BC
  0
IMAGE
  5
2C0
100
AcDbEntity
  8
00. —В–Є—В—Г–ї—М–љ—Л–є
  6
ByLayer
 62
  256
370
   -1
100
AcDbRasterImage
 10
20.9916
 20
241.363
 30
0
 11
0.1764112903225807
 21
0
 31
0
 12
1.080171935075182e-17
 22
0.1764112903225807
 32
0
 13
992
 23
252
340
2BE
 70
    1
280
    0
281
   50
282
   50
283
    0
360
2BF
  0
IMAGE
  5
2C2
100
AcDbEntity
  8
00. —В–Є—В—Г–ї—М–љ—Л–є
  6
ByLayer
 62
  256
370
   -1
100
AcDbRasterImage
 10
25
 20
253.089064516129
 30
0
 11
0.1764112903225807
 21
0
 31
0
 12
1.080171935075182e-17
 22
0.1764112903225807
 32
0
 13
992
 23
252
340
2BE
 70
    1
280
    0
281
   50
282
   50
283
    0
360
2C1
  0
IMAGE
  5
2C5
100
AcDbEntity
  8
00. —В–Є—В—Г–ї—М–љ—Л–є
  6
ByLayer
 62
  256
370
   -1
100
AcDbRasterImage
 10
180
 20
210
 30
0
 11
1
 21
0
 31
0
 12
6.123031769111886e-17
 22
1
 32
0
 13
1
 23
1
340
2C3
 70
    1
280
    0
281
   50
282
   50
283
    0
360
2C4
  0
IMAGE
  5
2C7
100
AcDbEntity
  8
00. —В–Є—В—Г–ї—М–љ—Л–є
  6
ByLayer
 62
  256
370
   -1
100
AcDbRasterImage
 10
150
 20
310
 30
0
 11
1
 21
0
 31
0
 12
6.123031769111886e-17
 22
1
 32
0
 13
1
 23
1
340
2A4
 70
    1
280
    0
281
   50
282
   50
283
    0
360
2C6
  0
INSERT
  5
2C8
100
AcDbEntity
  8
—И—В–∞–Љ–њ A4 –∞–ї—М–±–Њ–Љ–љ—Л–є
  6
ByLayer
 62
  256
370
   -1
100
AcDbBlockReference
  2
—И—В–∞–Љ–њ –Р4 –∞–ї—М–±–Њ–Љ–љ—Л–є
 10
0
 20
0
 30
0
 41
1
 42
1
 43
0
 50
0
 70
    1
 71
    1
 44
0
 45
0
  0
INSERT
  5
2C9
100
AcDbEntity
  8
—И—В–∞–Љ–њ –Р4 –Ї–љ–Є–ґ–љ—Л–є
  6
ByLayer
 62
  256
370
   -1
100
AcDbBlockReference
  2
—И—В–∞–Љ–њ A4 –Ї–љ–Є–ґ–љ—Л–є
 10
0
 20
0
 30
0
 41
1
 42
1
 43
0
 50
0
 70
    1
 71
    1
 44
0
 45
0
  0
MTEXT
  5
2CA
100
AcDbEntity
  8
00. —Н—Б–Ї–Є–Ј
  6
ByLayer
 62
  256
370
   -1
100
AcDbMText
 10
171
 20
23.5
 30
0
 40
2
 41
0.4444444444444444
 71
    1
 72
    1
  1
1
  7
cyrillic_ii
210
0
220
0
230
1
 50
0
 73
    2
 44
1
  0
INSERT
  5
2CB
100
AcDbEntity
  8
—И—В–∞–Љ–њ –Р4 —Б–њ–µ—Ж–Є—Д–Є–Ї–∞—Ж–Є—П
  6
ByLayer
 62
  256
370
   -1
100
AcDbBlockReference
  2
—И—В–∞–Љ–њ A4 —Б–њ–µ—Ж–Є—Д–Є–Ї–∞—Ж–Є—П
 10
0
 20
0
 30
0
 41
1
 42
1
 43
0
 50
0
 70
    1
 71
    1
 44
1
 45
1
  0
MTEXT
  5
2CC
100
AcDbEntity
  8
00. —Н—Б–Ї–Є–Ј
  6
ByLayer
 62
  256
370
   -1
100
AcDbMText
 10
120.4305555555556
 20
33
 30
0
 40
5
 41
48.75
 71
    5
 72
    1
  1
–≠—Б–Ї–Є–Ј –Є–Ј–і–µ–ї–Є—П
  7
cyrillic_ii
210
0
220
0
230
1
 50
0
 73
    2
 44
1
  0
LINE
  5
2CD
100
AcDbEntity
  8
–≤—Б–њ–Њ–Љ–Њ–≥–∞—В–µ–ї—М–љ—Л–є
  6
ByLayer
 62
  256
370
   -1
100
AcDbLine
 10
50.5
 20
150
 11
190.5
 21
150
  0
LINE
  5
2CE
100
AcDbEntity
  8
–≤—Б–њ–Њ–Љ–Њ–≥–∞—В–µ–ї—М–љ—Л–є
  6
ByLayer
 62
  256
370
   -1
100
AcDbLine
 10
50.5
 20
190
 11
190.5
 21
190
  0
LINE
  5
2CF
100
AcDbEntity
  8
–≤—Б–њ–Њ–Љ–Њ–≥–∞—В–µ–ї—М–љ—Л–є
  6
ByLayer
 62
  256
370
   -1
100
AcDbLine
 10
50.5
 20
225
 11
190.5
 21
225
  0
MTEXT
  5
2D0
100
AcDbEntity
  8
01. –Њ—Б–љ–Њ–≤–∞–љ–Є–µ
  6
ByLayer
 62
  256
370
   -1
100
AcDbMText
 10
193
 20
35
 30
0
 40
5
 41
5.555555555555555
 71
    1
 72
    1
  1
1:1
  7
cyrillic_ii
210
0
220
0
230
1
 50
0
 73
    2
 44
1
  0
MTEXT
  5
2D1
100
AcDbEntity
  8
02. –і–µ—А–ґ–∞—В–µ–ї—М
  6
ByLayer
 62
  256
370
   -1
100
AcDbMText
 10
193
 20
35
 30
0
 40
5
 41
5.555555555555555
 71
    1
 72
    1
  1
1:1
  7
cyrillic_ii
210
0
220
0
230
1
 50
0
 73
    2
 44
1
  0
MTEXT
  5
2D2
100
AcDbEntity
  8
04. —Б–њ–µ—Ж–Є—Д–Є–Ї–∞—Ж–Є—П
  6
ByLayer
 62
  256
370
   -1
100
AcDbMText
 10
117
 20
269
 30
0
 40
5
 41
49.16666666666691
 71
    1
 72
    1
  1
–Ф–Њ–Ї—Г–Љ–µ–љ—В–∞—Ж–Є—П
  7
cyrillic_ii
210
0
220
0
230
1
 50
0
 73
    2
 44
1
  0
MTEXT
  5
2D3
100
AcDbEntity
  8
04. —Б–њ–µ—Ж–Є—Д–Є–Ї–∞—Ж–Є—П
  6
ByLayer
 62
  256
370
   -1
100
AcDbMText
 10
130
 20
237
 30
0
 40
5
 41
24.72222222222246
 71
    1
 72
    1
  1
–Ф–µ—В–∞–ї–Є
  7
cyrillic_ii
210
0
220
0
230
1
 50
0
 73
    2
 44
1
  0
MTEXT
  5
2D4
100
AcDbEntity
  8
04. —Б–њ–µ—Ж–Є—Д–Є–Ї–∞—Ж–Є—П
  6
ByLayer
 62
  256
370
   -1
100
AcDbMText
 10
114
 20
259
 30
0
 40
2.5
 41
31.59722222222222
 71
    1
 72
    1
  1
–°–±–Њ—А–Њ—З–љ—Л–є —З–µ—А—В–µ–ґ
  7
unicode
210
0
220
0
230
1
 50
0
 73
    2
 44
1
  0
MTEXT
  5
2D5
100
AcDbEntity
  8
04. —Б–њ–µ—Ж–Є—Д–Є–Ї–∞—Ж–Є—П
  6
ByLayer
 62
  256
370
   -1
100
AcDbMText
 10
177
 20
227
 30
0
 40
2.5
 41
0.5555555555555556
 71
    1
 72
    1
  1
1
  7
unicode
210
0
220
0
230
1
 50
0
 73
    2
 44
1
  0
MTEXT
  5
2D6
100
AcDbEntity
  8
04. —Б–њ–µ—Ж–Є—Д–Є–Ї–∞—Ж–Є—П
  6
ByLayer
 62
  256
370
   -1
100
AcDbMText
 10
177
 20
219
 30
0
 40
2.5
 41
0.5555555555555556
 71
    1
 72
    1
  1
1
  7
unicode
210
0
220
0
230
1
 50
0
 73
    2
 44
1
  0
MTEXT
  5
2D7
100
AcDbEntity
  8
04. —Б–њ–µ—Ж–Є—Д–Є–Ї–∞—Ж–Є—П
  6
ByLayer
 62
  256
370
   -1
100
AcDbMText
 10
35
 20
227
 30
0
 40
2.5
 41
0.5555555555555556
 71
    1
 72
    1
  1
1
  7
unicode
210
0
220
0
230
1
 50
0
 73
    2
 44
1
  0
MTEXT
  5
2D8
100
AcDbEntity
  8
04. —Б–њ–µ—Ж–Є—Д–Є–Ї–∞—Ж–Є—П
  6
ByLayer
 62
  256
370
   -1
100
AcDbMText
 10
35
 20
219
 30
0
 40
2.5
 41
1.111111111111111
 71
    1
 72
    1
  1
2
  7
unicode
210
0
220
0
230
1
 50
0
 73
    2
 44
1
  0
MTEXT
  5
2D9
100
AcDbEntity
  8
02. –і–µ—А–ґ–∞—В–µ–ї—М
  6
ByLayer
 62
  256
370
   -1
100
AcDbMText
 10
120
 20
13
 30
0
 40
5
 41
48.88888888888913
 71
    5
 72
    1
  1
–Я–Є–ї–Њ–Љ–∞—В–µ—А–Є–∞–ї
  7
cyrillic_ii
210
0
220
0
230
1
 50
0
 73
    2
 44
1
  0
SPLINE
  5
2DA
100
AcDbEntity
  8
–≤—Б–њ–Њ–Љ–Њ–≥–∞—В–µ–ї—М–љ—Л–є
  6
ByLayer
 62
  256
370
   -1
100
AcDbSpline
210
0
220
0
230
0
 70
    8
 71
    2
 72
    8
 73
    5
 74
    0
 42
1e-07
 43
1e-07
 40
0
 40
0
 40
0
 40
0.3333333333333333
 40
0.6666666666666666
 40
1
 40
1
 40
1
 10
148
 20
143
 30
0
 10
135.610995812815
 20
145.7567238340984
 30
0
 10
107.4910659616651
 20
160.6191367012997
 30
0
 10
80.6187141649628
 20
204.9409041848741
 30
0
 10
79.00879657989613
 20
238.8136503904267
 30
0
  0
SPLINE
  5
2DB
100
AcDbEntity
  8
–≤—Б–њ–Њ–Љ–Њ–≥–∞—В–µ–ї—М–љ—Л–є
  6
ByLayer
 62
  256
370
   -1
100
AcDbSpline
210
0
220
0
230
0
 70
    8
 71
    2
 72
    8
 73
    5
 74
    0
 42
1e-07
 43
1e-07
 40
0
 40
0
 40
0
 40
0.3333333333333333
 40
0.6666666666666666
 40
1
 40
1
 40
1
 10
150
 20
145
 30
0
 10
130.7122399446906
 20
146.3394363477091
 30
0
 10
89.8207386778907
 20
162.1494531349161
 30
0
 10
68.05898618806621
 20
188.3991228772294
 30
0
 10
64
 20
200
 30
0
  0
SPLINE
  5
2DC
100
AcDbEntity
  8
–≤—Б–њ–Њ–Љ–Њ–≥–∞—В–µ–ї—М–љ—Л–є
  6
ByLayer
 62
  256
370
   -1
100
AcDbSpline
210
0
220
0
230
0
 70
    8
 71
    2
 72
    8
 73
    5
 74
    0
 42
1e-07
 43
1e-07
 40
0
 40
0
 40
0
 40
0.3333333333333333
 40
0.6666666666666666
 40
1
 40
1
 40
1
 10
43
 20
142
 30
0
 10
64.4434748608185
 20
148.0070678494188
 30
0
 10
91.979254006076
 20
167.1632399599091
 30
0
 10
112.5213875667012
 20
201.954688006362
 30
0
 10
113
 20
237
 30
0
  0
SPLINE
  5
2DD
100
AcDbEntity
  8
–≤—Б–њ–Њ–Љ–Њ–≥–∞—В–µ–ї—М–љ—Л–є
  6
ByLayer
 62
  256
370
   -1
100
AcDbSpline
210
0
220
0
230
0
 70
    8
 71
    2
 72
    9
 73
    6
 74
    0
 42
1e-07
 43
1e-07
 40
0
 40
0
 40
0
 40
0.25
 40
0.5
 40
0.75
 40
1
 40
1
 40
1
 10
137
 20
185
 30
0
 10
125.5872380828083
 20
185.4665190448978
 30
0
 10
106.7383986718516
 20
196.1341021077391
 30
0
 10
96.7356166422754
 20
214.9969552041527
 30
0
 10
94.27305634888479
 20
243.2323473018467
 30
0
 10
96
 20
262
 30
0
  0
MTEXT
  5
2DE
100
AcDbEntity
  8
04. —Б–њ–µ—Ж–Є—Д–Є–Ї–∞—Ж–Є—П
  6
ByLayer
 62
  256
370
   -1
100
AcDbMText
 10
122
 20
197
 30
0
 40
5
 41
37.77777777777801
 71
    1
 72
    1
  1
–Ь–∞—В–µ—А–Є–∞–ї—Л
  7
cyrillic_ii
210
0
220
0
230
1
 50
0
 73
    2
 44
1
  0
MTEXT
  5
2DF
100
AcDbEntity
  8
04. —Б–њ–µ—Ж–Є—Д–Є–Ї–∞—Ж–Є—П
  6
ByLayer
 62
  256
370
   -1
100
AcDbMText
 10
35
 20
187
 30
0
 40
2.5
 41
1.111111111111111
 71
    1
 72
    1
  1
3
  7
unicode
210
0
220
0
230
1
 50
0
 73
    2
 44
1
  0
MTEXT
  5
2E0
100
AcDbEntity
  8
04. —Б–њ–µ—Ж–Є—Д–Є–Ї–∞—Ж–Є—П
  6
ByLayer
 62
  256
370
   -1
100
AcDbMText
 10
35
 20
179
 30
0
 40
2.5
 41
1.388888888888889
 71
    1
 72
    1
  1
4
  7
unicode
210
0
220
0
230
1
 50
0
 73
    2
 44
1
  0
ELLIPSE
  5
2E1
100
AcDbEntity
  8
–≤—Б–њ–Њ–Љ–Њ–≥–∞—В–µ–ї—М–љ—Л–є
  6
ByLayer
 62
  256
370
   -1
100
AcDbEllipse
 10
120.0538334784736
 20
164.4930215861238
 30
0
 11
29.91496047221242
 21
-3.877865246397906
 31
0
 40
0.4267746813604905
 41
0
 42
6.283185307179586
  0
MTEXT
  5
2E2
100
AcDbEntity
  8
05. –≤—Л–њ–Њ–ї–љ–µ–љ–Є–µ —А–∞–±–Њ—В
  6
ByLayer
 62
  256
370
   -1
100
AcDbMText
 10
159.7777777777778
 20
18.5
 30
0
 40
2.5
 41
36.59722222222222
 71
    1
 72
    1
  1
–Я—А–Њ–≥—А–∞–Љ–Љ–∞ –Њ–±—Г—З–µ–љ–Є—П:\P–†–∞–і–Є–Њ—Н–ї–µ–Ї—В—А–Њ–љ–љ–Њ–µ\P–Ї–Њ–љ—Б—В—А—Г–Є—А–Њ–≤–∞–љ–Є–µ
  7
cyrillic_ii
210
0
220
0
230
1
 50
0
 73
    2
 44
1
  0
INSERT
  5
2E3
100
AcDbEntity
  8
05. –≤—Л–њ–Њ–ї–љ–µ–љ–Є–µ —А–∞–±–Њ—В
  6
ByLayer
 62
  256
370
   -1
100
AcDbBlockReference
  2
—И—В–∞–Љ–њ –Р4 –≤—Л–њ–Њ–ї–љ–µ–љ–Є–µ —А–∞–±–Њ—В
 10
0
 20
0
 30
0
 41
1
 42
1
 43
0
 50
0
 70
    1
 71
    1
 44
0
 45
0
  0
MTEXT
  5
2E4
100
AcDbEntity
  8
00. —Н—Б–Ї–Є–Ј
  6
ByLayer
 62
  256
370
   -1
100
AcDbMText
 10
198
 20
23.5
 30
0
 40
2
 41
0.8888888888890129
 71
    1
 72
    1
  1
5
  7
cyrillic_ii
210
0
220
0
230
1
 50
0
 73
    2
 44
1
  0
MTEXT
  5
2E5
100
AcDbEntity
  8
05. –≤—Л–њ–Њ–ї–љ–µ–љ–Є–µ —А–∞–±–Њ—В
  6
ByLayer
 62
  256
370
   -1
100
AcDbMText
 10
145
 20
37
 30
0
 40
5
 41
95.00000000000048
 71
    5
 72
    1
  1
–Э–Њ–≤–Њ–≥–Њ–і–љ—П—П –Б–ї–Њ—З–Ї–∞. –Ю—В—З–µ—В.
  7
cyrillic_ii
210
0
220
0
230
1
 50
0
 73
    2
 44
1
  0
MTEXT
  5
2E6
100
AcDbEntity
  8
05. –≤—Л–њ–Њ–ї–љ–µ–љ–Є–µ —А–∞–±–Њ—В
  6
ByLayer
 62
  256
370
   -1
100
AcDbMText
 10
120.4305555555556
 20
18
 30
0
 40
4
 41
60.88888888888889
 71
    5
 72
    1
  1
–Ь–µ—Б—В–Њ –≤—Л–њ–Њ–ї–љ–µ–љ–Є—П:\P\P__________
  7
cyrillic_ii
210
0
220
0
230
1
 50
0
 73
    2
 44
1
  0
MTEXT
  5
2E7
100
AcDbEntity
  8
—И—В–∞–Љ–њ –Р4 –Ї–љ–Є–ґ–љ—Л–є
  6
ByLayer
 62
  256
370
   -1
100
AcDbMText
 10
179.7777777777778
 20
12.5
 30
0
 40
2.5
 41
36.59722222222222
 71
    5
 72
    1
  1
–Я—А–Њ–≥—А–∞–Љ–Љ–∞ –Њ–±—Г—З–µ–љ–Є—П:\P¬Ђ–≠–ї–µ–Ї—В—А–Њ–љ–љ–Њ–µ\P–Ї–Њ–љ—Б—В—А—Г–Є—А–Њ–≤–∞–љ–Є–µ¬ї
  7
cyrillic_ii
210
0
220
0
230
1
 50
0
 73
    2
 44
1
  0
MTEXT
  5
2E8
100
AcDbEntity
  8
05. –≤—Л–њ–Њ–ї–љ–µ–љ–Є–µ —А–∞–±–Њ—В
  6
ByLayer
 62
  256
370
   -1
100
AcDbMText
 10
40
 20
28
 30
0
 40
2
 41
14.38888888888898
 71
    1
 72
    1
  1
–Р–≤—В–Њ—А –Ш.–Ю.
  7
cyrillic_ii
210
0
220
0
230
1
 50
0
 73
    2
 44
1
  0
INSERT
  5
2E9
100
AcDbEntity
  8
—И—В–∞–Љ–њ –Р4 —В–Є—В—Г–ї
  6
ByLayer
 62
  256
370
   -1
100
AcDbBlockReference
  2
—И—В–∞–Љ–њ –Р4 —В–Є—В—Г–ї
 10
0
 20
0
 30
0
 41
1
 42
1
 43
0
 50
0
 70
    1
 71
    1
 44
1
 45
1
  0
LINE
  5
2EA
100
AcDbEntity
  8
–≤—Б–њ–Њ–Љ–Њ–≥–∞—В–µ–ї—М–љ—Л–є
  6
ByLayer
 62
  256
370
   -1
100
AcDbLine
 10
112.5
 20
10
 11
112.5
 21
320
  0
MTEXT
  5
2EB
100
AcDbEntity
  8
00. —В–Є—В—Г–ї—М–љ—Л–є
  6
ByLayer
 62
  256
370
   70
100
AcDbMText
 10
86
 20
28
 30
0
 40
5
 41
52.36111111111135
 71
    1
 72
    1
  1
–≥. –Т–ї–∞–і–Є–≤–Њ—Б—В–Њ–Ї
  7
cyrillic_ii
210
0
220
0
230
1
 50
0
 73
    2
 44
1
  0
MTEXT
  5
2EC
100
AcDbEntity
  8
00. —В–Є—В—Г–ї—М–љ—Л–є
  6
ByLayer
 62
  256
370
   50
100
AcDbMText
 10
26
 20
80
 30
0
 40
5
 41
172.5000000000007
 71
    1
 72
    1
  3
–Э–∞–Ј–љ–∞—З–µ–љ–Є–µ: –Ю–±—А–∞–Ј–Њ–≤–∞—В–µ–ї—М–љ–Њ–µ —Г—Б—В—А–Њ–є—Б—В–≤–Њ –і–ї—П\P—Б–±–Њ—А–Ї–Є –Є –Є–Ј—Г—З–µ–љ–Є—П –Њ—Б–љ–Њ–≤ –Ї–Њ–љ—Б—В—А—Г–Є—А–Њ–≤–∞–љ–Є—П,\P—Н–ї–µ–Ї—В—А–Њ–љ–Є–Ї–Є –Є —Б—Е–µ–Љ–Њ—В–µ—Е–љ–Є–Ї–Є, —А–∞–Ј–≤–Є—В–Є—П –љ–∞–≤—Л–Ї–Њ–≤\P—А–∞–±
  1
–Њ—В—Л —Б –Є–љ—Б—В—А—Г–Љ–µ–љ—В–Њ–Љ –Є –Њ–±–Њ—А—Г–і–Њ–≤–∞–љ–Є–µ–Љ.
  7
cyrillic_ii
210
0
220
0
230
1
 50
0
 73
    2
 44
1
  0
MTEXT
  5
2ED
100
AcDbEntity
  8
—И—В–∞–Љ–њ –Р4 –Ї–љ–Є–ґ–љ—Л–є
  6
ByLayer
 62
  256
370
   -1
100
AcDbMText
 10
40
 20
33.40000000000001
 30
0
 40
2
 41
17.61111111111111
 71
    1
 72
    1
  1
–§–∞–Љ–Є–ї–Є—П –Ш.–Ю.
  7
cyrillic_ii
210
0
220
0
230
1
 50
0
 73
    2
 44
1
  0
MTEXT
  5
2EE
100
AcDbEntity
  8
—И—В–∞–Љ–њ –Р4 —Б–њ–µ—Ж–Є—Д–Є–Ї–∞—Ж–Є—П
  6
ByLayer
 62
  256
370
   -1
100
AcDbMText
 10
40
 20
28
 30
0
 40
2
 41
17.61111111111111
 71
    1
 72
    1
  1
–§–∞–Љ–Є–ї–Є—П –Ш.–Ю.
  7
cyrillic_ii
210
0
220
0
230
1
 50
0
 73
    2
 44
1
  0
MTEXT
  5
2EF
100
AcDbEntity
  8
—И—В–∞–Љ–њ A4 –∞–ї—М–±–Њ–Љ–љ—Л–є
  6
ByLayer
 62
  256
370
   -1
100
AcDbMText
 10
176.6
 20
127
 30
0
 40
2
 41
17.61111111111111
 71
    1
 72
    1
  1
–§–∞–Љ–Є–ї–Є—П –Ш.–Ю.
  7
cyrillic_ii
210
0
220
0
230
1
 50
90
 73
    2
 44
1
  0
MTEXT
  5
2F0
100
AcDbEntity
  8
—И—В–∞–Љ–њ A4 –∞–ї—М–±–Њ–Љ–љ—Л–є
  6
ByLayer
 62
  256
370
   -1
100
AcDbMText
 10
191.5
 20
246.7777777777778
 30
0
 40
2.5
 41
36.59722222222222
 71
    1
 72
    1
  1
–Я—А–Њ–≥—А–∞–Љ–Љ–∞ –Њ–±—Г—З–µ–љ–Є—П:\P¬Ђ–≠–ї–µ–Ї—В—А–Њ–љ–љ–Њ–µ\P–Ї–Њ–љ—Б—В—А—Г–Є—А–Њ–≤–∞–љ–Є–µ¬ї
  7
cyrillic_ii
210
0
220
0
230
1
 50
90
 73
    2
 44
1
  0
MTEXT
  5
2F1
100
AcDbEntity
  8
00. —В–Є—В—Г–ї—М–љ—Л–є
  6
ByLayer
 62
  256
370
   50
100
AcDbMText
 10
134.5555555555554
 20
116
 30
0
 40
4
 41
34.44444444444463
 71
    1
 72
    1
  1
–†–∞–Ј—А–∞–±–Њ—В–∞–ї:
  7
cyrillic_ii
210
0
220
0
230
1
 50
0
 73
    2
 44
1
  0
MTEXT
  5
2F2
100
AcDbEntity
  8
00. —В–Є—В—Г–ї—М–љ—Л–є
  6
ByLayer
 62
  256
370
   70
100
AcDbMText
 10
82.77777777777777
 20
151
 30
0
 40
5
 41
64.86111111111136
 71
    1
 72
    1
  1
–°–±–Њ—А–Њ—З–љ—Л–є —З–µ—А—В–µ–ґ.
  7
cyrillic_ii
210
0
220
0
230
1
 50
0
 73
    2
 44
1
  0
MTEXT
  5
2F3
100
AcDbEntity
  8
00. —В–Є—В—Г–ї—М–љ—Л–є
  6
ByLayer
 62
  256
370
  100
100
AcDbMText
 10
111.8749999999996
 20
174
 30
0
 40
9
 41
165.2500000000009
 71
    5
 72
    1
  1
–Э–∞—Б—В–Њ–ї—М–љ–∞—П —Б–≤–µ—В–Њ–і–Є–Њ–і–љ–∞—П\P–ї–∞–Љ–њ–∞ —Б —А–∞—Б—В–µ–љ–Є–µ–Љ
  7
cyrillic_ii
210
0
220
0
230
1
 50
0
 73
    2
 44
1
  0
MTEXT
  5
2F4
100
AcDbEntity
  8
00. —Н—Б–Ї–Є–Ј
  6
ByLayer
 62
  256
370
   -1
100
AcDbMText
 10
93
 20
55
 30
0
 40
4
 41
104.2222222222228
 71
    1
 72
    1
  1
–Э–∞—Б—В–Њ–ї—М–љ–∞—П –ї–∞–Љ–њ–∞ —Б —А–∞—Б—В–µ–љ–Є–µ–Љ. 000
  7
cyrillic_ii
210
0
220
0
230
1
 50
0
 73
    2
 44
1
  0
MTEXT
  5
2F5
100
AcDbEntity
  8
01. –Њ—Б–љ–Њ–≤–∞–љ–Є–µ
  6
ByLayer
 62
  256
370
   -1
100
AcDbMText
 10
93
 20
55
 30
0
 40
4
 41
103.3333333333339
 71
    1
 72
    1
  1
–Э–∞—Б—В–Њ–ї—М–љ–∞—П –ї–∞–Љ–њ–∞ —Б —А–∞—Б—В–µ–љ–Є–µ–Љ. 001
  7
cyrillic_ii
210
0
220
0
230
1
 50
0
 73
    2
 44
1
  0
MTEXT
  5
2F6
100
AcDbEntity
  8
01. –Њ—Б–љ–Њ–≤–∞–љ–Є–µ
  6
ByLayer
 62
  256
370
   -1
100
AcDbMText
 10
120.4305555555556
 20
33
 30
0
 40
5
 41
34.16666666666667
 71
    5
 72
    1
  1
–Ю—Б–љ–Њ–≤–∞–љ–Є–µ
  7
cyrillic_ii
210
0
220
0
230
1
 50
0
 73
    2
 44
1
  0
MTEXT
  5
2F7
100
AcDbEntity
  8
01. –Њ—Б–љ–Њ–≤–∞–љ–Є–µ
  6
ByLayer
 62
  256
370
   -1
100
AcDbMText
 10
120
 20
13
 30
0
 40
5
 41
48.88888888888913
 71
    5
 72
    1
  1
–Я–Є–ї–Њ–Љ–∞—В–µ—А–Є–∞–ї
  7
cyrillic_ii
210
0
220
0
230
1
 50
0
 73
    2
 44
1
  0
LWPOLYLINE
  5
2F8
100
AcDbEntity
  8
01. –Њ—Б–љ–Њ–≤–∞–љ–Є–µ
  6
ByLayer
 62
  256
370
   50
100
AcDbPolyline
 90
    4
 70
    1
 43
0
 10
40
 20
280
 10
150
 20
280
 10
150
 20
110
 10
40
 20
110
  0
LINE
  5
2F9
100
AcDbEntity
  8
01. –Њ—Б–љ–Њ–≤–∞–љ–Є–µ
  6
ByLayer
 62
  256
370
   50
100
AcDbLine
 10
40
 20
120
 11
150
 21
120
  0
LWPOLYLINE
  5
2FA
100
AcDbEntity
  8
01. –Њ—Б–љ–Њ–≤–∞–љ–Є–µ
  6
ByLayer
 62
  256
370
   50
100
AcDbPolyline
 90
    4
 70
    1
 43
0
 10
170
 20
280
 10
190
 20
280
 10
190
 20
110
 10
170
 20
120
  0
DIMENSION
  5
2FB
100
AcDbEntity
  8
01. –Њ—Б–љ–Њ–≤–∞–љ–Є–µ
  6
ByLayer
 62
   96
420
32768
370
   -1
100
AcDbDimension
  2
*D1
 10
30
 20
110
 30
0
 11
28.12500000000001
 21
195
 31
0
 70
   32
 71
    5
  3
Standard
 53
0
210
0
220
0
230
1
100
AcDbAlignedDimension
 13
40
 23
280
 33
0
 14
40
 24
110
 34
0
 50
90
100
AcDbRotatedDimension
  0
DIMENSION
  5
2FC
100
AcDbEntity
  8
01. –Њ—Б–љ–Њ–≤–∞–љ–Є–µ
  6
ByLayer
 62
   96
420
32768
370
   -1
100
AcDbDimension
  2
*D2
 10
150
 20
100
 30
0
 11
95
 21
101.875
 31
0
 70
   32
 71
    5
  3
Standard
 53
0
210
0
220
0
230
1
100
AcDbAlignedDimension
 13
40
 23
110
 33
0
 14
150
 24
110
 34
0
100
AcDbRotatedDimension
  0
DIMENSION
  5
2FD
100
AcDbEntity
  8
01. –Њ—Б–љ–Њ–≤–∞–љ–Є–µ
  6
ByLayer
 62
   96
420
32768
370
   -1
100
AcDbDimension
  2
*D3
 10
160
 20
120
 30
0
 11
158.125
 21
200
 31
0
 70
   32
 71
    5
  3
Standard
 53
0
210
0
220
0
230
1
100
AcDbAlignedDimension
 13
170
 23
280
 33
0
 14
170
 24
120
 34
0
 50
90
100
AcDbRotatedDimension
  0
DIMENSION
  5
2FE
100
AcDbEntity
  8
01. –Њ—Б–љ–Њ–≤–∞–љ–Є–µ
  6
ByLayer
 62
   96
420
32768
370
   -1
100
AcDbDimension
  2
*D4
 10
190
 20
100
 30
0
 11
180
 21
101.875
 31
0
 70
   32
 71
    5
  3
Standard
 53
0
210
0
220
0
230
1
100
AcDbAlignedDimension
 13
170
 23
120
 33
0
 14
190
 24
110
 34
0
100
AcDbRotatedDimension
  0
MTEXT
  5
2FF
100
AcDbEntity
  8
02. –і–µ—А–ґ–∞—В–µ–ї—М
  6
ByLayer
 62
  256
370
   -1
100
AcDbMText
 10
120.4305555555556
 20
33
 30
0
 40
5
 41
37.50000000000023
 71
    5
 72
    1
  1
–Ф–µ—А–ґ–∞—В–µ–ї—М
  7
cyrillic_ii
210
0
220
0
230
1
 50
0
 73
    2
 44
1
  0
MTEXT
  5
300
100
AcDbEntity
  8
02. –і–µ—А–ґ–∞—В–µ–ї—М
  6
ByLayer
 62
  256
370
   -1
100
AcDbMText
 10
93
 20
55
 30
0
 40
4
 41
104.2222222222228
 71
    1
 72
    1
  1
–Э–∞—Б—В–Њ–ї—М–љ–∞—П –ї–∞–Љ–њ–∞ —Б —А–∞—Б—В–µ–љ–Є–µ–Љ. 002
  7
cyrillic_ii
210
0
220
0
230
1
 50
0
 73
    2
 44
1
  0
MTEXT
  5
301
100
AcDbEntity
  8
03. —Б–±–Њ—А–Њ—З–љ—Л–є —З–µ—А—В–µ–ґ
  6
ByLayer
 62
  256
370
   -1
100
AcDbMText
 10
88
 20
55
 30
0
 40
4
 41
113.88888888889
 71
    1
 72
    1
  1
–Э–∞—Б—В–Њ–ї—М–љ–∞—П –ї–∞–Љ–њ–∞ —Б —А–∞—Б—В–µ–љ–Є–µ–Љ. 003 –°–С
  7
cyrillic_ii
210
0
220
0
230
1
 50
0
 73
    2
 44
1
  0
MTEXT
  5
302
100
AcDbEntity
  8
03. —Б–±–Њ—А–Њ—З–љ—Л–є —З–µ—А—В–µ–ґ
  6
ByLayer
 62
  256
370
   -1
100
AcDbMText
 10
120.4305555555556
 20
33
 30
0
 40
4
 41
52.33333333333371
 71
    5
 72
    1
  1
–Э–∞—Б—В–Њ–ї—М–љ–∞—П –ї–∞–Љ–њ–∞\P—Б —А–∞—Б—В–µ–љ–Є–µ–Љ\P–°–±–Њ—А–Њ—З–љ—Л–є —З–µ—А—В–µ–ґ
  7
cyrillic_ii
210
0
220
0
230
1
 50
0
 73
    2
 44
1
  0
MTEXT
  5
303
100
AcDbEntity
  8
03. —Б–±–Њ—А–Њ—З–љ—Л–є —З–µ—А—В–µ–ґ
  6
ByLayer
 62
  256
370
   -1
100
AcDbMText
 10
193
 20
35
 30
0
 40
5
 41
6.666666666666667
 71
    1
 72
    1
  1
1:2
  7
cyrillic_ii
210
0
220
0
230
1
 50
0
 73
    2
 44
1
  0
LINE
  5
304
100
AcDbEntity
  8
01. –Њ—Б–љ–Њ–≤–∞–љ–Є–µ
  6
DASHEDTINY
 62
  256
370
   -1
100
AcDbLine
 10
95
 20
285
 11
95
 21
105
  0
CIRCLE
  5
305
100
AcDbEntity
  8
01. –Њ—Б–љ–Њ–≤–∞–љ–Є–µ
  6
ByLayer
 62
  256
370
   50
100
AcDbCircle
 10
95
 20
250
 40
9
  0
DIMENSION
  5
306
100
AcDbEntity
  8
01. –Њ—Б–љ–Њ–≤–∞–љ–Є–µ
  6
ByLayer
 62
   96
420
32768
370
   -1
100
AcDbDimension
  2
*D5
 10
87.5115473509594
 20
245.0076982339729
 30
0
 11
93.9599371320777
 21
251.5600943018835
 31
0
 70
   35
 71
    5
  3
Standard
 53
0
210
0
220
0
230
1
100
AcDbDiametricDimension
 15
102.4884526490406
 25
254.9923017660271
 35
0
 40
0
  0
LINE
  5
307
100
AcDbEntity
  8
01. –Њ—Б–љ–Њ–≤–∞–љ–Є–µ
  6
DASHED2
 62
  256
370
   -1
100
AcDbLine
 10
170
 20
259
 11
190
 21
259
  0
LINE
  5
308
100
AcDbEntity
  8
01. –Њ—Б–љ–Њ–≤–∞–љ–Є–µ
  6
DASHED2
 62
  256
370
   -1
100
AcDbLine
 10
170
 20
241
 11
190
 21
241
  0
DIMENSION
  5
309
100
AcDbEntity
  8
01. –Њ—Б–љ–Њ–≤–∞–љ–Є–µ
  6
ByLayer
 62
   96
420
32768
370
   -1
100
AcDbDimension
  2
*D6
 10
80
 20
280
 30
0
 11
78.125
 21
265
 31
0
 70
   32
 71
    5
  3
Standard
 53
0
210
0
220
0
230
1
100
AcDbAlignedDimension
 13
95
 23
250
 33
0
 14
95
 24
280
 34
0
 50
90
100
AcDbRotatedDimension
  0
CIRCLE
  5
30A
100
AcDbEntity
  8
01. –Њ—Б–љ–Њ–≤–∞–љ–Є–µ
  6
DOTX2
 62
  256
370
   -1
100
AcDbCircle
 10
95
 20
174.9999999999999
 40
35
  0
CIRCLE
  5
30B
100
AcDbEntity
  8
01. –Њ—Б–љ–Њ–≤–∞–љ–Є–µ
  6
ByLayer
 62
  256
370
   50
100
AcDbCircle
 10
95
 20
210
 40
1
  0
CIRCLE
  5
30C
100
AcDbEntity
  8
01. –Њ—Б–љ–Њ–≤–∞–љ–Є–µ
  6
ByLayer
 62
  256
370
   50
100
AcDbCircle
 10
60
 20
175
 40
1
  0
DIMENSION
  5
30D
100
AcDbEntity
  8
01. –Њ—Б–љ–Њ–≤–∞–љ–Є–µ
  6
ByLayer
 62
   96
420
32768
370
   -1
100
AcDbDimension
  2
*D7
 10
59
 20
175
 30
0
 11
60
 21
176.875
 31
0
 70
   35
 71
    5
  3
Standard
 53
0
210
0
220
0
230
1
100
AcDbDiametricDimension
 15
61
 25
175
 35
0
 40
0
  0
DIMENSION
  5
30E
100
AcDbEntity
  8
01. –Њ—Б–љ–Њ–≤–∞–љ–Є–µ
  6
ByLayer
 62
   96
420
32768
370
   -1
100
AcDbDimension
  2
*D8
 10
94.29289321881345
 20
209.2928932188134
 30
0
 11
93.67417478527523
 21
211.3258252147248
 31
0
 70
   35
 71
    5
  3
Standard
 53
0
210
0
220
0
230
1
100
AcDbDiametricDimension
 15
95.70710678118655
 25
210.7071067811866
 35
0
 40
0
  0
DIMENSION
  5
30F
100
AcDbEntity
  8
01. –Њ—Б–љ–Њ–≤–∞–љ–Є–µ
  6
ByLayer
 62
   96
420
32768
370
   -1
100
AcDbDimension
  2
*D9
 10
65.87823969817558
 20
155.5854931321167
 30
0
 11
93.95993713207768
 21
176.5600943018833
 31
0
 70
   35
 71
    5
  3
Standard
 53
0
210
0
220
0
230
1
100
AcDbDiametricDimension
 15
124.1217603018244
 25
194.4145068678831
 35
0
 40
0
  0
DIMENSION
  5
310
100
AcDbEntity
  8
01. –Њ—Б–љ–Њ–≤–∞–љ–Є–µ
  6
ByLayer
 62
   96
420
32768
370
   -1
100
AcDbDimension
  2
*D10
 10
140
 20
280
 30
0
 11
138.125
 21
227.4999999999999
 31
0
 70
   32
 71
    5
  3
Standard
 53
0
210
0
220
0
230
1
100
AcDbAlignedDimension
 13
95
 23
174.9999999999999
 33
0
 14
95
 24
280
 34
0
 50
90
100
AcDbRotatedDimension
  0
MTEXT
  5
311
100
AcDbEntity
  8
04. —Б–њ–µ—Ж–Є—Д–Є–Ї–∞—Ж–Є—П
  6
ByLayer
 62
  256
370
   -1
100
AcDbMText
 10
93
 20
40
 30
0
 40
4
 41
104.222222222223
 71
    1
 72
    1
  1
–Э–∞—Б—В–Њ–ї—М–љ–∞—П –ї–∞–Љ–њ–∞ —Б —А–∞—Б—В–µ–љ–Є–µ–Љ. 003
  7
cyrillic_ii
210
0
220
0
230
1
 50
0
 73
    2
 44
1
  0
MTEXT
  5
312
100
AcDbEntity
  8
04. —Б–њ–µ—Ж–Є—Д–Є–Ї–∞—Ж–Є—П
  6
ByLayer
 62
  256
370
   -1
100
AcDbMText
 10
121.3194444444444
 20
20
 30
0
 40
4
 41
52.33333333333371
 71
    5
 72
    1
  1
–Э–∞—Б—В–Њ–ї—М–љ–∞—П –ї–∞–Љ–њ–∞\P—Б —А–∞—Б—В–µ–љ–Є–µ–Љ
  7
cyrillic_ii
210
0
220
0
230
1
 50
0
 73
    2
 44
1
  0
MTEXT
  5
313
100
AcDbEntity
  8
—И—В–∞–Љ–њ –Р4 —Б–њ–µ—Ж–Є—Д–Є–Ї–∞—Ж–Є—П
  6
ByLayer
 62
  256
370
   -1
100
AcDbMText
 10
179.7777777777778
 20
12.5
 30
0
 40
2.5
 41
36.59722222222222
 71
    5
 72
    1
  1
–Я—А–Њ–≥—А–∞–Љ–Љ–∞ –Њ–±—Г—З–µ–љ–Є—П:\P¬Ђ–≠–ї–µ–Ї—В—А–Њ–љ–љ–Њ–µ\P–Ї–Њ–љ—Б—В—А—Г–Є—А–Њ–≤–∞–љ–Є–µ¬ї
  7
cyrillic_ii
210
0
220
0
230
1
 50
0
 73
    2
 44
1
  0
MTEXT
  5
314
100
AcDbEntity
  8
04. —Б–њ–µ—Ж–Є—Д–Є–Ї–∞—Ж–Є—П
  6
ByLayer
 62
  256
370
   -1
100
AcDbMText
 10
44
 20
259
 30
0
 40
2.2
 41
62.63888888888889
 71
    1
 72
    1
  1
–Э–∞—Б—В–Њ–ї—М–љ–∞—П –ї–∞–Љ–њ–∞ —Б —А–∞—Б—В–µ–љ–Є–µ–Љ. 003 –°–С
  7
unicode
210
0
220
0
230
1
 50
0
 73
    2
 44
1
  0
MTEXT
  5
315
100
AcDbEntity
  8
04. —Б–њ–µ—Ж–Є—Д–Є–Ї–∞—Ж–Є—П
  6
ByLayer
 62
  256
370
   -1
100
AcDbMText
 10
44
 20
227
 30
0
 40
2.2
 41
56.83333333333334
 71
    1
 72
    1
  1
–Э–∞—Б—В–Њ–ї—М–љ–∞—П –ї–∞–Љ–њ–∞ —Б —А–∞—Б—В–µ–љ–Є–µ–Љ. 001
  7
unicode
210
0
220
0
230
1
 50
0
 73
    2
 44
1
  0
MTEXT
  5
316
100
AcDbEntity
  8
04. —Б–њ–µ—Ж–Є—Д–Є–Ї–∞—Ж–Є—П
  6
ByLayer
 62
  256
370
   -1
100
AcDbMText
 10
44
 20
219
 30
0
 40
2.2
 41
57.32222222222222
 71
    1
 72
    1
  1
–Э–∞—Б—В–Њ–ї—М–љ–∞—П –ї–∞–Љ–њ–∞ —Б —А–∞—Б—В–µ–љ–Є–µ–Љ. 002
  7
unicode
210
0
220
0
230
1
 50
0
 73
    2
 44
1
  0
MTEXT
  5
317
100
AcDbEntity
  8
04. —Б–њ–µ—Ж–Є—Д–Є–Ї–∞—Ж–Є—П
  6
ByLayer
 62
  256
370
   -1
100
AcDbMText
 10
114
 20
227
 30
0
 40
2.5
 41
17.08333333333334
 71
    1
 72
    1
  1
–Ю—Б–љ–Њ–≤–∞–љ–Є–µ
  7
unicode
210
0
220
0
230
1
 50
0
 73
    2
 44
1
  0
MTEXT
  5
318
100
AcDbEntity
  8
04. —Б–њ–µ—Ж–Є—Д–Є–Ї–∞—Ж–Є—П
  6
ByLayer
 62
  256
370
   -1
100
AcDbMText
 10
114
 20
219
 30
0
 40
2.5
 41
18.75
 71
    1
 72
    1
  1
–Ф–µ—А–ґ–∞—В–µ–ї—М
  7
unicode
210
0
220
0
230
1
 50
0
 73
    2
 44
1
  0
MTEXT
  5
319
100
AcDbEntity
  8
04. —Б–њ–µ—Ж–Є—Д–Є–Ї–∞—Ж–Є—П
  6
ByLayer
 62
  256
370
   -1
100
AcDbMText
 10
114
 20
187
 30
0
 40
2.5
 41
50.97222222222223
 71
    1
 72
    1
  1
–Я–Є–ї–Њ–Љ–∞—В–µ—А–Є–∞–ї –У–Ю–°–Ґ 8486-86
  7
unicode
210
0
220
0
230
1
 50
0
 73
    2
 44
1
  0
MTEXT
  5
31A
100
AcDbEntity
  8
04. —Б–њ–µ—Ж–Є—Д–Є–Ї–∞—Ж–Є—П
  6
ByLayer
 62
  256
370
   -1
100
AcDbMText
 10
114
 20
179
 30
0
 40
2.5
 41
51.31944444444445
 71
    1
 72
    1
  1
–Ґ—А—Г–±–∞ –≥–Њ—Д—А–Є—А–Њ–≤–∞–љ–љ–∞—П  –љ–µ—А–ґ.
  7
unicode
210
0
220
0
230
1
 50
0
 73
    2
 44
1
  0
LWPOLYLINE
  5
31B
100
AcDbEntity
  8
03. —Б–±–Њ—А–Њ—З–љ—Л–є —З–µ—А—В–µ–ґ
  6
ByLayer
 62
  256
370
   -1
100
AcDbPolyline
 90
    4
 70
    1
 43
0
 10
79.5
 20
140
 10
159.5
 20
140
 10
164.5
 20
130
 10
79.5
 20
130
  0
LWPOLYLINE
  5
31C
100
AcDbEntity
  8
03. —Б–±–Њ—А–Њ—З–љ—Л–є —З–µ—А—В–µ–ґ
  6
ByLayer
 62
  256
370
   -1
100
AcDbPolyline
 90
    4
 70
    1
 43
0
 10
79.5
 20
260
 10
149.5
 20
260
 10
144.5
 20
250
 10
79.5
 20
250
  0
LINE
  5
31D
100
AcDbEntity
  8
03. —Б–±–Њ—А–Њ—З–љ—Л–є —З–µ—А—В–µ–ґ
  6
ByLayer
 62
  256
370
   -1
100
AcDbLine
 10
164.5
 20
130
 11
79.5
 21
130
  0
LWPOLYLINE
  5
31E
100
AcDbEntity
  8
03. —Б–±–Њ—А–Њ—З–љ—Л–є —З–µ—А—В–µ–ґ
  6
ByLayer
 62
  256
370
   -1
100
AcDbPolyline
 90
    4
 70
    1
 43
0
 10
149.5
 20
140
 10
114.5
 20
140
 10
114.5
 20
175
 10
149.5
 20
175
  0
LWPOLYLINE
  5
31F
100
AcDbEntity
  8
03. —Б–±–Њ—А–Њ—З–љ—Л–є —З–µ—А—В–µ–ґ
  6
ByLayer
 62
  256
370
   -1
100
AcDbPolyline
 90
    4
 70
    1
 43
0
 10
90
 20
140
 10
99
 20
140
 10
99
 20
250
 10
90
 20
250
  0
LINE
  5
320
100
AcDbEntity
  8
03. —Б–±–Њ—А–Њ—З–љ—Л–є —З–µ—А—В–µ–ґ
  6
DASHEDTINY
 62
  256
370
   -1
100
AcDbLine
 10
90
 20
250
 11
90
 21
260
  0
LINE
  5
321
100
AcDbEntity
  8
03. —Б–±–Њ—А–Њ—З–љ—Л–є —З–µ—А—В–µ–ґ
  6
DASHEDTINY
 62
  256
370
   -1
100
AcDbLine
 10
99
 20
250
 11
99
 21
260
  0
LINE
  5
322
100
AcDbEntity
  8
03. —Б–±–Њ—А–Њ—З–љ—Л–є —З–µ—А—В–µ–ґ
  6
DASHEDTINY
 62
  256
370
   -1
100
AcDbLine
 10
90
 20
140
 11
90
 21
130
  0
LINE
  5
323
100
AcDbEntity
  8
03. —Б–±–Њ—А–Њ—З–љ—Л–є —З–µ—А—В–µ–ґ
  6
DASHEDTINY
 62
  256
370
   -1
100
AcDbLine
 10
99
 20
140
 11
99
 21
130
  0
LINE
  5
324
100
AcDbEntity
  8
03. —Б–±–Њ—А–Њ—З–љ—Л–є —З–µ—А—В–µ–ґ
  6
DASHEDTINY
 62
  256
370
   -1
100
AcDbLine
 10
132
 20
125
 11
132
 21
279
  0
LWPOLYLINE
  5
325
100
AcDbEntity
  8
03. —Б–±–Њ—А–Њ—З–љ—Л–є —З–µ—А—В–µ–ґ
  6
ByLayer
 62
  256
370
   -1
100
AcDbPolyline
 90
   10
 70
    1
 43
0
 10
149.5000000000001
 20
215
 10
114.5
 20
215
 10
114.5
 20
230
 42
-0.173213749463701
 10
119.5
 20
245
 42
0.1598693560093156
 10
126
 20
260
 10
126
 20
274
 10
138
 20
274
 10
138
 20
260
 42
0.1598693560093156
 10
144.5000000000001
 20
245
 42
-0.173213749463701
 10
149.5000000000001
 20
230
  0
POINT
  5
326
100
AcDbEntity
  8
03. —Б–±–Њ—А–Њ—З–љ—Л–є —З–µ—А—В–µ–ґ
  6
ByLayer
 62
  256
370
  100
100
AcDbPoint
 10
160
 20
134
  0
POINT
  5
327
100
AcDbEntity
  8
03. —Б–±–Њ—А–Њ—З–љ—Л–є —З–µ—А—В–µ–ґ
  6
ByLayer
 62
  256
370
  100
100
AcDbPoint
 10
146
 20
258
  0
LINE
  5
328
100
AcDbEntity
  8
03. —Б–±–Њ—А–Њ—З–љ—Л–є —З–µ—А—В–µ–ґ
  6
ByLayer
 62
  256
370
   -1
100
AcDbLine
 10
146
 20
258
 11
151
 21
263
  0
LINE
  5
329
100
AcDbEntity
  8
03. —Б–±–Њ—А–Њ—З–љ—Л–є —З–µ—А—В–µ–ґ
  6
ByLayer
 62
  256
370
   -1
100
AcDbLine
 10
151
 20
263
 11
156
 21
263
  0
LINE
  5
32A
100
AcDbEntity
  8
03. —Б–±–Њ—А–Њ—З–љ—Л–є —З–µ—А—В–µ–ґ
  6
ByLayer
 62
  256
370
   -1
100
AcDbLine
 10
160
 20
134
 11
165
 21
139
  0
LINE
  5
32B
100
AcDbEntity
  8
03. —Б–±–Њ—А–Њ—З–љ—Л–є —З–µ—А—В–µ–ґ
  6
ByLayer
 62
  256
370
   -1
100
AcDbLine
 10
165
 20
139
 11
170
 21
139
  0
MTEXT
  5
32C
100
AcDbEntity
  8
03. —Б–±–Њ—А–Њ—З–љ—Л–є —З–µ—А—В–µ–ґ
  6
ByLayer
 62
  256
370
   -1
100
AcDbMText
 10
167
 20
143
 30
0
 40
3
 41
0.6666666666666666
 71
    1
 72
    1
  1
1
  7
cyrillic_ii
210
0
220
0
230
1
 50
0
 73
    2
 44
1
  0
MTEXT
  5
32D
100
AcDbEntity
  8
03. —Б–±–Њ—А–Њ—З–љ—Л–є —З–µ—А—В–µ–ґ
  6
ByLayer
 62
  256
370
   -1
100
AcDbMText
 10
153
 20
267
 30
0
 40
3
 41
1.333333333333333
 71
    1
 72
    1
  1
2
  7
cyrillic_ii
210
0
220
0
230
1
 50
0
 73
    2
 44
1
  0
POINT
  5
32E
100
AcDbEntity
  8
03. —Б–±–Њ—А–Њ—З–љ—Л–є —З–µ—А—В–µ–ґ
  6
ByLayer
 62
  256
370
  100
100
AcDbPoint
 10
93
 20
229
  0
LINE
  5
32F
100
AcDbEntity
  8
03. —Б–±–Њ—А–Њ—З–љ—Л–є —З–µ—А—В–µ–ґ
  6
ByLayer
 62
  256
370
   -1
100
AcDbLine
 10
93
 20
229
 11
88
 21
234
  0
LINE
  5
330
100
AcDbEntity
  8
03. —Б–±–Њ—А–Њ—З–љ—Л–є —З–µ—А—В–µ–ґ
  6
ByLayer
 62
  256
370
   -1
100
AcDbLine
 10
88
 20
234
 11
83
 21
234
  0
MTEXT
  5
331
100
AcDbEntity
  8
03. —Б–±–Њ—А–Њ—З–љ—Л–є —З–µ—А—В–µ–ґ
  6
ByLayer
 62
  256
370
   -1
100
AcDbMText
 10
86
 20
238
 30
0
 40
3
 41
1.333333333333519
 71
    3
 72
    1
  1
3
  7
cyrillic_ii
210
0
220
0
230
1
 50
0
 73
    2
 44
1
  0
POINT
  5
332
100
AcDbEntity
  8
03. —Б–±–Њ—А–Њ—З–љ—Л–є —З–µ—А—В–µ–ґ
  6
ByLayer
 62
  256
370
  100
100
AcDbPoint
 10
148
 20
217
  0
LINE
  5
333
100
AcDbEntity
  8
03. —Б–±–Њ—А–Њ—З–љ—Л–є —З–µ—А—В–µ–ґ
  6
ByLayer
 62
  256
370
   -1
100
AcDbLine
 10
148
 20
217
 11
153
 21
222
  0
MTEXT
  5
334
100
AcDbEntity
  8
03. —Б–±–Њ—А–Њ—З–љ—Л–є —З–µ—А—В–µ–ґ
  6
ByLayer
 62
  256
370
   -1
100
AcDbMText
 10
155
 20
226
 30
0
 40
3
 41
5.666666666666667
 71
    1
 72
    1
  1
4-1
  7
cyrillic_ii
210
0
220
0
230
1
 50
0
 73
    2
 44
1
  0
LINE
  5
335
100
AcDbEntity
  8
03. —Б–±–Њ—А–Њ—З–љ—Л–є —З–µ—А—В–µ–ґ
  6
ByLayer
 62
  256
370
   -1
100
AcDbLine
 10
153
 20
222
 11
162
 21
222
  0
POINT
  5
336
100
AcDbEntity
  8
03. —Б–±–Њ—А–Њ—З–љ—Л–є —З–µ—А—В–µ–ґ
  6
ByLayer
 62
  256
370
  100
100
AcDbPoint
 10
148
 20
173
  0
LINE
  5
337
100
AcDbEntity
  8
03. —Б–±–Њ—А–Њ—З–љ—Л–є —З–µ—А—В–µ–ґ
  6
ByLayer
 62
  256
370
   -1
100
AcDbLine
 10
148
 20
173
 11
153
 21
178
  0
LINE
  5
338
100
AcDbEntity
  8
03. —Б–±–Њ—А–Њ—З–љ—Л–є —З–µ—А—В–µ–ґ
  6
ByLayer
 62
  256
370
   -1
100
AcDbLine
 10
153
 20
178
 11
162
 21
178
  0
MTEXT
  5
339
100
AcDbEntity
  8
03. —Б–±–Њ—А–Њ—З–љ—Л–є —З–µ—А—В–µ–ґ
  6
ByLayer
 62
  256
370
   -1
100
AcDbMText
 10
155
 20
182
 30
0
 40
3
 41
6.333333333333333
 71
    1
 72
    1
  1
4-2
  7
cyrillic_ii
210
0
220
0
230
1
 50
0
 73
    2
 44
1
  0
DIMENSION
  5
33A
100
AcDbEntity
  8
03. —Б–±–Њ—А–Њ—З–љ—Л–є —З–µ—А—В–µ–ґ
  6
ByLayer
 62
   96
420
32768
370
   -1
100
AcDbDimension
  2
*D11
 10
50
 20
130
 30
0
 11
48.125
 21
195
 31
0
 70
   32
  1
260
 71
    5
  3
Standard
 53
0
210
0
220
0
230
1
100
AcDbAlignedDimension
 13
79.5
 23
260
 33
0
 14
79.5
 24
130
 34
0
 50
90
100
AcDbRotatedDimension
  0
DIMENSION
  5
33B
100
AcDbEntity
  8
03. —Б–±–Њ—А–Њ—З–љ—Л–є —З–µ—А—В–µ–ґ
  6
ByLayer
 62
   96
420
32768
370
   -1
100
AcDbDimension
  2
*D12
 10
70
 20
140
 30
0
 11
68.125
 21
152.5
 31
0
 70
   32
  1
90
 71
    5
  3
Standard
 53
0
210
0
220
0
230
1
100
AcDbAlignedDimension
 13
114.5
 23
175
 33
0
 14
79.5
 24
130
 34
0
 50
90
100
AcDbRotatedDimension
  0
DIMENSION
  5
33C
100
AcDbEntity
  8
03. —Б–±–Њ—А–Њ—З–љ—Л–є —З–µ—А—В–µ–ґ
  6
ByLayer
 62
   96
420
32768
370
   -1
100
AcDbDimension
  2
*D13
 10
60
 20
250
 30
0
 11
58.125
 21
172.5
 31
0
 70
   32
  1
170
 71
    5
  3
Standard
 53
0
210
0
220
0
230
1
100
AcDbAlignedDimension
 13
79.5
 23
130
 33
0
 14
114.5
 24
215
 34
0
 50
90
100
AcDbRotatedDimension
  0
DIMENSION
  5
33D
100
AcDbEntity
  8
02. –і–µ—А–ґ–∞—В–µ–ї—М
  6
ByLayer
 62
   96
420
32768
370
   -1
100
AcDbDimension
  2
*D14
 10
30
 20
120
 30
0
 11
28.12500000000001
 21
190
 31
0
 70
   32
 71
    5
  3
Standard
 53
0
210
0
220
0
230
1
100
AcDbAlignedDimension
 13
40
 23
260
 33
0
 14
40
 24
120
 34
0
 50
90
100
AcDbRotatedDimension
  0
LWPOLYLINE
  5
33E
100
AcDbEntity
  8
02. –і–µ—А–ґ–∞—В–µ–ї—М
  6
ByLayer
 62
  256
370
   50
100
AcDbPolyline
 90
    4
 70
    1
 43
0
 10
170
 20
260
 10
190
 20
260
 10
190
 20
120
 10
170
 20
130
  0
LWPOLYLINE
  5
33F
100
AcDbEntity
  8
02. –і–µ—А–ґ–∞—В–µ–ї—М
  6
ByLayer
 62
  256
370
   50
100
AcDbPolyline
 90
    4
 70
    1
 43
0
 10
40
 20
260
 10
150
 20
260
 10
150
 20
120
 10
40
 20
120
  0
LINE
  5
340
100
AcDbEntity
  8
02. –і–µ—А–ґ–∞—В–µ–ї—М
  6
ByLayer
 62
  256
370
   50
100
AcDbLine
 10
40
 20
130
 11
150
 21
130
  0
DIMENSION
  5
341
100
AcDbEntity
  8
02. –і–µ—А–ґ–∞—В–µ–ї—М
  6
ByLayer
 62
   96
420
32768
370
   -1
100
AcDbDimension
  2
*D15
 10
140
 20
110
 30
0
 11
95
 21
111.875
 31
0
 70
   32
 71
    5
  3
Standard
 53
0
210
0
220
0
230
1
100
AcDbAlignedDimension
 13
40
 23
120
 33
0
 14
150
 24
120
 34
0
100
AcDbRotatedDimension
  0
DIMENSION
  5
342
100
AcDbEntity
  8
02. –і–µ—А–ґ–∞—В–µ–ї—М
  6
ByLayer
 62
   96
420
32768
370
   -1
100
AcDbDimension
  2
*D16
 10
190
 20
110
 30
0
 11
180
 21
111.875
 31
0
 70
   32
 71
    5
  3
Standard
 53
0
210
0
220
0
230
1
100
AcDbAlignedDimension
 13
170
 23
130
 33
0
 14
190
 24
120
 34
0
100
AcDbRotatedDimension
  0
DIMENSION
  5
343
100
AcDbEntity
  8
02. –і–µ—А–ґ–∞—В–µ–ї—М
  6
ByLayer
 62
   96
420
32768
370
   -1
100
AcDbDimension
  2
*D17
 10
160
 20
130
 30
0
 11
158.125
 21
195
 31
0
 70
   32
 71
    5
  3
Standard
 53
0
210
0
220
0
230
1
100
AcDbAlignedDimension
 13
170
 23
260
 33
0
 14
170
 24
130
 34
0
 50
90
100
AcDbRotatedDimension
  0
LINE
  5
344
100
AcDbEntity
  8
02. –і–µ—А–ґ–∞—В–µ–ї—М
  6
DASHEDTINY
 62
  256
370
   -1
100
AcDbLine
 10
95
 20
265
 11
95
 21
115
  0
DIMENSION
  5
345
100
AcDbEntity
  8
02. –і–µ—А–ґ–∞—В–µ–ї—М
  6
ByLayer
 62
   96
420
32768
370
   -1
100
AcDbDimension
  2
*D18
 10
80
 20
260
 30
0
 11
78.125
 21
245
 31
0
 70
   32
 71
    5
  3
Standard
 53
0
210
0
220
0
230
1
100
AcDbAlignedDimension
 13
95
 23
230
 33
0
 14
95
 24
260
 34
0
 50
90
100
AcDbRotatedDimension
  0
DIMENSION
  5
346
100
AcDbEntity
  8
02. –і–µ—А–ґ–∞—В–µ–ї—М
  6
ByLayer
 62
   96
420
32768
370
   -1
100
AcDbDimension
  2
*D19
 10
87.5115473509594
 20
225.0076982339729
 30
0
 11
93.9599371320777
 21
231.5600943018835
 31
0
 70
   35
 71
    5
  3
Standard
 53
0
210
0
220
0
230
1
100
AcDbDiametricDimension
 15
102.4884526490406
 25
234.9923017660271
 35
0
 40
0
  0
LINE
  5
347
100
AcDbEntity
  8
02. –і–µ—А–ґ–∞—В–µ–ї—М
  6
DASHEDTINY
 62
  256
370
   -1
100
AcDbLine
 10
170
 20
239
 11
190
 21
239
  0
LINE
  5
348
100
AcDbEntity
  8
02. –і–µ—А–ґ–∞—В–µ–ї—М
  6
DASHEDTINY
 62
  256
370
   -1
100
AcDbLine
 10
170
 20
220
 11
190
 21
220
  0
CIRCLE
  5
349
100
AcDbEntity
  8
02. –і–µ—А–ґ–∞—В–µ–ї—М
  6
ByLayer
 62
  256
370
   50
100
AcDbCircle
 10
95
 20
230
 40
9
  0
CIRCLE
  5
34A
100
AcDbEntity
  8
02. –і–µ—А–ґ–∞—В–µ–ї—М
  6
ByLayer
 62
  256
370
   50
100
AcDbCircle
 10
95
 20
160
 40
12.5
  0
CIRCLE
  5
34B
100
AcDbEntity
  8
02. –і–µ—А–ґ–∞—В–µ–ї—М
  6
DASHEDX2
 62
  256
370
   50
100
AcDbCircle
 10
95
 20
160
 40
17.5
  0
DIMENSION
  5
34C
100
AcDbEntity
  8
02. –і–µ—А–ґ–∞—В–µ–ї—М
  6
ByLayer
 62
   96
420
32768
370
   -1
100
AcDbDimension
  2
*D20
 10
84.59937132077695
 20
153.0662475471846
 30
0
 11
93.9599371320777
 21
161.5600943018835
 31
0
 70
   35
 71
    5
  3
Standard
 53
0
210
0
220
0
230
1
100
AcDbDiametricDimension
 15
105.400628679223
 25
166.9337524528154
 35
0
 40
0
  0
DIMENSION
  5
34D
100
AcDbEntity
  8
02. –і–µ—А–ґ–∞—В–µ–ї—М
  6
ByLayer
 62
   96
420
32768
370
   -1
100
AcDbDimension
  2
*D21
 10
84.5
 20
174
 30
0
 11
96.5
 21
161.125
 31
0
 70
   35
 71
    5
  3
Standard
 53
0
210
0
220
0
230
1
100
AcDbDiametricDimension
 15
105.5
 25
146
 35
0
 40
0
  0
CIRCLE
  5
34E
100
AcDbEntity
  8
02. –і–µ—А–ґ–∞—В–µ–ї—М
  6
DOTX2
 62
  256
370
   -1
100
AcDbCircle
 10
95
 20
160
 40
35
  0
LINE
  5
34F
100
AcDbEntity
  8
02. –і–µ—А–ґ–∞—В–µ–ї—М
  6
DASHEDTINY
 62
  256
370
   -1
100
AcDbLine
 10
170
 20
177.5
 11
190
 21
172.5
  0
LINE
  5
350
100
AcDbEntity
  8
02. –і–µ—А–ґ–∞—В–µ–ї—М
  6
DASHEDTINY
 62
  256
370
   -1
100
AcDbLine
 10
170
 20
142.5
 11
190
 21
147.5
  0
DIMENSION
  5
351
100
AcDbEntity
  8
02. –і–µ—А–ґ–∞—В–µ–ї—М
  6
ByLayer
 62
   96
420
32768
370
   -1
100
AcDbDimension
  2
*D22
 10
50
 20
160
 30
0
 11
48.125
 21
210
 31
0
 70
   32
 71
    5
  3
Standard
 53
0
210
0
220
0
230
1
100
AcDbAlignedDimension
 13
50
 23
260
 33
0
 14
95
 24
160
 34
0
 50
90
100
AcDbRotatedDimension
  0
MTEXT
  5
352
100
AcDbEntity
  8
04. —Б–њ–µ—Ж–Є—Д–Є–Ї–∞—Ж–Є—П
  6
ByLayer
 62
  256
370
   -1
100
AcDbMText
 10
114
 20
171
 30
0
 40
2.5
 41
36.31944444444445
 71
    1
 72
    1
  1
–С—Г—В—Л–ї–Ї–∞ —Б—В–µ–Ї–ї—П–љ–љ–∞—П
  7
unicode
210
0
220
0
230
1
 50
0
 73
    2
 44
1
  0
MTEXT
  5
353
100
AcDbEntity
  8
04. —Б–њ–µ—Ж–Є—Д–Є–Ї–∞—Ж–Є—П
  6
ByLayer
 62
  256
370
   -1
100
AcDbMText
 10
185
 20
171
 30
0
 40
2.2
 41
7.272222222222223
 71
    1
 72
    1
  1
1 —И—В.
  7
unicode
210
0
220
0
230
1
 50
0
 73
    2
 44
1
  0
LWPOLYLINE
  5
354
100
AcDbEntity
  8
03. —Б–±–Њ—А–Њ—З–љ—Л–є —З–µ—А—В–µ–ґ
  6
ByLayer
 62
  256
370
   -1
100
AcDbPolyline
 90
    8
 70
    1
 43
0
 10
132.2
 20
153
 42
-0.414213562373095
 10
137.2
 20
158
 10
149.5
 20
158
 10
149.5
 20
158.4
 10
136.8
 20
158.4
 42
0.414213562373095
 10
131.8
 20
153.4
 10
131.8
 20
140
 10
132.2
 20
140
  0
LWPOLYLINE
  5
355
100
AcDbEntity
  8
03. —Б–±–Њ—А–Њ—З–љ—Л–є —З–µ—А—В–µ–ґ
  6
ByLayer
 62
  256
370
   -1
100
AcDbPolyline
 90
    4
 70
    1
 43
0
 10
114.1
 20
158.4
 10
114.5
 20
158.4
 10
114.5
 20
140
 10
114.1
 20
140
  0
LWPOLYLINE
  5
356
100
AcDbEntity
  8
03. —Б–±–Њ—А–Њ—З–љ—Л–є —З–µ—А—В–µ–ґ
  6
DOTTINY
 62
  256
370
   -1
100
AcDbPolyline
 90
    4
 70
    1
 43
0
 10
114.1
 20
158.4
 10
137
 20
158.4
 10
137
 20
158
 10
114.1
 20
158
  0
LINE
  5
357
100
AcDbEntity
  8
01. –Њ—Б–љ–Њ–≤–∞–љ–Є–µ
  6
DOTTINY
 62
  256
370
   -1
100
AcDbLine
 10
180
 20
211
 11
180
 21
209
  0
LINE
  5
358
100
AcDbEntity
  8
03. —Б–±–Њ—А–Њ—З–љ—Л–є —З–µ—А—В–µ–ґ
  6
DOTTINY
 62
  256
370
   -1
100
AcDbLine
 10
114.1
 20
136
 11
114.5
 21
136
  0
LINE
  5
359
100
AcDbEntity
  8
03. —Б–±–Њ—А–Њ—З–љ—Л–є —З–µ—А—В–µ–ґ
  6
DOTTINY
 62
  256
370
   -1
100
AcDbLine
 10
114.5
 20
136
 11
114.5
 21
140
  0
LINE
  5
35A
100
AcDbEntity
  8
03. —Б–±–Њ—А–Њ—З–љ—Л–є —З–µ—А—В–µ–ґ
  6
DOTTINY
 62
  256
370
   -1
100
AcDbLine
 10
114.1
 20
136
 11
114.1
 21
140
  0
LINE
  5
35B
100
AcDbEntity
  8
03. —Б–±–Њ—А–Њ—З–љ—Л–є —З–µ—А—В–µ–ґ
  6
DOTTINY
 62
  256
370
   -1
100
AcDbLine
 10
131.8
 20
136
 11
132.2
 21
136
  0
LINE
  5
35C
100
AcDbEntity
  8
03. —Б–±–Њ—А–Њ—З–љ—Л–є —З–µ—А—В–µ–ґ
  6
DOTTINY
 62
  256
370
   -1
100
AcDbLine
 10
132.2
 20
136
 11
132.2
 21
140
  0
LINE
  5
35D
100
AcDbEntity
  8
03. —Б–±–Њ—А–Њ—З–љ—Л–є —З–µ—А—В–µ–ґ
  6
DOTTINY
 62
  256
370
   -1
100
AcDbLine
 10
131.8
 20
136
 11
131.8
 21
140
  0
MTEXT
  5
35E
100
AcDbEntity
  8
03. —Б–±–Њ—А–Њ—З–љ—Л–є —З–µ—А—В–µ–ґ
  6
ByLayer
 62
  256
370
   -1
100
AcDbMText
 10
25
 20
110
 30
0
 40
2.5
 41
167.2916666666676
 71
    1
 72
    1
  3
–Ґ–µ—Е–љ–Њ–ї–Њ–≥–Є—З–µ—Б–Ї–Є–є –њ—А–Њ—Ж–µ—Б—Б:\P1. –Ш–Ј –Љ–∞—В–µ—А–Є–∞–ї–∞ –≤—Л—А–µ–Ј–∞—О—В—Б—П –і–µ—В–∞–ї–Є 1 –Є 2, –њ—А–Њ–Є–Ј–≤–Њ–і–Є—В—Б—П –Є—Е —Б–≤–µ—А–ї–Њ–≤–Ї–∞, —И–ї–Є—Д–Њ–≤–Ї–∞;\P2. –Т –і–µ—В–∞–ї–µ 1, –∞ –Ј–∞—В–µ–Љ –≤ –і–µ—В–∞–ї–µ 2 —Д–Є–Ї—Б–Є
  3
—А—Г–µ—В—Б—П –і–µ—В–∞–ї—М 3 —Б –њ—А–Є–Љ–µ–љ–µ–љ–Є–µ–Љ –Ї–ї–µ–µ–≤–Њ–≥–Њ —Б–Њ—Б—В–∞–≤–∞\P–Є–Ј –і—А–µ–≤–µ—Б–љ–Њ–є —Б—В—А—Г–ґ–Ї–Є –Є –Я–Т–Р; \P3. –Ф–µ—В–∞–ї–Є 1 –Є 2 —И–ї–Є—Д—Г—О—В—Б—П –≤ –Љ–µ—Б—В–∞—Е —Б–Ї–ї–µ–Є–≤–∞–љ–Є—П —Б –і–µ—В–∞–ї—М—О 3;\P4. –Ч–∞–≥–
  3
Њ—В–∞–≤–ї–Є–≤–∞—О—В—Б—П –і–µ—В–∞–ї–Є 4-1 –Є 4-2 –Є–Ј —Б—В–µ–Ї–ї—П–љ–љ–Њ–є –±—Г—В—Л–ї–Ї–Є;\P5. –Ф–µ—В–∞–ї—М 4-1 –Ј–∞–Ї—А–µ–њ–ї—П–µ—В—Б—П –≤ –і–µ—В–∞–ї–µ 2 —Ж–Є–∞–љ–Њ–Ї—А–Є–ї–∞—В–љ—Л–Љ –Ї–ї–µ–µ–Љ;\P6. –Ф–µ—В–∞–ї–Є 1 –Є 2 –Њ–Ї—А–∞—И–Є–≤–∞—О—В—Б—П;\P7. –
  3
Я–Њ —Д–Њ—А–Љ–µ –і–µ—В–∞–ї–Є 4-2 –≤—Л–≥–Є–±–∞–µ—В—Б—П –Љ–µ–і–љ–∞—П –њ—А–Њ–≤–Њ–ї–Њ–Ї–∞ —В–Њ–ї—Й–Є–љ–Њ–є –Њ—В 2,5 –Љ–Љ. –Ї–≤.\P–Є –≤—Б—В–∞–≤–ї—П–µ—В—Б—П –≤ –њ–Њ—Б–∞–і–Њ—З–љ—Л–µ –Љ–µ—Б—В–∞ –і–µ—В–∞–ї–Є 1; –Ф–ї—П —Д–Є–Ї—Б–∞—Ж–Є–Є –њ—А–Њ–≤–Њ–ї–Њ–Ї–Є –њ—А–µ
  1
–і–≤–∞—А–Є—В–µ–ї—М–љ–Њ –≤\P–Њ—В–≤–µ—А—Б—В–Є—П –љ–∞–љ–Њ—Б—П—В –Ї–ї–µ–є.
  7
cyrillic_ii
210
0
220
0
230
1
 50
0
 73
    2
 44
1
  0
MTEXT
  5
35F
100
AcDbEntity
  8
04. —Б–њ–µ—Ж–Є—Д–Є–Ї–∞—Ж–Є—П
  6
ByLayer
 62
  256
370
   -1
100
AcDbMText
 10
114
 20
163
 30
0
 40
2.5
 41
52.08333333333334
 71
    1
 72
    1
  1
–Я—А–Њ–≤–Њ–ї–Њ–Ї–∞ –Љ–µ–і–љ–∞—П 2,5 –Љ–Љ. –Ї–≤.
  7
unicode
210
0
220
0
230
1
 50
0
 73
    2
 44
1
  0
MTEXT
  5
360
100
AcDbEntity
  8
04. —Б–њ–µ—Ж–Є—Д–Є–Ї–∞—Ж–Є—П
  6
ByLayer
 62
  256
370
   -1
100
AcDbMText
 10
185
 20
163
 30
0
 40
2.2
 41
10.69444444444444
 71
    1
 72
    1
  1
200 –Љ–Љ.
  7
unicode
210
0
220
0
230
1
 50
0
 73
    2
 44
1
  0
DIMENSION
  5
361
100
AcDbEntity
  8
01. –Њ—Б–љ–Њ–≤–∞–љ–Є–µ
  6
ByLayer
 62
   96
420
32768
370
   -1
100
AcDbDimension
  2
*D23
 10
173
 20
185
 30
0
 11
175
 21
186.875
 31
0
 70
   32
 71
    5
  3
Standard
 53
0
210
0
220
0
230
1
100
AcDbAlignedDimension
 13
180
 23
176
 33
0
 14
170
 24
176
 34
0
100
AcDbRotatedDimension
  0
LINE
  5
362
100
AcDbEntity
  8
01. –Њ—Б–љ–Њ–≤–∞–љ–Є–µ
  6
DOTTINY
 62
  256
370
   -1
100
AcDbLine
 10
170
 20
174
 11
180
 21
174
  0
LINE
  5
363
100
AcDbEntity
  8
01. –Њ—Б–љ–Њ–≤–∞–љ–Є–µ
  6
DOTTINY
 62
  256
370
   -1
100
AcDbLine
 10
170
 20
176
 11
180
 21
176
  0
LINE
  5
364
100
AcDbEntity
  8
01. –Њ—Б–љ–Њ–≤–∞–љ–Є–µ
  6
DOTTINY
 62
  256
370
   -1
100
AcDbLine
 10
180
 20
176
 11
180
 21
174
  0
DIMENSION
  5
365
100
AcDbEntity
  8
01. –Њ—Б–љ–Њ–≤–∞–љ–Є–µ
  6
ByLayer
 62
   96
420
32768
370
   -1
100
AcDbDimension
  2
*D24
 10
173
 20
220
 30
0
 11
175
 21
221.875
 31
0
 70
   32
 71
    5
  3
Standard
 53
0
210
0
220
0
230
1
100
AcDbAlignedDimension
 13
180
 23
211
 33
0
 14
170
 24
211
 34
0
100
AcDbRotatedDimension
  0
LINE
  5
366
100
AcDbEntity
  8
01. –Њ—Б–љ–Њ–≤–∞–љ–Є–µ
  6
DOTTINY
 62
  256
370
   -1
100
AcDbLine
 10
170
 20
209
 11
180
 21
209
  0
LINE
  5
367
100
AcDbEntity
  8
01. –Њ—Б–љ–Њ–≤–∞–љ–Є–µ
  6
DOTTINY
 62
  256
370
   -1
100
AcDbLine
 10
170
 20
211
 11
180
 21
211
  0
MTEXT
  5
368
100
AcDbEntity
  8
04. —Б–њ–µ—Ж–Є—Д–Є–Ї–∞—Ж–Є—П
  6
ByLayer
 62
  256
370
   -1
100
AcDbMText
 10
35
 20
163
 30
0
 40
2.5
 41
1.111111111111111
 71
    1
 72
    1
  1
6
  7
unicode
210
0
220
0
230
1
 50
0
 73
    2
 44
1
  0
MTEXT
  5
369
100
AcDbEntity
  8
04. —Б–њ–µ—Ж–Є—Д–Є–Ї–∞—Ж–Є—П
  6
ByLayer
 62
  256
370
   -1
100
AcDbMText
 10
35
 20
171
 30
0
 40
2.5
 41
1.111111111111111
 71
    1
 72
    1
  1
5
  7
unicode
210
0
220
0
230
1
 50
0
 73
    2
 44
1
  0
MTEXT
  5
36A
100
AcDbEntity
  8
04. —Б–њ–µ—Ж–Є—Д–Є–Ї–∞—Ж–Є—П
  6
ByLayer
 62
  256
370
   -1
100
AcDbMText
 10
185
 20
179
 30
0
 40
2.2
 41
18.82222222222222
 71
    1
 72
    1
  1
–Ф–Є–∞–Љ. 16 –Љ–Љ.
  7
unicode
210
0
220
0
230
1
 50
0
 73
    2
 44
1
  0
ENDSEC
  0
SECTION
  2
OBJECTS
  0
DICTIONARY
  5
C
330
0
100
AcDbDictionary
281
    1
  3
ACAD_GROUP
350
D
  3
ACAD_IMAGE_DICT
350
36B
  0
DICTIONARY
  5
D
330
C
100
AcDbDictionary
281
    1
  0
IMAGEDEF_REACTOR
  5
29F
330
2A0
100
AcDbRasterImageDefReactor
 90
    2
330
2A0
  0
IMAGEDEF_REACTOR
  5
2AC
330
2AD
100
AcDbRasterImageDefReactor
 90
    2
330
2AD
  0
IMAGEDEF_REACTOR
  5
2AE
330
2AF
100
AcDbRasterImageDefReactor
 90
    2
330
2AF
  0
IMAGEDEF_REACTOR
  5
2B0
330
2B1
100
AcDbRasterImageDefReactor
 90
    2
330
2B1
  0
IMAGEDEF_REACTOR
  5
2A2
330
2A3
100
AcDbRasterImageDefReactor
 90
    2
330
2A3
  0
IMAGEDEF_REACTOR
  5
2A5
330
2A6
100
AcDbRasterImageDefReactor
 90
    2
330
2A6
  0
IMAGEDEF_REACTOR
  5
2A7
330
2A8
100
AcDbRasterImageDefReactor
 90
    2
330
2A8
  0
IMAGEDEF_REACTOR
  5
2C6
330
2C7
100
AcDbRasterImageDefReactor
 90
    2
330
2C7
  0
IMAGEDEF_REACTOR
  5
2AA
330
2AB
100
AcDbRasterImageDefReactor
 90
    2
330
2AB
  0
IMAGEDEF_REACTOR
  5
2B3
330
2B4
100
AcDbRasterImageDefReactor
 90
    2
330
2B4
  0
IMAGEDEF_REACTOR
  5
2B6
330
2B7
100
AcDbRasterImageDefReactor
 90
    2
330
2B7
  0
IMAGEDEF_REACTOR
  5
2B9
330
2BA
100
AcDbRasterImageDefReactor
 90
    2
330
2BA
  0
IMAGEDEF_REACTOR
  5
2BC
330
2BD
100
AcDbRasterImageDefReactor
 90
    2
330
2BD
  0
IMAGEDEF_REACTOR
  5
2BF
330
2C0
100
AcDbRasterImageDefReactor
 90
    2
330
2C0
  0
IMAGEDEF_REACTOR
  5
2C1
330
2C2
100
AcDbRasterImageDefReactor
 90
    2
330
2C2
  0
IMAGEDEF_REACTOR
  5
2C4
330
2C5
100
AcDbRasterImageDefReactor
 90
    2
330
2C5
  0
DICTIONARY
  5
36B
330
C
100
AcDbDictionary
281
    1
  3
radiotechnika LOGO QR
350
29E
  3
–љ–∞—Б—В–Њ–ї—М–љ–∞—П —Б–≤–µ—В–Њ–і–Є–Њ–і–љ–∞—П –ї–∞–Љ–њ–∞ —Б —А–∞—Б—В–µ–љ–Є–µ–Љ вАУ –њ—А–Њ–µ–Ї—В —Г—З–µ–±–љ—Л–є-1760930523614-2025-10-20
350
2A1
  3
–Ї—А—Г–ґ–Њ–Ї —В–µ—Е–љ–Є—З–µ—Б–Ї–Њ–≥–Њ —В–≤–Њ—А—З–µ—Б—В–≤–∞-1760432099635-2025-10-14
350
2A4
  3
–Ї—А—Г–ґ–Њ–Ї —В–µ—Е–љ–Є—З–µ—Б–Ї–Њ–≥–Њ —В–≤–Њ—А—З–µ—Б—В–≤–∞-QR {telegram} {grey}
350
2A9
  3
–ї–Њ–≥–Њ—В–Є–њ вАУ –і–µ—В—Б–Ї–Є–є –Є–љ–ґ–µ–љ–µ—А–љ—Л–є –Ї–ї—Г–± {telegram} grey
350
2B2
  3
–ї–Њ–≥–Њ—В–Є–њ вАУ –і–µ—В—Б–Ї–Є–є –Є–љ–ґ–µ–љ–µ—А–љ—Л–є –Ї–ї—Г–± {telegram} {grey}
350
2B5
  3
radiotechnika LOGO
350
2B8
  3
water sensor LOGO
350
2BB
  3
radiotehnika LOGO
350
2BE
  3
–Ї—А—Г–ґ–Њ–Ї —В–µ—Е–љ–Є—З–µ—Б–Ї–Њ–≥–Њ —В–≤–Њ—А—З–µ—Б—В–≤–∞-QR {telegram}
350
2C3
  0
IMAGEDEF
  5
29E
102
{ACAD_REACTORS
330
29F
330
2AC
330
2AE
330
2B0
102
}
100
AcDbRasterImageDef
 90
    0
  1
D:/backup/Obsidian/Base/files/attachments/radiotechnika LOGO QR.png
 10
690
 20
135
 11
1
 21
1
280
    1
281
    0
  0
IMAGEDEF
  5
2A1
102
{ACAD_REACTORS
330
2A2
102
}
100
AcDbRasterImageDef
 90
    0
  1
D:/backup/Obsidian/Base/files/attachments/–љ–∞—Б—В–Њ–ї—М–љ–∞—П —Б–≤–µ—В–Њ–і–Є–Њ–і–љ–∞—П –ї–∞–Љ–њ–∞ —Б —А–∞—Б—В–µ–љ–Є–µ–Љ вАУ –њ—А–Њ–µ–Ї—В —Г—З–µ–±–љ—Л–є-1760930523614-2025-10-20.png
 10
1024
 20
1536
 11
1
 21
1
280
    1
281
    0
  0
IMAGEDEF
  5
2A4
102
{ACAD_REACTORS
330
2A5
330
2A7
330
2C6
102
}
100
AcDbRasterImageDef
 90
    0
  1
D:/backup/Obsidian/Base/files/attachments/–Ї—А—Г–ґ–Њ–Ї —В–µ—Е–љ–Є—З–µ—Б–Ї–Њ–≥–Њ —В–≤–Њ—А—З–µ—Б—В–≤–∞-1760432099635-2025-10-14.jpg
 10
1
 20
1
 11
1
 21
1
280
    1
281
    0
  0
IMAGEDEF
  5
2A9
102
{ACAD_REACTORS
330
2AA
102
}
100
AcDbRasterImageDef
 90
    0
  1
D:/backup/Obsidian/Base/files/attachments/–Ї—А—Г–ґ–Њ–Ї —В–µ—Е–љ–Є—З–µ—Б–Ї–Њ–≥–Њ —В–≤–Њ—А—З–µ—Б—В–≤–∞-QR {telegram} {grey}.jpg
 10
491
 20
490
 11
1
 21
1
280
    1
281
    0
  0
IMAGEDEF
  5
2B2
102
{ACAD_REACTORS
330
2B3
102
}
100
AcDbRasterImageDef
 90
    0
  1
D:/backup/Obsidian/Base/files/attachments/–ї–Њ–≥–Њ—В–Є–њ вАУ –і–µ—В—Б–Ї–Є–є –Є–љ–ґ–µ–љ–µ—А–љ—Л–є –Ї–ї—Г–± {telegram} grey.jpg
 10
800
 20
800
 11
1
 21
1
280
    1
281
    0
  0
IMAGEDEF
  5
2B5
102
{ACAD_REACTORS
330
2B6
102
}
100
AcDbRasterImageDef
 90
    0
  1
D:/backup/Obsidian/Base/files/attachments/–ї–Њ–≥–Њ—В–Є–њ вАУ –і–µ—В—Б–Ї–Є–є –Є–љ–ґ–µ–љ–µ—А–љ—Л–є –Ї–ї—Г–± {telegram} {grey}.jpg
 10
473
 20
473
 11
1
 21
1
280
    1
281
    0
  0
IMAGEDEF
  5
2B8
102
{ACAD_REACTORS
330
2B9
102
}
100
AcDbRasterImageDef
 90
    0
  1
D:/backup/Obsidian/Base/files/attachments/radiotechnika LOGO.jpg
 10
992
 20
252
 11
1
 21
1
280
    1
281
    0
  0
IMAGEDEF
  5
2BB
102
{ACAD_REACTORS
330
2BC
102
}
100
AcDbRasterImageDef
 90
    0
  1
D:/backup/Obsidian/Base/files/attachments/water sensor LOGO.jpg
 10
992
 20
252
 11
1
 21
1
280
    1
281
    0
  0
IMAGEDEF
  5
2BE
102
{ACAD_REACTORS
330
2BF
330
2C1
102
}
100
AcDbRasterImageDef
 90
    0
  1
D:/backup/Obsidian/Base/files/attachments/radiotehnika LOGO.jpg
 10
992
 20
252
 11
1
 21
1
280
    1
281
    0
  0
IMAGEDEF
  5
2C3
102
{ACAD_REACTORS
330
2C4
102
}
100
AcDbRasterImageDef
 90
    0
  1
D:/backup/Obsidian/Base/files/attachments/–Ї—А—Г–ґ–Њ–Ї —В–µ—Е–љ–Є—З–µ—Б–Ї–Њ–≥–Њ —В–≤–Њ—А—З–µ—Б—В–≤–∞-QR {telegram}.jpg
 10
1
 20
1
 11
1
 21
1
280
    1
281
    0
  0
PLOTSETTINGS
  5
36C
100
AcDbPlotSettings
  6
1x1
 40
0
 41
0
 42
0
 43
0
  0
ENDSEC
  0
EOF
