<?xml version="1.0" encoding="UTF-8" standalone="no"?>
<!-- Created with "sPlan" (http://www.abacom-online.de) -->

<svg
   width="40.299999mm"
   height="40.299999mm"
   version="1.1"
   viewBox="0 0 403 403"
   id="svg9"
   xmlns="http://www.w3.org/2000/svg"
   xmlns:svg="http://www.w3.org/2000/svg"
   xmlns:rdf="http://www.w3.org/1999/02/22-rdf-syntax-ns#"
   xmlns:cc="http://creativecommons.org/ns#">
  <defs
     id="defs1">
    <style
       type="text/css"
       id="style1"><![CDATA[
polyline {stroke-linecap:round; stroke-linejoin:round}
polygon {stroke-linecap:round; stroke-linejoin:round}
path {stroke-linecap:round; stroke-linejoin:round}
circle {stroke-linecap:round; stroke-linejoin:round}
]]></style>
  </defs>
  <circle
     cx="201.5"
     cy="201.5"
     r="201"
     fill="#ffffff"
     stroke="#f9f9f9"
     id="circle1" />
  <polyline
     transform="translate(-39.97,-39.039993)"
     points="241.47 333.72 241.47 439.19"
     stroke="#9dceff"
     stroke-width="4"
     id="polyline1"
     style="fill:none;stroke:#e8afb2;stroke-opacity:1" />
  <circle
     cx="201.5"
     cy="201.5"
     r="185.42999"
     stroke="#0088ea"
     stroke-width="6"
     id="circle2"
     style="fill:none;stroke:#cb2431;stroke-opacity:1" />
  <g
     stroke="#9dceff"
     stroke-width="4"
     id="g5"
     transform="translate(0.58,0.46000668)"
     style="fill:#008000;stroke:#e8afb2;stroke-opacity:1">
    <polyline
       transform="translate(-40,-39.5)"
       points="170.06 308.8 80.71 167.28"
       id="polyline2"
       style="fill:#008000;stroke:#e8afb2;stroke-opacity:1" />
    <polyline
       transform="translate(-40,-39.5)"
       points="287.83 352.72 399.09 167.28"
       id="polyline3"
       style="fill:#008000;stroke:#e8afb2;stroke-opacity:1" />
    <polyline
       transform="translate(-40,-39.5)"
       points="57.94 167.28 80.71 167.28"
       id="polyline4"
       style="fill:#008000;stroke:#e8afb2;stroke-opacity:1" />
    <polyline
       transform="translate(-40,-39.5)"
       points="399.09 167.28 423.9 167.28"
       id="polyline5"
       style="fill:#008000;stroke:#e8afb2;stroke-opacity:1" />
  </g>
  <polygon
     transform="translate(-36.5,-39.039993)"
     points="329,356 147,356 147,320 329,320 "
     fill="#9dceff"
     stroke="#9dceff"
     stroke-width="2"
     id="polygon6"
     style="fill:#e8afb2;fill-opacity:1;stroke:#e8afb2;stroke-opacity:1" />
  <polygon
     transform="translate(-36.499999,-230.28927)"
     points="147,356 147,320 329,320 329,356 "
     fill="#9dceff"
     stroke="#9dceff"
     stroke-width="2"
     id="polygon6-4"
     style="fill:#e8afb2;fill-opacity:1;stroke:#e8afb2;stroke-linecap:round;stroke-linejoin:round;stroke-opacity:1" />
  <polygon
     transform="translate(-40,-39.039993)"
     points="168,274 141,291 176,319 "
     fill="#9dceff"
     stroke="#9dceff"
     id="polygon7"
     style="fill:#e8afb2;fill-opacity:1;stroke:#e8afb2;stroke-opacity:1" />
  <metadata
     id="metadata9">
    <rdf:RDF>
      <cc:Work
         rdf:about="" />
    </rdf:RDF>
  </metadata>
  <g
     id="text9-8"
     style="font-size:77.1446px;font-family:Rubik;-inkscape-font-specification:'Rubik, Normal';text-align:center;letter-spacing:3.96875px;text-anchor:middle;fill:#00274d;stroke:#00274d;stroke-width:1.52009"
     transform="scale(1.0137326,0.98645343)"
     aria-label="ПОСТЫ&#10;И&#10;НОВОСТИ">
    <path
       style="font-stretch:condensed;font-family:Bahnschrift;-inkscape-font-specification:'Bahnschrift Condensed';stroke-width:1.52008"
       d="m 127.41495,81.805055 h 7.15697 v 54.769655 h -7.15697 z m -18.08076,0 h 7.15697 v 54.769655 h -7.15697 z m 4.78387,0 h 16.83771 v 6.780287 h -16.83771 z m 45.55451,55.334675 q -4.29418,0 -7.34531,-1.61973 -3.05113,-1.61974 -4.67087,-4.70854 -1.58206,-3.08879 -1.58206,-7.42064 V 94.988946 q 0,-4.369518 1.58206,-7.458316 1.61974,-3.088797 4.67087,-4.670864 3.05113,-1.619735 7.34531,-1.619735 4.29418,0 7.34531,1.619735 3.05113,1.582067 4.6332,4.670864 1.61973,3.088798 1.61973,7.458316 v 28.401874 q 0,4.33185 -1.61973,7.42064 -1.58207,3.0888 -4.6332,4.70854 -3.05113,1.61973 -7.34531,1.61973 z m 0,-6.96863 q 2.03409,0 3.46548,-0.75336 1.46906,-0.79104 2.22243,-2.2601 0.75336,-1.46906 0.75336,-3.54081 V 94.762937 q 0,-2.071755 -0.75336,-3.540817 -0.75337,-1.469062 -2.22243,-2.222427 -1.43139,-0.791034 -3.46548,-0.791034 -2.03409,0 -3.50315,0.791034 -1.43139,0.753365 -2.18476,2.222427 -0.75336,1.469062 -0.75336,3.540817 v 28.853893 q 0,2.07175 0.75336,3.54081 0.75337,1.46906 2.18476,2.2601 1.46906,0.75336 3.50315,0.75336 z m 36.32579,6.96863 q -3.99284,0 -6.85563,-1.6574 -2.86278,-1.65741 -4.36951,-4.78387 -1.50673,-3.16414 -1.50673,-7.57132 V 95.290292 q 0,-4.444855 1.50673,-7.57132 1.50673,-3.164134 4.33185,-4.821538 2.86278,-1.657403 6.89329,-1.657403 4.0305,0 6.89329,1.657403 2.86279,1.657404 4.33185,4.821538 1.50673,3.126465 1.50673,7.533652 v 2.335432 h -7.23231 v -2.335432 q 0,-2.222427 -0.64036,-3.804494 -0.64036,-1.582067 -1.88341,-2.410769 -1.24305,-0.828702 -2.97579,-0.828702 -1.73274,0 -2.97579,0.828702 -1.20539,0.828702 -1.88342,2.410769 -0.64036,1.582067 -0.64036,3.842162 v 27.836848 q 0,2.22243 0.64036,3.80449 0.67803,1.58207 1.88342,2.41077 1.24305,0.8287 2.97579,0.8287 1.73274,0 2.97579,-0.8287 1.24305,-0.8287 1.88341,-2.41077 0.64036,-1.58206 0.64036,-3.80449 v -2.33543 h 7.23231 v 2.33543 q 0,4.40718 -1.50673,7.57132 -1.46906,3.12646 -4.33185,4.78387 -2.86279,1.6574 -6.89329,1.6574 z m 29.43249,-50.852152 h 7.15697 v 50.287132 h -7.15697 z m -9.71841,-4.482523 h 26.5938 v 6.780287 h -26.5938 z m 39.79127,47.989365 h 9.56774 q 1.46906,0 2.52377,-0.67803 1.09238,-0.67803 1.65741,-1.95875 0.56502,-1.28072 0.56502,-3.05113 v -7.64665 q 0,-1.84575 -0.56502,-3.16414 -0.56503,-1.31839 -1.65741,-1.99642 -1.05471,-0.71569 -2.52377,-0.71569 h -9.56774 v -6.78029 h 9.26639 q 3.87983,0 6.59195,1.46906 2.74978,1.46906 4.18118,4.29418 1.43139,2.82512 1.43139,6.78029 v 7.948 q 0,3.87983 -1.46906,6.62962 -1.4314,2.74978 -4.18118,4.21884 -2.71211,1.4314 -6.55428,1.4314 h -9.26639 z m -3.95517,-47.989365 h 7.15697 v 54.769655 h -7.15697 z m 36.0862,54.769655 h -7.15697 V 81.805055 h 7.15697 z"
       id="path12" />
    <path
       style="font-stretch:condensed;font-family:Bahnschrift;-inkscape-font-specification:'Bahnschrift Condensed'"
       d="m 205.00107,233.34701 v -40.04136 l 0.90404,0.97938 -14.9543,39.06198 h -5.95159 v -54.73198 h 6.8933 v 40.30504 l -0.90404,-0.97937 15.02963,-39.32567 h 5.87625 v 54.73198 z"
       id="path13" />
    <path
       style="font-stretch:condensed;font-family:Bahnschrift;-inkscape-font-specification:'Bahnschrift Condensed'"
       d="m 97.386558,275.42501 h 7.156972 v 54.76965 h -7.156972 z m -18.080765,0 h 7.194638 v 54.76965 h -7.194638 z m 4.783869,24.40903 h 16.800048 v 6.78029 H 84.089662 Z m 45.554508,30.92564 q -4.29418,0 -7.34531,-1.61973 -3.05113,-1.61974 -4.67086,-4.70854 -1.58207,-3.08879 -1.58207,-7.42064 V 288.6089 q 0,-4.36952 1.58207,-7.45832 1.61973,-3.0888 4.67086,-4.67086 3.05113,-1.61974 7.34531,-1.61974 4.29419,0 7.34532,1.61974 3.05112,1.58206 4.63319,4.67086 1.61974,3.0888 1.61974,7.45832 v 28.40187 q 0,4.33185 -1.61974,7.42064 -1.58207,3.0888 -4.63319,4.70854 -3.05113,1.61973 -7.34532,1.61973 z m 0,-6.96863 q 2.03409,0 3.46548,-0.75336 1.46907,-0.79104 2.22243,-2.2601 0.75337,-1.46906 0.75337,-3.54081 v -28.85389 q 0,-2.07176 -0.75337,-3.54082 -0.75336,-1.46906 -2.22243,-2.22243 -1.43139,-0.79103 -3.46548,-0.79103 -2.03408,0 -3.50314,0.79103 -1.4314,0.75337 -2.18476,2.22243 -0.75337,1.46906 -0.75337,3.54082 v 28.85389 q 0,2.07175 0.75337,3.54081 0.75336,1.46906 2.18476,2.2601 1.46906,0.75336 3.50314,0.75336 z m 28.86748,-0.37668 h 9.00271 q 2.41077,0 3.72916,-1.20538 1.35606,-1.20539 1.35606,-3.42782 v -7.15696 q 0,-2.07176 -0.67803,-3.54082 -0.67803,-1.46906 -1.92108,-2.22243 -1.20539,-0.79103 -2.86279,-0.79103 h -8.62603 v -6.78029 h 8.62603 q 2.26009,0 3.50315,-1.5444 1.24305,-1.5444 1.24305,-4.36952 v -5.5749 q 0,-2.18476 -1.24305,-3.39014 -1.24306,-1.20539 -3.42782,-1.20539 h -8.70136 v -6.78028 h 8.58836 q 3.76683,0 6.44127,1.28072 2.71212,1.28072 4.10584,3.76682 1.39373,2.44844 1.39373,5.91392 v 5.80091 q 0,2.56144 -0.8287,4.55786 -0.82871,1.99642 -2.41077,3.27714 -1.5444,1.28072 -3.72916,1.73274 2.41077,0.37668 4.14351,1.69507 1.73274,1.31839 2.63678,3.42781 0.90404,2.07176 0.90404,4.85921 v 7.23231 q 0,3.57848 -1.35606,6.10225 -1.35606,2.48611 -3.99284,3.8045 -2.59911,1.31839 -6.2906,1.31839 h -9.6054 z m -4.5202,-47.98936 h 7.15697 v 54.76965 h -7.15697 z m 48.79399,55.33467 q -4.29419,0 -7.34531,-1.61973 -3.05113,-1.61974 -4.67087,-4.70854 -1.58207,-3.08879 -1.58207,-7.42064 V 288.6089 q 0,-4.36952 1.58207,-7.45832 1.61974,-3.0888 4.67087,-4.67086 3.05112,-1.61974 7.34531,-1.61974 4.29418,0 7.34531,1.61974 3.05113,1.58206 4.63319,4.67086 1.61974,3.0888 1.61974,7.45832 v 28.40187 q 0,4.33185 -1.61974,7.42064 -1.58206,3.0888 -4.63319,4.70854 -3.05113,1.61973 -7.34531,1.61973 z m 0,-6.96863 q 2.03408,0 3.46548,-0.75336 1.46906,-0.79104 2.22242,-2.2601 0.75337,-1.46906 0.75337,-3.54081 v -28.85389 q 0,-2.07176 -0.75337,-3.54082 -0.75336,-1.46906 -2.22242,-2.22243 -1.4314,-0.79103 -3.46548,-0.79103 -2.03409,0 -3.50315,0.79103 -1.4314,0.75337 -2.18476,2.22243 -0.75337,1.46906 -0.75337,3.54082 v 28.85389 q 0,2.07175 0.75337,3.54081 0.75336,1.46906 2.18476,2.2601 1.46906,0.75336 3.50315,0.75336 z m 36.32579,6.96863 q -3.99284,0 -6.85563,-1.6574 -2.86278,-1.65741 -4.36951,-4.78387 -1.50673,-3.16413 -1.50673,-7.57132 v -27.83685 q 0,-4.44485 1.50673,-7.57132 1.50673,-3.16413 4.33185,-4.82153 2.86278,-1.65741 6.89329,-1.65741 4.0305,0 6.89329,1.65741 2.86279,1.6574 4.33185,4.82153 1.50673,3.12647 1.50673,7.53366 v 2.33543 h -7.23231 v -2.33543 q 0,-2.22243 -0.64036,-3.8045 -0.64036,-1.58207 -1.88341,-2.41077 -1.24305,-0.8287 -2.97579,-0.8287 -1.73274,0 -2.97579,0.8287 -1.20539,0.8287 -1.88342,2.41077 -0.64036,1.58207 -0.64036,3.84216 v 27.83685 q 0,2.22243 0.64036,3.80449 0.67803,1.58207 1.88342,2.41077 1.24305,0.8287 2.97579,0.8287 1.73274,0 2.97579,-0.8287 1.24305,-0.8287 1.88341,-2.41077 0.64036,-1.58206 0.64036,-3.80449 v -2.33543 h 7.23231 v 2.33543 q 0,4.40719 -1.50673,7.57132 -1.46906,3.12646 -4.33185,4.78387 -2.86279,1.6574 -6.89329,1.6574 z m 29.43249,-50.85215 h 7.15697 v 50.28713 h -7.15697 z m -9.71841,-4.48252 h 26.5938 v 6.78028 h -26.5938 z m 55.83795,54.73198 v -40.04136 l 0.90404,0.97937 -14.9543,39.06199 h -5.95159 v -54.73198 h 6.8933 v 40.30504 l -0.90404,-0.97938 15.02963,-39.32566 h 5.87625 v 54.73198 z"
       id="path14" />
  </g>
</svg>
